# Made in Blockbench 4.2.4
mtllib escritoire.mtl

o scrollRackBase
v 2 0.125 0.875
v 2 0.125 0.125
v 2 0 0.875
v 2 0 0.125
v 1.75 0.125 0.125
v 1.75 0.125 0.875
v 1.75 0 0.125
v 1.75 0 0.875
vt 0.15625 0.875
vt 0.28125 0.875
vt 0.28125 0.8125
vt 0.15625 0.8125
vt 0.0625 0.9375
vt 0.4375 0.9375
vt 0.4375 0.875
vt 0.0625 0.875
vt 0.03125 0.875
vt 0.15625 0.875
vt 0.15625 0.8125
vt 0.03125 0.8125
vt 0.40625 0.8125
vt 0.40625 0.6875
vt 0.03125 0.6875
vt 0.03125 0.8125
vt 0.40625 0.8125
vt 0.40625 0.6875
vt 0.03125 0.6875
vt 0.03125 0.8125
vn 0 0 -1
vn 1 0 0
vn 0 0 1
vn 0 1 0
vn 0 -1 0
usemtl m_1
f 4/4/1 7/3/1 5/2/1 2/1/1
f 3/8/2 4/7/2 2/6/2 1/5/2
f 8/12/3 3/11/3 1/10/3 6/9/3
f 6/16/4 1/15/4 2/14/4 5/13/4
f 7/20/5 4/19/5 3/18/5 8/17/5
o scrollRackSideS1
v 2 0.4375 0.84375
v 2 0.4375 0.71875
v 2 0.125 0.84375
v 2 0.125 0.71875
v 1.6875 0.4375 0.71875
v 1.6875 0.4375 0.84375
v 1.6875 0.125 0.71875
v 1.6875 0.125 0.84375
vt 0.3125 0.6875
vt 0.46875 0.6875
vt 0.46875 0.53125
vt 0.3125 0.53125
vt 0.03125 0.6875
vt 0.09375 0.6875
vt 0.09375 0.53125
vt 0.03125 0.53125
vt 0.15625 0.6875
vt 0.3125 0.6875
vt 0.3125 0.53125
vt 0.15625 0.53125
vn 0 0 -1
vn 1 0 0
vn 0 0 1
usemtl m_1
f 12/24/6 15/23/6 13/22/6 10/21/6
f 11/28/7 12/27/7 10/26/7 9/25/7
f 16/32/8 11/31/8 9/30/8 14/29/8
o scrollRackSideN1
v 2 0.4375 0.28125
v 2 0.4375 0.15625
v 2 0.125 0.28125
v 2 0.125 0.15625
v 1.6875 0.4375 0.15625
v 1.6875 0.4375 0.28125
v 1.6875 0.125 0.15625
v 1.6875 0.125 0.28125
vt 0.3125 0.6875
vt 0.46875 0.6875
vt 0.46875 0.53125
vt 0.3125 0.53125
vt 0.09375 0.6875
vt 0.15625 0.6875
vt 0.15625 0.53125
vt 0.09375 0.53125
vt 0.15625 0.6875
vt 0.3125 0.6875
vt 0.3125 0.53125
vt 0.15625 0.53125
vn 0 0 -1
vn 1 0 0
vn 0 0 1
usemtl m_1
f 20/36/9 23/35/9 21/34/9 18/33/9
f 19/40/10 20/39/10 18/38/10 17/37/10
f 24/44/11 19/43/11 17/42/11 22/41/11
o scrollRackStick
v 1.96875 0.4375 0.75
v 1.96875 0.4375 0.25
v 1.96875 0.3125 0.75
v 1.96875 0.3125 0.25
v 1.90625 0.4375 0.25
v 1.90625 0.4375 0.75
v 1.90625 0.3125 0.25
v 1.90625 0.3125 0.75
vt 0.5 0.0625
vt 0.75 0.0625
vt 0.75 0
vt 0.5 0
vt 0.5 0.0625
vt 0.75 0.0625
vt 0.75 0
vt 0.5 0
vt 0.5 0.03125
vt 0.5 0.0625
vt 0.75 0.0625
vt 0.75 0.03125
vt 0.5 0
vt 0.5 0.03125
vt 0.75 0.03125
vt 0.75 0
vn 1 0 0
vn -1 0 0
vn 0 1 0
vn 0 -1 0
usemtl m_1
f 27/48/12 28/47/12 26/46/12 25/45/12
f 31/52/13 32/51/13 30/50/13 29/49/13
f 30/56/14 25/55/14 26/54/14 29/53/14
f 31/60/15 28/59/15 27/58/15 32/57/15
o scrollRackSideS2
v 2 0.4375 0.84375
v 2 0.4375 0.71875
v 1.71875 0.6875 0.71875
v 1.71875 0.4375 0.84375
v 1.71875 0.4375 0.71875
v 1.71875 0.6875 0.84375
vt 0.921875 0.71875
vt 0.78125 0.59375
vt 0.921875 0.59375
vt 0.5 0.6746875
vt 0.5 0.875
vt 0.4375 0.875
vt 0.4375 0.6746875
vt 0.78125 0.59375
vt 0.640625 0.71875
vt 0.640625 0.59375
vn 0 0 -1
vn 0.6643638388299198 0.7474093186836597 0
vn 0 0 1
usemtl m_2
f 35/61/16 34/62/16 37/63/16
f 34/64/17 35/65/17 38/66/17 33/67/17
f 33/68/18 38/69/18 36/70/18
o scrollRackSideN2
v 2 0.4375 0.28125
v 2 0.4375 0.15625
v 1.71875 0.6875 0.28125
v 1.71875 0.6875 0.15625
v 1.71875 0.4375 0.28125
v 1.71875 0.4375 0.15625
vt 0.78125 0.59375
vt 0.640625 0.71875
vt 0.640625 0.59375
vt 0.921875 0.71875
vt 0.78125 0.59375
vt 0.921875 0.59375
vt 0.5625 0.6746875
vt 0.5625 0.875
vt 0.5 0.875
vt 0.5 0.6746875
vn 0 0 1
vn 0 0 -1
vn 0.6643638388299198 0.7474093186836597 0
usemtl m_2
f 39/71/19 41/72/19 43/73/19
f 42/74/20 40/75/20 44/76/20
f 40/77/21 42/78/21 41/79/21 39/80/21
o scroll1
v 1.90625 0.6416070367407543 0.7234084473156842
v 1.90625 0.666080697782014 0.5375125358080948
v 1.90625 0.14588460605384912 0.6581453512056584
v 1.90625 0.17035826709510882 0.472249439698069
v 1.71875 0.666080697782014 0.5375125358080948
v 1.71875 0.6416070367407543 0.7234084473156842
v 1.71875 0.17035826709510882 0.472249439698069
v 1.71875 0.14588460605384912 0.6581453512056584
vt 0.8125 0.90625
vt 0.90625 0.90625
vt 0.90625 0.65625
vt 0.8125 0.65625
vt 0.8125 0.90625
vt 0.90625 0.90625
vt 0.90625 0.65625
vt 0.8125 0.65625
vt 0.8125 0.90625
vt 0.90625 0.90625
vt 0.90625 0.65625
vt 0.8125 0.65625
vt 0.8125 0.90625
vt 0.90625 0.90625
vt 0.90625 0.65625
vt 0.8125 0.65625
vt 0.8125 1
vt 0.90625 1
vt 0.90625 0.90625
vt 0.8125 0.90625
vt 0.8125 1
vt 0.90625 1
vt 0.90625 0.90625
vt 0.8125 0.90625
vn 0 0.13052619222005157 -0.9914448613738104
vn 1 0 0
vn 0 -0.13052619222005157 0.9914448613738104
vn -1 0 0
vn 0 0.9914448613738104 0.13052619222005157
vn 0 -0.9914448613738104 -0.13052619222005157
usemtl m_0
f 48/84/22 51/83/22 49/82/22 46/81/22
f 47/88/23 48/87/23 46/86/23 45/85/23
f 52/92/24 47/91/24 45/90/24 50/89/24
f 51/96/25 52/95/25 50/94/25 49/93/25
f 50/100/26 45/99/26 46/98/26 49/97/26
f 51/104/27 48/103/27 47/102/27 52/101/27
o reel1
v 1.859375 0.6787081039190008 0.6810134129456635
v 1.859375 0.6909449344396307 0.5880654571918688
v 1.859375 0.12102036939623251 0.6075924298218844
v 1.859375 0.13325719991686233 0.5146444740680898
v 1.765625 0.6909449344396307 0.5880654571918688
v 1.765625 0.6787081039190008 0.6810134129456635
v 1.765625 0.13325719991686233 0.5146444740680898
v 1.765625 0.12102036939623251 0.6075924298218844
vt 0.0703125 0.5
vt 0.1171875 0.5
vt 0.1171875 0.21875
vt 0.0703125 0.21875
vt 0.0078125 0.4375
vt 0.0546875 0.4375
vt 0.0546875 0.15625
vt 0.0078125 0.15625
vt 0.0703125 0.5
vt 0.1171875 0.5
vt 0.1171875 0.21875
vt 0.0703125 0.21875
vt 0.0078125 0.4375
vt 0.0546875 0.4375
vt 0.0546875 0.15625
vt 0.0078125 0.15625
vt 0.0078125 0.4921875
vt 0.0546875 0.4921875
vt 0.0546875 0.4453125
vt 0.0078125 0.4453125
vt 0.0078125 0.4921875
vt 0.0546875 0.4921875
vt 0.0546875 0.4453125
vt 0.0078125 0.4453125
vn 0 0.13052619222005157 -0.9914448613738104
vn 1 0 0
vn 0 -0.13052619222005157 0.9914448613738104
vn -1 0 0
vn 0 0.9914448613738104 0.13052619222005157
vn 0 -0.9914448613738104 -0.13052619222005157
usemtl m_0
f 56/108/28 59/107/28 57/106/28 54/105/28
f 55/112/29 56/111/29 54/110/29 53/109/29
f 60/116/30 55/115/30 53/114/30 58/113/30
f 59/120/31 60/119/31 58/118/31 57/117/31
f 58/124/32 53/123/32 54/122/32 57/121/32
f 59/128/33 56/127/33 55/126/33 60/125/33
o scroll2
v 1.875 0.6000364504392742 0.4084126992877269
v 1.875 0.5837206764117678 0.2844820916160006
v 1.875 0.1662793235882322 0.4655179083839994
v 1.875 0.14996354956072575 0.3415873007122731
v 1.75 0.5837206764117678 0.2844820916160006
v 1.75 0.6000364504392742 0.4084126992877269
v 1.75 0.14996354956072575 0.3415873007122731
v 1.75 0.1662793235882322 0.4655179083839994
vt 0.90625 0.9375
vt 0.96875 0.9375
vt 0.96875 0.71875
vt 0.90625 0.71875
vt 0.90625 0.9375
vt 0.96875 0.9375
vt 0.96875 0.71875
vt 0.90625 0.71875
vt 0.90625 0.9375
vt 0.96875 0.9375
vt 0.96875 0.71875
vt 0.90625 0.71875
vt 0.90625 0.9375
vt 0.96875 0.9375
vt 0.96875 0.71875
vt 0.90625 0.71875
vt 0.90625 1
vt 0.96875 1
vt 0.96875 0.9375
vt 0.90625 0.9375
vt 0.90625 1
vt 0.96875 1
vt 0.96875 0.9375
vt 0.90625 0.9375
vn 0 -0.13052619222005157 -0.9914448613738104
vn 1 0 0
vn 0 0.13052619222005157 0.9914448613738104
vn -1 0 0
vn 0 0.9914448613738104 -0.13052619222005157
vn 0 -0.9914448613738104 0.13052619222005157
usemtl m_0
f 64/132/34 67/131/34 65/130/34 62/129/34
f 63/136/35 64/135/35 62/134/35 61/133/35
f 68/140/36 63/139/36 61/138/36 66/137/36
f 67/144/37 68/143/37 66/142/37 65/141/37
f 66/148/38 61/147/38 62/146/38 65/145/38
f 67/152/39 64/151/39 63/150/39 68/149/39
o reel2
v 1.84375 0.6269401588503292 0.3733511038629187
v 1.84375 0.6187822718365761 0.3113858000270555
v 1.84375 0.13121772816342403 0.4386141999729445
v 1.84375 0.12305984114967083 0.3766488961370813
v 1.78125 0.6187822718365761 0.3113858000270555
v 1.78125 0.6269401588503292 0.3733511038629187
v 1.78125 0.12305984114967083 0.3766488961370813
v 1.78125 0.13121772816342403 0.4386141999729445
vt 0.96875 1
vt 1 1
vt 1 0.75
vt 0.96875 0.75
vt 0.96875 1
vt 1 1
vt 1 0.75
vt 0.96875 0.75
vt 0.96875 1
vt 1 1
vt 1 0.75
vt 0.96875 0.75
vt 0.96875 1
vt 1 1
vt 1 0.75
vt 0.96875 0.75
vt 0.96875 1
vt 1 1
vt 1 0.96875
vt 0.96875 0.96875
vt 0.96875 1
vt 1 1
vt 1 0.96875
vt 0.96875 0.96875
vn 0 -0.13052619222005157 -0.9914448613738104
vn 1 0 0
vn 0 0.13052619222005157 0.9914448613738104
vn -1 0 0
vn 0 0.9914448613738104 -0.13052619222005157
vn 0 -0.9914448613738104 0.13052619222005157
usemtl m_0
f 72/156/40 75/155/40 73/154/40 70/153/40
f 71/160/41 72/159/41 70/158/41 69/157/41
f 76/164/42 71/163/42 69/162/42 74/161/42
f 75/168/43 76/167/43 74/166/43 73/165/43
f 74/172/44 69/171/44 70/170/44 73/169/44
f 75/176/45 72/175/45 71/174/45 76/173/45
o draughtSheet1
v 1.5998797632095823 0.765625 0.8102563509461097
v 1.3498797632095823 0.765625 0.37724364905389035
v 1.5998797632095823 0.765625 0.8102563509461097
v 1.3498797632095823 0.765625 0.37724364905389035
v 1.0251202367904177 0.765625 0.5647436490538903
v 1.2751202367904177 0.765625 0.9977563509461096
v 1.0251202367904177 0.765625 0.5647436490538903
v 1.2751202367904177 0.765625 0.9977563509461096
vt 0.4375 1
vt 0.625 1
vt 0.625 0.75
vt 0.4375 0.75
vt 0.4375 1
vt 0.625 1
vt 0.625 0.75
vt 0.4375 0.75
vn 0 1 0
vn 0 -1 0
usemtl m_0
f 82/180/46 77/179/46 78/178/46 81/177/46
f 83/184/47 80/183/47 79/182/47 84/181/47
o draughtSheet2
v 1.574197402228775 0.78125 0.8582943783229142
v 1.4031873305659406 0.78125 0.38844806792996
v 1.574197402228775 0.78125 0.8582943783229142
v 1.4031873305659406 0.78125 0.38844806792996
v 1.050802597771225 0.78125 0.5167056216770858
v 1.2218126694340594 0.78125 0.98655193207004
v 1.050802597771225 0.78125 0.5167056216770858
v 1.2218126694340594 0.78125 0.98655193207004
vt 0.4375 1
vt 0.625 1
vt 0.625 0.75
vt 0.4375 0.75
vt 0.625 1
vt 0.8125 1
vt 0.8125 0.75
vt 0.625 0.75
vn 0 1 0
vn 0 -1 0
usemtl m_0
f 90/188/48 85/187/48 86/186/48 89/185/48
f 91/192/49 88/191/49 87/190/49 92/189/49
o draughtSheet3
v 1.5405634981065215 0.796875 0.9011429049405025
v 1.4537394092730564 0.796875 0.4087390284343986
v 1.5405634981065215 0.796875 0.9011429049405025
v 1.4537394092730564 0.796875 0.4087390284343986
v 1.0844365018934785 0.796875 0.47385709505949747
v 1.1712605907269436 0.796875 0.9662609715656014
v 1.0844365018934785 0.796875 0.47385709505949747
v 1.1712605907269436 0.796875 0.9662609715656014
vt 0.625 1
vt 0.8125 1
vt 0.8125 0.75
vt 0.625 0.75
vt 0.4375 1
vt 0.625 1
vt 0.625 0.75
vt 0.4375 0.75
vn 0 1 0
vn 0 -1 0
usemtl m_0
f 98/196/50 93/195/50 94/194/50 97/193/50
f 99/200/51 96/199/51 95/198/51 100/197/51
o volume1
v 1.626778144634197 0.875 0.4933178708355436
v 1.7588463514281656 0.875 0.2100966873865905
v 1.626778144634197 0.75 0.4933178708355436
v 1.7588463514281656 0.75 0.2100966873865905
v 1.3623366945996311 0.875 0.025201197875034526
v 1.2302684878056627 0.875 0.30842238132398764
v 1.3623366945996311 0.75 0.025201197875034526
v 1.2302684878056627 0.75 0.30842238132398764
vt 0 0.625
vt 0.21875 0.625
vt 0.21875 0.5625
vt 0 0.5625
vt 0.21875 0.625
vt 0.375 0.625
vt 0.375 0.5625
vt 0.21875 0.5625
vt 0 0.5625
vt 0.21875 0.5625
vt 0.21875 0.5
vt 0 0.5
vt 0.21875 0.84375
vt 0.375 0.84375
vt 0.375 0.78125
vt 0.21875 0.78125
vt 0.21875 0.625
vt 0 0.625
vt 0 0.78125
vt 0.21875 0.78125
vt 0.21875 0.78125
vt 0.4375 0.78125
vt 0.4375 0.625
vt 0.21875 0.625
vn 0.42261826174069944 0 -0.9063077870366499
vn 0.9063077870366499 0 0.42261826174069944
vn -0.42261826174069944 0 0.9063077870366499
vn -0.9063077870366499 0 -0.42261826174069944
vn 0 1 0
vn 0 -1 0
usemtl m_0
f 104/204/52 107/203/52 105/202/52 102/201/52
f 103/208/53 104/207/53 102/206/53 101/205/53
f 108/212/54 103/211/54 101/210/54 106/209/54
f 107/216/55 108/215/55 106/214/55 105/213/55
f 106/220/56 101/219/56 102/218/56 105/217/56
f 107/224/57 104/223/57 103/222/57 108/221/57
o volume2
v 1.5454364306631736 1 0.49953378759597067
v 1.746307558690217 1 0.26014489912129
v 1.5454364306631736 0.875 0.49953378759597067
v 1.746307558690217 0.875 0.26014489912129
v 1.4111631148256643 1 -0.02107468011657096
v 1.2102919867986206 1 0.21831420835810966
v 1.4111631148256643 0.875 -0.02107468011657096
v 1.2102919867986206 0.875 0.21831420835810966
vt 0 0.5625
vt 0.21875 0.5625
vt 0.21875 0.5
vt 0 0.5
vt 0.21875 0.84375
vt 0.375 0.84375
vt 0.375 0.78125
vt 0.21875 0.78125
vt 0 0.84375
vt 0.21875 0.84375
vt 0.21875 0.78125
vt 0 0.78125
vt 0.21875 0.625
vt 0.375 0.625
vt 0.375 0.5625
vt 0.21875 0.5625
vt 0 1
vt 0.21875 1
vt 0.21875 0.84375
vt 0 0.84375
vt 0.4375 0.84375
vt 0.21875 0.84375
vt 0.21875 1
vt 0.4375 1
vn 0.6427876096865394 0 -0.766044443118978
vn 0.766044443118978 0 0.6427876096865394
vn -0.6427876096865394 0 0.766044443118978
vn -0.766044443118978 0 -0.6427876096865394
vn 0 1 0
vn 0 -1 0
usemtl m_0
f 112/228/58 115/227/58 113/226/58 110/225/58
f 111/232/59 112/231/59 110/230/59 109/229/59
f 116/236/60 111/235/60 109/234/60 114/233/60
f 115/240/61 116/239/61 114/238/61 113/237/61
f 114/244/62 109/243/62 110/242/62 113/241/62
f 115/248/63 112/247/63 111/246/63 116/245/63
o deskBaseW
v 1 0.125 1
v 1 0.125 0
v 1 0 1
v 1 0 0
v 0 0.125 0
v 0 0.125 1
v 0 0 0
v 0 0 1
vt 0 0.5
vt 0.5 0.5
vt 0.5 0.4375
vt 0 0.4375
vt 0 0.5
vt 0.5 0.5
vt 0.5 0.4375
vt 0 0.4375
vt 0 0.5
vt 0.5 0.5
vt 0.5 0.4375
vt 0 0.4375
vt 0 0.5
vt 0.5 0.5
vt 0.5 0.4375
vt 0 0.4375
vt 0 1
vt 0.5 1
vt 0.5 0.5
vt 0 0.5
vt 0 1
vt 0.5 1
vt 0.5 0.5
vt 0 0.5
vn 0 0 -1
vn 1 0 0
vn 0 0 1
vn -1 0 0
vn 0 1 0
vn 0 -1 0
usemtl m_2
f 120/252/64 123/251/64 121/250/64 118/249/64
f 119/256/65 120/255/65 118/254/65 117/253/65
f 124/260/66 119/259/66 117/258/66 122/257/66
f 123/264/67 124/263/67 122/262/67 121/261/67
f 122/268/68 117/267/68 118/266/68 121/265/68
f 123/272/69 120/271/69 119/270/69 124/269/69
o drawerBottom
v 0.96875 0.4375 0.96875
v 0.96875 0.4375 0.03125
v 0.96875 0.125 0.96875
v 0.96875 0.125 0.03125
v 0.03125 0.4375 0.03125
v 0.03125 0.4375 0.96875
v 0.03125 0.125 0.03125
v 0.03125 0.125 0.96875
vt 0.46875 0.15625
vt 0.9375 0.15625
vt 0.9375 0
vt 0.46875 0
vt 0 0.3125
vt 0.46875 0.3125
vt 0.46875 0.15625
vt 0 0.15625
vt 0.46875 0.3125
vt 0.9375 0.3125
vt 0.9375 0.15625
vt 0.46875 0.15625
vt 0 0.3125
vt 0.46875 0.3125
vt 0.46875 0.15625
vt 0 0.15625
vn 0 0 -1
vn 1 0 0
vn 0 0 1
vn -1 0 0
usemtl m_2
f 128/276/70 131/275/70 129/274/70 126/273/70
f 127/280/71 128/279/71 126/278/71 125/277/71
f 132/284/72 127/283/72 125/282/72 130/281/72
f 131/288/73 132/287/73 130/286/73 129/285/73
o drawerTop
v 0.96875 0.6875 0.96875
v 0.96875 0.6875 0.03125
v 0.96875 0.4375 0.96875
v 0.96875 0.4375 0.03125
v 0.03125 0.6875 0.03125
v 0.03125 0.6875 0.96875
v 0.03125 0.4375 0.03125
v 0.03125 0.4375 0.96875
vt 0 0.15625
vt 0.46875 0.15625
vt 0.46875 0.03125
vt 0 0.03125
vt 0 0.4375
vt 0.46875 0.4375
vt 0.46875 0.3125
vt 0 0.3125
vt 0.46875 0.4375
vt 0.9375 0.4375
vt 0.9375 0.3125
vt 0.46875 0.3125
vt 0 0.4375
vt 0.46875 0.4375
vt 0.46875 0.3125
vt 0 0.3125
vn 0 0 -1
vn 1 0 0
vn 0 0 1
vn -1 0 0
usemtl m_2
f 136/292/74 139/291/74 137/290/74 134/289/74
f 135/296/75 136/295/75 134/294/75 133/293/75
f 140/300/76 135/299/76 133/298/76 138/297/76
f 139/304/77 140/303/77 138/302/77 137/301/77
o deskBoard
v 1.75 0.75 1
v 1.75 0.75 0
v 1.75 0.6875 1
v 1.75 0.6875 0
v 0 0.75 0
v 0 0.75 1
v 0 0.6875 0
v 0 0.6875 1
vt 0 1
vt 0.875 1
vt 0.875 0.96875
vt 0 0.96875
vt 0 0.46875
vt 0.5 0.46875
vt 0.5 0.4375
vt 0 0.4375
vt 0 1
vt 0.875 1
vt 0.875 0.96875
vt 0 0.96875
vt 0 0.46875
vt 0.5 0.46875
vt 0.5 0.4375
vt 0 0.4375
vt 0 0.96875
vt 0.875 0.96875
vt 0.875 0.46875
vt 0 0.46875
vt 0 0.96875
vt 0.875 0.96875
vt 0.875 0.46875
vt 0 0.46875
vn 0 0 -1
vn 1 0 0
vn 0 0 1
vn -1 0 0
vn 0 1 0
vn 0 -1 0
usemtl m_1
f 144/308/78 147/307/78 145/306/78 142/305/78
f 143/312/79 144/311/79 142/310/79 141/309/79
f 148/316/80 143/315/80 141/314/80 146/313/80
f 147/320/81 148/319/81 146/318/81 145/317/81
f 146/324/82 141/323/82 142/322/82 145/321/82
f 147/328/83 144/327/83 143/326/83 148/325/83
o deskBaseE
v 1.75 0.125 1
v 1.75 0.125 0
v 1.75 0 1
v 1.75 0 0
v 1.5 0.125 0
v 1.5 0.125 1
v 1.5 0 0
v 1.5 0 1
vt 0.5 0.5
vt 0.625 0.5
vt 0.625 0.4375
vt 0.5 0.4375
vt 0 0.5
vt 0.5 0.5
vt 0.5 0.4375
vt 0 0.4375
vt 0.5 0.5
vt 0.625 0.5
vt 0.625 0.4375
vt 0.5 0.4375
vt 0 0.5
vt 0.5 0.5
vt 0.5 0.4375
vt 0 0.4375
vt 0.5 1
vt 0.625 1
vt 0.625 0.5
vt 0.5 0.5
vt 0.5 1
vt 0.625 1
vt 0.625 0.5
vt 0.5 0.5
vn 0 0 -1
vn 1 0 0
vn 0 0 1
vn -1 0 0
vn 0 1 0
vn 0 -1 0
usemtl m_2
f 152/332/84 155/331/84 153/330/84 150/329/84
f 151/336/85 152/335/85 150/334/85 149/333/85
f 156/340/86 151/339/86 149/338/86 154/337/86
f 155/344/87 156/343/87 154/342/87 153/341/87
f 154/348/88 149/347/88 150/346/88 153/345/88
f 155/352/89 152/351/89 151/350/89 156/349/89
o deskPartition
v 1.71875 0.6875 0.96875
v 1.71875 0.6875 0.03125
v 1.71875 0.125 0.96875
v 1.71875 0.125 0.03125
v 1.53125 0.6875 0.03125
v 1.53125 0.6875 0.96875
v 1.53125 0.125 0.03125
v 1.53125 0.125 0.96875
vt 0.625 1
vt 0.71875 1
vt 0.71875 0.71875
vt 0.625 0.71875
vt 0 0.4375
vt 0.46875 0.4375
vt 0.46875 0.15625
vt 0 0.15625
vt 0.625 1
vt 0.71875 1
vt 0.71875 0.71875
vt 0.625 0.71875
vt 0 0.4375
vt 0.46875 0.4375
vt 0.46875 0.15625
vt 0 0.15625
vn 0 0 -1
vn 1 0 0
vn 0 0 1
vn -1 0 0
usemtl m_2
f 160/356/90 163/355/90 161/354/90 158/353/90
f 159/360/91 160/359/91 158/358/91 157/357/91
f 164/364/92 159/363/92 157/362/92 162/361/92
f 163/368/93 164/367/93 162/366/93 161/365/93
o deskBoard2
v 1 0.9375 0.5
v 1 0.9375 0
v 1 0.75 0.5
v 1 0.75 0
v 0 0.9375 0
v 0 0.9375 0.5
v 0 0.75 0
v 0 0.75 0.5
vt 0 0.09375
vt 0.5 0.09375
vt 0.5 0
vt 0 0
vt 0.75 0.4375
vt 1 0.4375
vt 1 0.34375
vt 0.75 0.34375
vt 0 0.4375
vt 0.25 0.4375
vt 0.25 0.34375
vt 0 0.34375
vt 0 0.34375
vt 0.5 0.34375
vt 0.5 0.09375
vt 0 0.09375
vn 0 0 -1
vn 1 0 0
vn -1 0 0
vn 0 1 0
usemtl m_1
f 168/372/94 171/371/94 169/370/94 166/369/94
f 167/376/95 168/375/95 166/374/95 165/373/95
f 171/380/96 172/379/96 170/378/96 169/377/96
f 170/384/97 165/383/97 166/382/97 169/381/97
o deskBoard4
v 1 0.875 0.75
v 1 0.75 1
v 0 0.75 1
v 0 0.75 0.75
v 0 0.875 0.75
v 1 0.75 0.75
vt 0.5 0.2025
vt 0.5 0.0625
vt 1 0.0625
vt 1 0.2025
vt 0.375 0.40625
vt 0.375 0.34375
vt 0.5 0.34375
vt 0.625 0.34375
vt 0.625 0.40625
vt 0.5 0.34375
vn 0 0.8944271909999161 0.44721359549995804
vn -1 0 0
vn 1 0 0
usemtl m_1
f 177/385/98 175/386/98 174/387/98 173/388/98
f 177/389/99 176/390/99 175/391/99
f 178/392/100 173/393/100 174/394/100
o deskBoard3
v 1 0.9375 0.5
v 1 0.75 0.75
v 1 0.75 0.5
v 0 0.875 0.75
v 0 0.9375 0.5
v 0 0.75 0.75
v 0 0.75 0.5
v 1 0.875 0.75
vt 0.75 0.4375
vt 0.625 0.40625
vt 0.625 0.34375
vt 0.75 0.34375
vt 0.375 0.34375
vt 0.375 0.40625
vt 0.25 0.4375
vt 0.25 0.34375
vt 0.5 0.21490624999999997
vt 1 0.21490624999999997
vt 1 0.34375
vt 0.5 0.34375
vn 1 0 0
vn -1 0 0
vn 0 0.9701425001453319 0.24253562503633297
usemtl m_1
f 179/395/101 186/396/101 180/397/101 181/398/101
f 184/399/102 182/400/102 183/401/102 185/402/102
f 182/403/103 186/404/103 179/405/103 183/406/103