# Made in Blockbench 5.0.7
mtllib vawt.mtl

o blade1-1
v 0.5625 1.875 0.375
v 0.5625 1.875 -0.625
v 0.5625 1.8125 0.375
v 0.5625 1.8125 -0.625
v 0.4375 1.875 -0.625
v 0.4375 1.875 0.375
v 0.4375 1.8125 -0.625
v 0.4375 1.8125 0.375
vt 0.125 0.0625
vt 0.1875 0.0625
vt 0.1875 0.03125
vt 0.125 0.03125
vt 0.125 0.15625
vt 0.625 0.15625
vt 0.625 0.125
vt 0.125 0.125
vt 0 1
vt 0 1
vt 0 1
vt 0 1
vt 0.125 0.15625
vt 0.625 0.15625
vt 0.625 0.125
vt 0.125 0.125
vt 0.125 0.15625
vt 0.125 0.21875
vt 0.625 0.21875
vt 0.625 0.15625
vt 0.625 0.125
vt 0.625 0.0625
vt 0.125 0.0625
vt 0.125 0.125
vn 0 0 -1
vn 1 0 0
vn 0 0 1
vn -1 0 0
vn 0 1 0
vn 0 -1 0
usemtl vawt
f 4/4/1 7/3/1 5/2/1 2/1/1
f 3/8/2 4/7/2 2/6/2 1/5/2
f 8/12/3 3/11/3 1/10/3 6/9/3
f 7/16/4 8/15/4 6/14/4 5/13/4
f 6/20/5 1/19/5 2/18/5 5/17/5
f 7/24/6 4/23/6 3/22/6 8/21/6
o blade1-2
v 0.5625 0.625 0.375
v 0.5625 0.625 -0.625
v 0.5625 0.5625 0.375
v 0.5625 0.5625 -0.625
v 0.4375 0.625 -0.625
v 0.4375 0.625 0.375
v 0.4375 0.5625 -0.625
v 0.4375 0.5625 0.375
vt 0.125 0.03125
vt 0.1875 0.03125
vt 0.1875 0.0625
vt 0.125 0.0625
vt 0.125 0.125
vt 0.625 0.125
vt 0.625 0.15625
vt 0.125 0.15625
vt 0 1
vt 0 1
vt 0 1
vt 0 1
vt 0.125 0.125
vt 0.625 0.125
vt 0.625 0.15625
vt 0.125 0.15625
vt 0.125 0.125
vt 0.125 0.0625
vt 0.625 0.0625
vt 0.625 0.125
vt 0.625 0.15625
vt 0.625 0.21875
vt 0.125 0.21875
vt 0.125 0.15625
vn 0 0 -1
vn 1 0 0
vn 0 0 1
vn -1 0 0
vn 0 1 0
vn 0 -1 0
usemtl vawt
f 12/28/7 15/27/7 13/26/7 10/25/7
f 11/32/8 12/31/8 10/30/8 9/29/8
f 16/36/9 11/35/9 9/34/9 14/33/9
f 15/40/10 16/39/10 14/38/10 13/37/10
f 14/44/11 9/43/11 10/42/11 13/41/11
f 15/48/12 12/47/12 11/46/12 16/45/12
o blade1-3
v 0.5 1.8125 0.25
v 0.5 1.8125 -0.5625
v 0.5 0.625 0.25
v 0.5 0.625 -0.5625
v 0.5 1.8125 -0.5625
v 0.5 1.8125 0.25
v 0.5 0.625 -0.5625
v 0.5 0.625 0.25
vt 0.5 1
vt 0.90625 1
vt 0.90625 0.40625
vt 0.5 0.40625
vt 0.5 1
vt 0.90625 1
vt 0.90625 0.40625
vt 0.5 0.40625
vn 1 0 0
vn -1 0 0
usemtl vawt
f 19/52/13 20/51/13 18/50/13 17/49/13
f 23/56/14 24/55/14 22/54/14 21/53/14
o axis3
v 0.640625 1.953125 0.640625
v 0.640625 1.953125 0.359375
v 0.640625 0.359375 0.640625
v 0.640625 0.359375 0.359375
v 0.359375 1.953125 0.359375
v 0.359375 1.953125 0.640625
v 0.359375 0.359375 0.359375
v 0.359375 0.359375 0.640625
vt 0.125 1
vt 0.25 1
vt 0.25 0.21875
vt 0.125 0.21875
vt 0 1
vt 0.125 1
vt 0.125 0.21875
vt 0 0.21875
vt 0.375 1
vt 0.5 1
vt 0.5 0.21875
vt 0.375 0.21875
vt 0.25 1
vt 0.375 1
vt 0.375 0.21875
vt 0.25 0.21875
vt 0 0.21875
vt 0.125 0.21875
vt 0.125 0.09375
vt 0 0.09375
vt 0 0.21875
vt 0.125 0.21875
vt 0.125 0.09375
vt 0 0.09375
vn 0 0 -1
vn 1 0 0
vn 0 0 1
vn -1 0 0
vn 0 1 0
vn 0 -1 0
usemtl vawt
f 28/60/15 31/59/15 29/58/15 26/57/15
f 27/64/16 28/63/16 26/62/16 25/61/16
f 32/68/17 27/67/17 25/66/17 30/65/17
f 31/72/18 32/71/18 30/70/18 29/69/18
f 30/76/19 25/75/19 26/74/19 29/73/19
f 31/80/20 28/79/20 27/78/20 32/77/20
o axis1
v 0.625 0.75 0.625
v 0.625 0.75 0.375
v 0.625 0 0.625
v 0.625 0 0.375
v 0.375 0.75 0.375
v 0.375 0.75 0.625
v 0.375 0 0.375
v 0.375 0 0.625
vt 0.375 0.5
vt 0.625 0.5
vt 0.625 0
vt 0.375 0
vt 0.375 0.5
vt 0.625 0.5
vt 0.625 0
vt 0.375 0
vt 0.375 0.5
vt 0.625 0.5
vt 0.625 0
vt 0.375 0
vt 0.375 0.5
vt 0.625 0.5
vt 0.625 0
vt 0.375 0
vt 0.625 0.375
vt 0.375 0.375
vt 0.375 0.625
vt 0.625 0.625
vn 0 0 -1
vn 1 0 0
vn 0 0 1
vn -1 0 0
vn 0 -1 0
usemtl axis
f 36/84/21 39/83/21 37/82/21 34/81/21
f 35/88/22 36/87/22 34/86/22 33/85/22
f 40/92/23 35/91/23 33/90/23 38/89/23
f 39/96/24 40/95/24 38/94/24 37/93/24
usemtl axis_top
f 39/100/25 36/99/25 35/98/25 40/97/25
o blade2-1
v 0.36049682452694515 1.875 0.5083734122634725
v -0.5055285792574937 1.875 1.0083734122634724
v 0.36049682452694515 1.8125 0.5083734122634725
v -0.5055285792574937 1.8125 1.0083734122634724
v -0.4430285792574937 1.875 1.1166265877365271
v 0.42299682452694515 1.875 0.6166265877365273
v -0.4430285792574937 1.8125 1.1166265877365271
v 0.42299682452694515 1.8125 0.6166265877365273
vt 0.125 0.0625
vt 0.1875 0.0625
vt 0.1875 0.03125
vt 0.125 0.03125
vt 0.125 0.15625
vt 0.625 0.15625
vt 0.625 0.125
vt 0.125 0.125
vt 0 1
vt 0 1
vt 0 1
vt 0 1
vt 0.125 0.15625
vt 0.625 0.15625
vt 0.625 0.125
vt 0.125 0.125
vt 0.125 0.15625
vt 0.125 0.21875
vt 0.625 0.21875
vt 0.625 0.15625
vt 0.625 0.125
vt 0.625 0.0625
vt 0.125 0.0625
vt 0.125 0.125
vn -0.8660254037844388 0 0.4999999999999998
vn -0.4999999999999998 0 -0.8660254037844388
vn 0.8660254037844388 0 -0.4999999999999998
vn 0.4999999999999998 0 0.8660254037844388
vn 0 1 0
vn 0 -1 0
usemtl vawt
f 44/104/26 47/103/26 45/102/26 42/101/26
f 43/108/27 44/107/27 42/106/27 41/105/27
f 48/112/28 43/111/28 41/110/28 46/109/28
f 47/116/29 48/115/29 46/114/29 45/113/29
f 46/120/30 41/119/30 42/118/30 45/117/30
f 47/124/31 44/123/31 43/122/31 48/121/31
o blade2-2
v 0.36049682452694515 0.625 0.5083734122634725
v -0.5055285792574937 0.625 1.0083734122634724
v 0.36049682452694515 0.5625 0.5083734122634725
v -0.5055285792574937 0.5625 1.0083734122634724
v -0.4430285792574937 0.625 1.1166265877365271
v 0.42299682452694515 0.625 0.6166265877365273
v -0.4430285792574937 0.5625 1.1166265877365271
v 0.42299682452694515 0.5625 0.6166265877365273
vt 0.125 0.03125
vt 0.1875 0.03125
vt 0.1875 0.0625
vt 0.125 0.0625
vt 0.125 0.125
vt 0.625 0.125
vt 0.625 0.15625
vt 0.125 0.15625
vt 0 1
vt 0 1
vt 0 1
vt 0 1
vt 0.125 0.125
vt 0.625 0.125
vt 0.625 0.15625
vt 0.125 0.15625
vt 0.125 0.125
vt 0.125 0.0625
vt 0.625 0.0625
vt 0.625 0.125
vt 0.625 0.15625
vt 0.625 0.21875
vt 0.125 0.21875
vt 0.125 0.15625
vn -0.8660254037844388 0 0.4999999999999998
vn -0.4999999999999998 0 -0.8660254037844388
vn 0.8660254037844388 0 -0.4999999999999998
vn 0.4999999999999998 0 0.8660254037844388
vn 0 1 0
vn 0 -1 0
usemtl vawt
f 52/128/32 55/127/32 53/126/32 50/125/32
f 51/132/33 52/131/33 50/130/33 49/129/33
f 56/136/34 51/135/34 49/134/34 54/133/34
f 55/140/35 56/139/35 54/138/35 53/137/35
f 54/144/36 49/143/36 50/142/36 53/141/36
f 55/148/37 52/147/37 51/146/37 56/145/37
o blade2-3
v 0.2834936490538903 1.8125 0.625
v -0.4201519915209663 1.8125 1.0312499999999998
v 0.2834936490538903 0.625 0.625
v -0.4201519915209663 0.625 1.0312499999999998
v -0.4201519915209663 1.8125 1.0312499999999998
v 0.2834936490538903 1.8125 0.625
v -0.4201519915209663 0.625 1.0312499999999998
v 0.2834936490538903 0.625 0.625
vt 0.5 1
vt 0.90625 1
vt 0.90625 0.40625
vt 0.5 0.40625
vt 0.5 1
vt 0.90625 1
vt 0.90625 0.40625
vt 0.5 0.40625
vn -0.4999999999999998 0 -0.8660254037844388
vn 0.4999999999999998 0 0.8660254037844388
usemtl vawt
f 59/152/38 60/151/38 58/150/38 57/149/38
f 63/156/39 64/155/39 62/154/39 61/153/39
o blade3-1
v 0.5770031754730549 1.875 0.6166265877365273
v 1.4430285792574937 1.875 1.1166265877365271
v 0.5770031754730549 1.8125 0.6166265877365273
v 1.4430285792574937 1.8125 1.1166265877365271
v 1.5055285792574937 1.875 1.0083734122634724
v 0.6395031754730549 1.875 0.5083734122634725
v 1.5055285792574937 1.8125 1.0083734122634724
v 0.6395031754730549 1.8125 0.5083734122634725
vt 0.125 0.0625
vt 0.1875 0.0625
vt 0.1875 0.03125
vt 0.125 0.03125
vt 0.125 0.15625
vt 0.625 0.15625
vt 0.625 0.125
vt 0.125 0.125
vt 0 1
vt 0 1
vt 0 1
vt 0 1
vt 0.125 0.15625
vt 0.625 0.15625
vt 0.625 0.125
vt 0.125 0.125
vt 0.125 0.15625
vt 0.125 0.21875
vt 0.625 0.21875
vt 0.625 0.15625
vt 0.625 0.125
vt 0.625 0.0625
vt 0.125 0.0625
vt 0.125 0.125
vn 0.8660254037844388 0 0.4999999999999998
vn -0.4999999999999998 0 0.8660254037844388
vn -0.8660254037844388 0 -0.4999999999999998
vn 0.4999999999999998 0 -0.8660254037844388
vn 0 1 0
vn 0 -1 0
usemtl vawt
f 68/160/40 71/159/40 69/158/40 66/157/40
f 67/164/41 68/163/41 66/162/41 65/161/41
f 72/168/42 67/167/42 65/166/42 70/165/42
f 71/172/43 72/171/43 70/170/43 69/169/43
f 70/176/44 65/175/44 66/174/44 69/173/44
f 71/180/45 68/179/45 67/178/45 72/177/45
o blade3-2
v 0.5770031754730549 0.625 0.6166265877365273
v 1.4430285792574937 0.625 1.1166265877365271
v 0.5770031754730549 0.5625 0.6166265877365273
v 1.4430285792574937 0.5625 1.1166265877365271
v 1.5055285792574937 0.625 1.0083734122634724
v 0.6395031754730549 0.625 0.5083734122634725
v 1.5055285792574937 0.5625 1.0083734122634724
v 0.6395031754730549 0.5625 0.5083734122634725
vt 0.125 0.03125
vt 0.1875 0.03125
vt 0.1875 0.0625
vt 0.125 0.0625
vt 0.125 0.125
vt 0.625 0.125
vt 0.625 0.15625
vt 0.125 0.15625
vt 0 1
vt 0 1
vt 0 1
vt 0 1
vt 0.125 0.125
vt 0.625 0.125
vt 0.625 0.15625
vt 0.125 0.15625
vt 0.125 0.125
vt 0.125 0.0625
vt 0.625 0.0625
vt 0.625 0.125
vt 0.625 0.15625
vt 0.625 0.21875
vt 0.125 0.21875
vt 0.125 0.15625
vn 0.8660254037844388 0 0.4999999999999998
vn -0.4999999999999998 0 0.8660254037844388
vn -0.8660254037844388 0 -0.4999999999999998
vn 0.4999999999999998 0 -0.8660254037844388
vn 0 1 0
vn 0 -1 0
usemtl vawt
f 76/184/46 79/183/46 77/182/46 74/181/46
f 75/188/47 76/187/47 74/186/47 73/185/47
f 80/192/48 75/191/48 73/190/48 78/189/48
f 79/196/49 80/195/49 78/194/49 77/193/49
f 78/200/50 73/199/50 74/198/50 77/197/50
f 79/204/51 76/203/51 75/202/51 80/201/51
o blade3-3
v 0.7165063509461097 1.8125 0.625
v 1.4201519915209664 1.8125 1.0312499999999998
v 0.7165063509461097 0.625 0.625
v 1.4201519915209664 0.625 1.0312499999999998
v 1.4201519915209664 1.8125 1.0312499999999998
v 0.7165063509461097 1.8125 0.625
v 1.4201519915209664 0.625 1.0312499999999998
v 0.7165063509461097 0.625 0.625
vt 0.5 1
vt 0.90625 1
vt 0.90625 0.40625
vt 0.5 0.40625
vt 0.5 1
vt 0.90625 1
vt 0.90625 0.40625
vt 0.5 0.40625
vn -0.4999999999999998 0 0.8660254037844388
vn 0.4999999999999998 0 -0.8660254037844388
usemtl vawt
f 83/208/52 84/207/52 82/206/52 81/205/52
f 87/212/53 88/211/53 86/210/53 85/209/53