# Blender v2.92.0 OBJ File: ''
# www.blender.org
mtllib relic_chest.mtl
o prismN
v 0.812500 0.625000 0.000000
v 0.812500 0.750000 0.125000
v 0.812500 -0.000000 0.125000
v 0.812500 0.125000 0.000000
v 0.187500 -0.000000 0.125000
v 0.187500 0.750000 0.125000
v 0.187500 0.625000 0.000000
v 0.187500 0.125000 0.000000
v 0.687500 0.375000 0.125000
v 0.687500 0.750000 0.125000
v 0.687500 0.625000 0.000000
v 0.687500 0.375000 0.000000
v 0.312500 0.625000 0.000000
v 0.312500 0.750000 0.125000
v 0.312500 0.375000 0.125000
v 0.312500 0.375000 0.000000
vt 0.500000 0.937500
vt 0.437500 1.000000
vt 0.437500 0.625000
vt 0.500000 0.687500
vt 0.062500 0.625000
vt 0.062500 1.000000
vt 0.000000 0.937500
vt 0.000000 0.687500
vt 0.000000 0.312500
vt 0.000000 0.224063
vt 0.312500 0.224063
vt 0.312500 0.312500
vt 0.937500 0.812500
vt 0.937500 1.000000
vt 0.875000 0.937500
vt 0.875000 0.812500
vt 1.000000 0.937500
vt 0.937500 1.000000
vt 0.937500 0.812500
vt 1.000000 0.812500
vt 0.687500 0.687500
vt 0.500000 0.687500
vt 0.500000 0.625000
vt 0.687500 0.625000
vt 0.125000 0.468750
vt 0.125000 0.557187
vt 0.062500 0.557187
vt 0.062500 0.468750
vt 0.187500 0.468750
vt 0.187500 0.557187
vt 0.125000 0.557187
vt 0.125000 0.468750
vt 0.062500 0.437500
vt 0.062500 0.562500
vt 0.000000 0.562500
vt 0.312500 0.562500
vt 0.250000 0.562500
vt 0.250000 0.437500
vn 1.0000 0.0000 0.0000
vn -1.0000 0.0000 0.0000
vn 0.0000 -0.7071 -0.7071
vn 0.0000 1.0000 0.0000
vn 0.0000 0.7071 -0.7071
vn 0.0000 0.0000 -1.0000
usemtl m_0
s 1
f 1/1/1 2/2/1 3/3/1 4/4/1
f 5/5/2 6/6/2 7/7/2 8/8/2
f 4/9/3 3/10/3 5/11/3 8/12/3
f 9/13/2 10/14/2 11/15/2 12/16/2
f 13/17/1 14/18/1 15/19/1 16/20/1
f 15/21/4 9/22/4 12/23/4 16/24/4
f 11/25/5 10/26/5 2/27/5 1/28/5
f 7/29/5 6/30/5 14/31/5 13/32/5
f 12/33/6 11/34/6 1/35/6 4/9/6
f 7/36/6 13/37/6 16/38/6 8/12/6
f 16/38/6 12/33/6 4/9/6 8/12/6
o prismS
v 0.187500 0.625000 1.000000
v 0.187500 0.750000 0.875000
v 0.187500 -0.000000 0.875000
v 0.187500 0.125000 1.000000
v 0.812500 -0.000000 0.875000
v 0.812500 0.125000 1.000000
v 0.312500 0.375000 0.875000
v 0.312500 0.750000 0.875000
v 0.312500 0.625000 1.000000
v 0.312500 0.375000 1.000000
v 0.687500 0.625000 1.000000
v 0.687500 0.750000 0.875000
v 0.687500 0.375000 0.875000
v 0.687500 0.375000 1.000000
v 0.812500 0.625000 1.000000
v 0.812500 0.750000 0.875000
vt 0.500000 0.937500
vt 0.437500 1.000000
vt 0.437500 0.625000
vt 0.500000 0.687500
vt 0.000000 0.312500
vt 0.000000 0.224063
vt 0.312500 0.224063
vt 0.312500 0.312500
vt 0.937500 0.812500
vt 0.937500 1.000000
vt 0.875000 0.937500
vt 0.875000 0.812500
vt 1.000000 0.937500
vt 0.937500 1.000000
vt 0.937500 0.812500
vt 1.000000 0.812500
vt 0.687500 0.687500
vt 0.500000 0.687500
vt 0.500000 0.625000
vt 0.687500 0.625000
vt 0.125000 0.468750
vt 0.125000 0.557187
vt 0.062500 0.557187
vt 0.062500 0.468750
vt 0.187500 0.468750
vt 0.187500 0.557187
vt 0.125000 0.557187
vt 0.125000 0.468750
vt 0.062500 0.437500
vt 0.062500 0.562500
vt 0.000000 0.562500
vt 0.312500 0.562500
vt 0.250000 0.562500
vt 0.250000 0.437500
vt 0.062500 0.625000
vt 0.062500 1.000000
vt 0.000000 0.937500
vt 0.000000 0.687500
vn -1.0000 0.0000 0.0000
vn 0.0000 -0.7071 0.7071
vn 1.0000 0.0000 0.0000
vn 0.0000 1.0000 0.0000
vn 0.0000 0.7071 0.7071
vn 0.0000 -0.0000 1.0000
usemtl m_0
s 1
f 17/39/7 18/40/7 19/41/7 20/42/7
f 20/43/8 19/44/8 21/45/8 22/46/8
f 23/47/9 24/48/9 25/49/9 26/50/9
f 27/51/7 28/52/7 29/53/7 30/54/7
f 29/55/10 23/56/10 26/57/10 30/58/10
f 25/59/11 24/60/11 18/61/11 17/62/11
f 31/63/11 32/64/11 28/65/11 27/66/11
f 26/67/12 25/68/12 17/69/12 20/43/12
f 31/70/12 27/71/12 30/72/12 22/46/12
f 30/72/12 26/67/12 20/43/12 22/46/12
f 21/73/9 32/74/9 31/75/9 22/76/9
o rimE
v 0.812500 0.687500 0.875000
v 0.812500 0.687500 0.125000
v 0.812500 0.750000 0.125000
v 0.812500 0.750000 0.875000
v 0.687500 0.687500 0.125000
v 0.687500 0.687500 0.875000
v 0.687500 0.750000 0.875000
v 0.687500 0.750000 0.125000
vt 0.062500 0.968750
vt 0.437500 0.968750
vt 0.437500 1.000000
vt 0.062500 1.000000
vt 0.375000 0.562500
vt 0.750000 0.562500
vt 0.750000 0.593750
vt 0.375000 0.593750
vt 0.000000 0.625000
vt 0.000000 0.562500
vt 0.375000 0.562500
vt 0.375000 0.625000
vn 1.0000 0.0000 0.0000
vn -1.0000 0.0000 0.0000
vn 0.0000 1.0000 0.0000
usemtl m_0
s 1
f 33/77/13 34/78/13 35/79/13 36/80/13
f 37/81/14 38/82/14 39/83/14 40/84/14
f 39/85/15 36/86/15 35/87/15 40/88/15
o rimW
v 0.312500 0.687500 0.875000
v 0.312500 0.687500 0.125000
v 0.312500 0.750000 0.125000
v 0.312500 0.750000 0.875000
v 0.187500 0.687500 0.125000
v 0.187500 0.687500 0.875000
v 0.187500 0.750000 0.875000
v 0.187500 0.750000 0.125000
vt 0.375000 0.562500
vt 0.750000 0.562500
vt 0.750000 0.593750
vt 0.375000 0.593750
vt 0.062500 0.968750
vt 0.437500 0.968750
vt 0.437500 1.000000
vt 0.062500 1.000000
vt 0.375000 0.562500
vt 0.375000 0.625000
vt 0.000000 0.625000
vt 0.000000 0.562500
vn 1.0000 0.0000 0.0000
vn -1.0000 0.0000 0.0000
vn 0.0000 1.0000 0.0000
usemtl m_0
s 1
f 41/89/16 42/90/16 43/91/16 44/92/16
f 45/93/17 46/94/17 47/95/17 48/96/17
f 47/97/18 44/98/18 43/99/18 48/100/18
o base1
v 0.812500 -0.000000 0.125000
v 0.187500 -0.000000 0.125000
v 0.187500 0.687500 0.125000
v 0.812500 0.687500 0.125000
v 0.812500 -0.000000 0.875000
v 0.812500 0.687500 0.875000
v 0.187500 -0.000000 0.875000
v 0.187500 0.687500 0.875000
vt 0.625000 0.218750
vt 0.937500 0.218750
vt 0.937500 0.562500
vt 0.625000 0.562500
vt 0.062500 0.625000
vt 0.437500 0.625000
vt 0.437500 0.968750
vt 0.062500 0.968750
vt 0.625000 0.218750
vt 0.937500 0.218750
vt 0.937500 0.562500
vt 0.625000 0.562500
vt 0.062500 0.625000
vt 0.437500 0.625000
vt 0.437500 0.968750
vt 0.062500 0.968750
vt 0.312500 0.187500
vt 0.625000 0.187500
vt 0.312500 0.562500
vt 0.875000 0.687500
vt 0.875000 1.000000
vt 0.500000 1.000000
vt 0.500000 0.687500
vn 0.0000 0.0000 -1.0000
vn 1.0000 0.0000 0.0000
vn 0.0000 -0.0000 1.0000
vn -1.0000 0.0000 0.0000
vn 0.0000 1.0000 0.0000
vn 0.0000 -1.0000 -0.0000
usemtl m_0
s 1
f 49/101/19 50/102/19 51/103/19 52/104/19
f 53/105/20 49/106/20 52/107/20 54/108/20
f 55/109/21 53/110/21 54/111/21 56/112/21
f 50/113/22 55/114/22 56/115/22 51/116/22
f 56/117/23 54/118/23 52/104/23 51/119/23
f 50/120/24 49/121/24 53/122/24 55/123/24
