# Made in Blockbench 4.3.1
mtllib base.mtl

o fbBody
v 0.875 1 0.875
v 1 1 1
v 1 1 0
v 1 0 1
v 1 0 0
v 0 1 1
v 0 1 0
v 0 0 1
v 0 0 0
v 0.875 1 0.125
v 0.125 1 0.125
v 0.125 1 0.875
v 0.875 0.75 0.875
v 0.875 0.75 0.125
v 0.125 0.75 0.125
v 0.125 0.75 0.875
vt 0.5 0.5
vt 0.5 1
vt 0 1
vt 0 0.5
vt 0.5 0.5
vt 0.5 1
vt 0 1
vt 0 0.5
vt 0.5 0
vt 0.5 0.5
vt 0 0.5
vt 0 0
vt 0.5 0.5
vt 0.5 1
vt 0 1
vt 0 0.5
vt 0.5 0.5
vt 0.5 1
vt 0 1
vt 0 0.5
vt 0.9375 0.9375
vt 0.9375 0.5625
vt 1 0.5
vt 1 1
vt 0.5625 0.9375
vt 0.9375 0.9375
vt 1 1
vt 0.5 1
vt 0.5625 0.5625
vt 0.5625 0.9375
vt 0.5 1
vt 0.5 0.5
vt 0.9375 0.5625
vt 0.5625 0.5625
vt 0.5 0.5
vt 1 0.5
vt 0.9375 0.5625
vt 0.9375 0.9375
vt 0.5625 0.9375
vt 0.5625 0.5625
vt 0.9375 0.375
vt 0.9375 0.5
vt 0.5625 0.5
vt 0.5625 0.375
vt 0.9375 0.375
vt 0.9375 0.5
vt 0.5625 0.5
vt 0.5625 0.375
vt 0.9375 0.375
vt 0.9375 0.5
vt 0.5625 0.5
vt 0.5625 0.375
vt 0.9375 0.375
vt 0.9375 0.5
vt 0.5625 0.5
vt 0.5625 0.375
vn 1 0 0
vn -1 0 0
vn 0 -1 0
vn 0 0 1
vn 0 0 -1
vn 0 1 0
vn 0 1 0
vn 0 1 0
vn 0 1 0
vn 0 1 0
vn 1 0 0
vn 0 0 1
vn -1 0 0
vn 0 0 -1
usemtl m_0
f 5/1/1 3/2/1 2/3/1 4/4/1
f 8/5/2 6/6/2 7/7/2 9/8/2
f 5/9/3 4/10/3 8/11/3 9/12/3
f 4/13/4 2/14/4 6/15/4 8/16/4
f 9/17/5 7/18/5 3/19/5 5/20/5
f 10/21/6 1/22/6 2/23/6 3/24/6
f 11/25/7 10/26/7 3/27/7 7/28/7
f 12/29/8 11/30/8 7/31/8 6/32/8
f 1/33/9 12/34/9 6/35/9 2/36/9
f 13/37/10 14/38/10 15/39/10 16/40/10
f 15/41/11 11/42/11 12/43/11 16/44/11
f 14/45/12 10/46/12 11/47/12 15/48/12
f 13/49/13 1/50/13 10/51/13 14/52/13
f 16/53/14 12/54/14 1/55/14 13/56/14
o mainPipe
v 0.6875 1 0.6875
v 0.6875 1 0.3125
v 0.6875 0.75 0.6875
v 0.6875 0.75 0.3125
v 0.3125 1 0.3125
v 0.3125 1 0.6875
v 0.3125 0.75 0.3125
v 0.3125 0.75 0.6875
vt 0.6875 0.375
vt 0.875 0.375
vt 0.875 0.25
vt 0.6875 0.25
vt 0.6875 0.375
vt 0.875 0.375
vt 0.875 0.25
vt 0.6875 0.25
vt 0.6875 0.375
vt 0.875 0.375
vt 0.875 0.25
vt 0.6875 0.25
vt 0.6875 0.375
vt 0.875 0.375
vt 0.875 0.25
vt 0.6875 0.25
vt 0.65625 0.84375
vt 0.84375 0.84375
vt 0.84375 0.65625
vt 0.65625 0.65625
vn 0 0 -1
vn 1 0 0
vn 0 0 1
vn -1 0 0
vn 0 1 0
usemtl m_0
f 20/60/15 23/59/15 21/58/15 18/57/15
f 19/64/16 20/63/16 18/62/16 17/61/16
f 24/68/17 19/67/17 17/66/17 22/65/17
f 23/72/18 24/71/18 22/70/18 21/69/18
f 22/76/19 17/75/19 18/74/19 21/73/19
o sidePipe2
v 0.8125 0.9375 0.5625
v 0.8125 0.9375 0.4375
v 0.8125 0.75 0.5625
v 0.8125 0.75 0.4375
v 0.6875 0.9375 0.4375
v 0.6875 0.9375 0.5625
v 0.6875 0.75 0.4375
v 0.6875 0.75 0.5625
vt 0.5625 0.3125
vt 0.625 0.3125
vt 0.625 0.21875
vt 0.5625 0.21875
vt 0.625 0.3125
vt 0.6875 0.3125
vt 0.6875 0.21875
vt 0.625 0.21875
vt 0.5 0.3125
vt 0.5625 0.3125
vt 0.5625 0.21875
vt 0.5 0.21875
vt 0.5 0.375
vt 0.5625 0.375
vt 0.5625 0.3125
vt 0.5 0.3125
vn 0 0 -1
vn 1 0 0
vn 0 0 1
vn 0 1 0
usemtl m_0
f 28/80/20 31/79/20 29/78/20 26/77/20
f 27/84/21 28/83/21 26/82/21 25/81/21
f 32/88/22 27/87/22 25/86/22 30/85/22
f 30/92/23 25/91/23 26/90/23 29/89/23
o sidePipe1
v 0.3125 0.9375 0.5625
v 0.3125 0.9375 0.4375
v 0.3125 0.75 0.5625
v 0.3125 0.75 0.4375
v 0.1875 0.9375 0.4375
v 0.1875 0.9375 0.5625
v 0.1875 0.75 0.4375
v 0.1875 0.75 0.5625
vt 0.5 0.3125
vt 0.5625 0.3125
vt 0.5625 0.21875
vt 0.5 0.21875
vt 0.5625 0.3125
vt 0.625 0.3125
vt 0.625 0.21875
vt 0.5625 0.21875
vt 0.625 0.3125
vt 0.6875 0.3125
vt 0.6875 0.21875
vt 0.625 0.21875
vt 0.5625 0.375
vt 0.625 0.375
vt 0.625 0.3125
vt 0.5625 0.3125
vn 0 0 -1
vn 0 0 1
vn -1 0 0
vn 0 1 0
usemtl m_0
f 36/96/24 39/95/24 37/94/24 34/93/24
f 40/100/25 35/99/25 33/98/25 38/97/25
f 39/104/26 40/103/26 38/102/26 37/101/26
f 38/108/27 33/107/27 34/106/27 37/105/27