# Made in Blockbench 4.3.1
mtllib nozzle.mtl

o base1
v 0.6875 0.0625 0.6875
v 0.6875 0.0625 0.3125
v 0.6875 0 0.6875
v 0.6875 0 0.3125
v 0.3125 0.0625 0.3125
v 0.3125 0.0625 0.6875
v 0.3125 0 0.3125
v 0.3125 0 0.6875
vt 0.375 0.96875
vt 0.1875 0.96875
vt 0.1875 1
vt 0.375 1
vt 0.1875 0.84375
vt 0.375 0.84375
vt 0.375 0.8125
vt 0.1875 0.8125
vt 0.1875 0.84375
vt 0.375 0.84375
vt 0.375 0.8125
vt 0.1875 0.8125
vt 0.1875 1
vt 0.375 1
vt 0.375 0.96875
vt 0.1875 0.96875
vt 0.1875 1
vt 0.375 1
vt 0.375 0.8125
vt 0.1875 0.8125
vt 0.1875 0.625
vt 0.1875 0.8125
vt 0.375 0.8125
vt 0.375 0.625
vn 0 0 -1
vn 1 0 0
vn 0 0 1
vn -1 0 0
vn 0 1 0
vn 0 -1 0
usemtl m_0
f 4/4/1 7/3/1 5/2/1 2/1/1
f 3/8/2 4/7/2 2/6/2 1/5/2
f 8/12/3 3/11/3 1/10/3 6/9/3
f 7/16/4 8/15/4 6/14/4 5/13/4
f 6/20/5 1/19/5 2/18/5 5/17/5
f 7/24/6 4/23/6 3/22/6 8/21/6
o pipe2
v 0.625 0.9375 0.625
v 0.625 0.9375 0.375
v 0.625 0.6875 0.625
v 0.625 0.6875 0.375
v 0.375 0.9375 0.375
v 0.375 0.9375 0.625
v 0.375 0.6875 0.375
v 0.375 0.6875 0.625
vt 0 0.8125
vt 0.125 0.8125
vt 0.125 0.6875
vt 0 0.6875
vt 0 0.8125
vt 0.125 0.8125
vt 0.125 0.6875
vt 0 0.6875
vt 0 0.8125
vt 0.125 0.8125
vt 0.125 0.6875
vt 0 0.6875
vt 0 0.8125
vt 0.125 0.8125
vt 0.125 0.6875
vt 0 0.6875
vn 0 0 -1
vn 1 0 0
vn 0 0 1
vn -1 0 0
usemtl m_0
f 12/28/7 15/27/7 13/26/7 10/25/7
f 11/32/8 12/31/8 10/30/8 9/29/8
f 16/36/9 11/35/9 9/34/9 14/33/9
f 15/40/10 16/39/10 14/38/10 13/37/10
o connector
v 0.6875 0.6875 0.6875
v 0.6875 0.6875 0.3125
v 0.6875 0.3125 0.6875
v 0.6875 0.3125 0.3125
v 0.3125 0.6875 0.3125
v 0.3125 0.6875 0.6875
v 0.3125 0.3125 0.3125
v 0.3125 0.3125 0.6875
vt 0 1
vt 0.1875 1
vt 0.1875 0.8125
vt 0 0.8125
vt 0 1
vt 0.1875 1
vt 0.1875 0.8125
vt 0 0.8125
vt 0 1
vt 0.1875 1
vt 0.1875 0.8125
vt 0 0.8125
vt 0 1
vt 0.1875 1
vt 0.1875 0.8125
vt 0 0.8125
vt 0 1
vt 0.1875 1
vt 0.1875 0.8125
vt 0 0.8125
vt 0 1
vt 0.1875 1
vt 0.1875 0.8125
vt 0 0.8125
vn 0 0 -1
vn 1 0 0
vn 0 0 1
vn -1 0 0
vn 0 1 0
vn 0 -1 0
usemtl m_0
f 20/44/11 23/43/11 21/42/11 18/41/11
f 19/48/12 20/47/12 18/46/12 17/45/12
f 24/52/13 19/51/13 17/50/13 22/49/13
f 23/56/14 24/55/14 22/54/14 21/53/14
f 22/60/15 17/59/15 18/58/15 21/57/15
f 23/64/16 20/63/16 19/62/16 24/61/16
o pipe1
v 0.625 0.3125 0.625
v 0.625 0.3125 0.375
v 0.625 0.0625 0.625
v 0.625 0.0625 0.375
v 0.375 0.3125 0.375
v 0.375 0.3125 0.625
v 0.375 0.0625 0.375
v 0.375 0.0625 0.625
vt 0 0.8125
vt 0.125 0.8125
vt 0.125 0.6875
vt 0 0.6875
vt 0 0.8125
vt 0.125 0.8125
vt 0.125 0.6875
vt 0 0.6875
vt 0 0.8125
vt 0.125 0.8125
vt 0.125 0.6875
vt 0 0.6875
vt 0 0.8125
vt 0.125 0.8125
vt 0.125 0.6875
vt 0 0.6875
vn 0 0 -1
vn 1 0 0
vn 0 0 1
vn -1 0 0
usemtl m_0
f 28/68/17 31/67/17 29/66/17 26/65/17
f 27/72/18 28/71/18 26/70/18 25/69/18
f 32/76/19 27/75/19 25/74/19 30/73/19
f 31/80/20 32/79/20 30/78/20 29/77/20
o base2
v 0.6875 1 0.6875
v 0.6875 1 0.3125
v 0.6875 0.9375 0.6875
v 0.6875 0.9375 0.3125
v 0.3125 1 0.3125
v 0.3125 1 0.6875
v 0.3125 0.9375 0.3125
v 0.3125 0.9375 0.6875
vt 0.375 0.96875
vt 0.1875 0.96875
vt 0.1875 1
vt 0.375 1
vt 0.1875 0.84375
vt 0.375 0.84375
vt 0.375 0.8125
vt 0.1875 0.8125
vt 0.1875 0.84375
vt 0.375 0.84375
vt 0.375 0.8125
vt 0.1875 0.8125
vt 0.1875 1
vt 0.375 1
vt 0.375 0.96875
vt 0.1875 0.96875
vt 0.1875 1
vt 0.375 1
vt 0.375 0.8125
vt 0.1875 0.8125
vt 0.1875 0.625
vt 0.1875 0.8125
vt 0.375 0.8125
vt 0.375 0.625
vn 0 0 -1
vn 1 0 0
vn 0 0 1
vn -1 0 0
vn 0 1 0
vn 0 -1 0
usemtl m_0
f 36/84/21 39/83/21 37/82/21 34/81/21
f 35/88/22 36/87/22 34/86/22 33/85/22
f 40/92/23 35/91/23 33/90/23 38/89/23
f 39/96/24 40/95/24 38/94/24 37/93/24
f 38/100/25 33/99/25 34/98/25 37/97/25
f 39/104/26 36/103/26 35/102/26 40/101/26
o NozzleJointW
v 0.3125 0.625 0.625
v 0.3125 0.625 0.375
v 0.3125 0.375 0.625
v 0.3125 0.375 0.375
v 0.25 0.625 0.375
v 0.25 0.625 0.625
v 0.25 0.375 0.375
v 0.25 0.375 0.625
vt 0.09375 0.6875
vt 0.125 0.6875
vt 0.125 0.5625
vt 0.09375 0.5625
vt 0.09375 0.6875
vt 0.125 0.6875
vt 0.125 0.5625
vt 0.09375 0.5625
vt 0 0.6875
vt 0.125 0.6875
vt 0.125 0.5625
vt 0 0.5625
vt 0 0.6875
vt 0.03125 0.6875
vt 0.03125 0.5625
vt 0 0.5625
vt 0 0.6875
vt 0.03125 0.6875
vt 0.03125 0.5625
vt 0 0.5625
vn 0 0 -1
vn 0 0 1
vn -1 0 0
vn 0 1 0
vn 0 -1 0
usemtl m_0
f 44/108/27 47/107/27 45/106/27 42/105/27
f 48/112/28 43/111/28 41/110/28 46/109/28
f 47/116/29 48/115/29 46/114/29 45/113/29
f 46/120/30 41/119/30 42/118/30 45/117/30
f 47/124/31 44/123/31 43/122/31 48/121/31
o NozzleEndW
v 0.25 0.59375 0.59375
v 0.25 0.59375 0.40625
v 0.25 0.40625 0.59375
v 0.25 0.40625 0.40625
v 0.125 0.59375 0.59375
v 0.125 0.59375 0.40625
v 0.125 0.40625 0.59375
v 0.125 0.40625 0.40625
v 0 0.5625 0.5625
v 0 0.5625 0.4375
v 0 0.4375 0.5625
v 0 0.4375 0.4375
vt 0.46875 1
vt 0.375 1
vt 0.375 0.9375
vt 0.46875 0.9375
vt 0.46875 1
vt 0.375 1
vt 0.375 0.9375
vt 0.46875 0.9375
vt 0.46875 1
vt 0.375 1
vt 0.375 0.9375
vt 0.46875 0.9375
vt 0.375 0.9375
vt 0.46875 0.9375
vt 0.46875 1
vt 0.375 1
vt 0.453125 0.765625
vt 0.453125 0.828125
vt 0.390625 0.828125
vt 0.390625 0.765625
vt 0.453125 0.875
vt 0.46875 0.9375
vt 0.375 0.9375
vt 0.390625 0.875
vt 0.453125 0.875
vt 0.46875 0.9375
vt 0.375 0.9375
vt 0.390625 0.875
vt 0.453125 0.875
vt 0.46875 0.9375
vt 0.375 0.9375
vt 0.390625 0.875
vt 0.453125 0.875
vt 0.46875 0.9375
vt 0.375 0.9375
vt 0.390625 0.875
vn 0 1 0
vn 0 -1 0
vn 0 0 1
vn 0 0 -1
vn -1 0 0
vn -0.242535625036333 0.970142500145332 0
vn -0.242535625036333 0 0.970142500145332
vn -0.242535625036333 -0.970142500145332 0
vn -0.242535625036333 0 -0.970142500145332
usemtl m_0
f 49/125/32 50/126/32 54/127/32 53/128/32
f 52/129/33 51/130/33 55/131/33 56/132/33
f 51/133/34 49/134/34 53/135/34 55/136/34
f 56/137/35 54/138/35 50/139/35 52/140/35
f 59/141/36 57/142/36 58/143/36 60/144/36
f 57/145/37 53/146/37 54/147/37 58/148/37
f 59/149/38 55/150/38 53/151/38 57/152/38
f 60/153/39 56/154/39 55/155/39 59/156/39
f 58/157/40 54/158/40 56/159/40 60/160/40
o NozzleJointE
v 0.6875 0.625 0.375
v 0.6875 0.625 0.625
v 0.6875 0.375 0.375
v 0.6875 0.375 0.625
v 0.75 0.625 0.625
v 0.75 0.625 0.375
v 0.75 0.375 0.625
v 0.75 0.375 0.375
vt 0.09375 0.6875
vt 0.125 0.6875
vt 0.125 0.5625
vt 0.09375 0.5625
vt 0.09375 0.6875
vt 0.125 0.6875
vt 0.125 0.5625
vt 0.09375 0.5625
vt 0 0.6875
vt 0.125 0.6875
vt 0.125 0.5625
vt 0 0.5625
vt 0 0.6875
vt 0.03125 0.6875
vt 0.03125 0.5625
vt 0 0.5625
vt 0 0.6875
vt 0.03125 0.6875
vt 0.03125 0.5625
vt 0 0.5625
vn 1.2246467991473532e-16 0 1
vn -1.2246467991473532e-16 0 -1
vn 1 0 -1.2246467991473532e-16
vn 0 1 0
vn 0 -1 0
usemtl m_0
f 64/164/41 67/163/41 65/162/41 62/161/41
f 68/168/42 63/167/42 61/166/42 66/165/42
f 67/172/43 68/171/43 66/170/43 65/169/43
f 66/176/44 61/175/44 62/174/44 65/173/44
f 67/180/45 64/179/45 63/178/45 68/177/45
o NozzleEndE
v 0.75 0.59375 0.40625
v 0.75 0.59375 0.59375
v 0.75 0.40625 0.40625
v 0.75 0.40625 0.59375
v 0.8749999999999999 0.59375 0.40625
v 0.875 0.59375 0.59375
v 0.8749999999999999 0.40625 0.40625
v 0.875 0.40625 0.59375
v 0.9999999999999999 0.5625 0.4375
v 1 0.5625 0.5625
v 0.9999999999999999 0.4375 0.4375
v 1 0.4375 0.5625
vt 0.46875 1
vt 0.375 1
vt 0.375 0.9375
vt 0.46875 0.9375
vt 0.46875 1
vt 0.375 1
vt 0.375 0.9375
vt 0.46875 0.9375
vt 0.46875 1
vt 0.375 1
vt 0.375 0.9375
vt 0.46875 0.9375
vt 0.375 0.9375
vt 0.46875 0.9375
vt 0.46875 1
vt 0.375 1
vt 0.453125 0.765625
vt 0.453125 0.828125
vt 0.390625 0.828125
vt 0.390625 0.765625
vt 0.453125 0.875
vt 0.46875 0.9375
vt 0.375 0.9375
vt 0.390625 0.875
vt 0.453125 0.875
vt 0.46875 0.9375
vt 0.375 0.9375
vt 0.390625 0.875
vt 0.453125 0.875
vt 0.46875 0.9375
vt 0.375 0.9375
vt 0.390625 0.875
vt 0.453125 0.875
vt 0.46875 0.9375
vt 0.375 0.9375
vt 0.390625 0.875
vn 0 1 0
vn 0 -1 0
vn -1.2246467991473532e-16 0 -1
vn 1.2246467991473532e-16 0 1
vn 1 0 -1.2246467991473532e-16
vn 0.242535625036333 0.970142500145332 -2.970204768799479e-17
vn 0.24253562503633289 0 -0.970142500145332
vn 0.242535625036333 -0.970142500145332 -2.970204768799479e-17
vn 0.2425356250363331 0 0.970142500145332
usemtl m_0
f 69/181/46 70/182/46 74/183/46 73/184/46
f 72/185/47 71/186/47 75/187/47 76/188/47
f 71/189/48 69/190/48 73/191/48 75/192/48
f 76/193/49 74/194/49 70/195/49 72/196/49
f 79/197/50 77/198/50 78/199/50 80/200/50
f 77/201/51 73/202/51 74/203/51 78/204/51
f 79/205/52 75/206/52 73/207/52 77/208/52
f 80/209/53 76/210/53 75/211/53 79/212/53
f 78/213/54 74/214/54 76/215/54 80/216/54
o NozzleJointN
v 0.375 0.625 0.3125
v 0.625 0.625 0.3125
v 0.375 0.375 0.3125
v 0.625 0.375 0.3125
v 0.625 0.625 0.25
v 0.3749999999999999 0.625 0.25
v 0.625 0.375 0.25
v 0.3749999999999999 0.375 0.25
vt 0.09375 0.6875
vt 0.125 0.6875
vt 0.125 0.5625
vt 0.09375 0.5625
vt 0.09375 0.6875
vt 0.125 0.6875
vt 0.125 0.5625
vt 0.09375 0.5625
vt 0 0.6875
vt 0.125 0.6875
vt 0.125 0.5625
vt 0 0.5625
vt 0 0.6875
vt 0.03125 0.6875
vt 0.03125 0.5625
vt 0 0.5625
vt 0 0.6875
vt 0.03125 0.6875
vt 0.03125 0.5625
vt 0 0.5625
vn 1 0 -2.220446049250313e-16
vn -1 0 2.220446049250313e-16
vn -2.220446049250313e-16 0 -1
vn 0 1 0
vn 0 -1 0
usemtl m_0
f 84/220/55 87/219/55 85/218/55 82/217/55
f 88/224/56 83/223/56 81/222/56 86/221/56
f 87/228/57 88/227/57 86/226/57 85/225/57
f 86/232/58 81/231/58 82/230/58 85/229/58
f 87/236/59 84/235/59 83/234/59 88/233/59
o NozzleEndN
v 0.4062499999999999 0.59375 0.25
v 0.59375 0.59375 0.25
v 0.4062499999999999 0.40625 0.25
v 0.59375 0.40625 0.25
v 0.4062499999999999 0.59375 0.12500000000000003
v 0.5937499999999999 0.59375 0.12499999999999997
v 0.4062499999999999 0.40625 0.12500000000000003
v 0.5937499999999999 0.40625 0.12499999999999997
v 0.4374999999999999 0.5625 1.3877787807814457e-17
v 0.5624999999999999 0.5625 -1.3877787807814457e-17
v 0.4374999999999999 0.4375 1.3877787807814457e-17
v 0.5624999999999999 0.4375 -1.3877787807814457e-17
vt 0.46875 1
vt 0.375 1
vt 0.375 0.9375
vt 0.46875 0.9375
vt 0.46875 1
vt 0.375 1
vt 0.375 0.9375
vt 0.46875 0.9375
vt 0.46875 1
vt 0.375 1
vt 0.375 0.9375
vt 0.46875 0.9375
vt 0.375 0.9375
vt 0.46875 0.9375
vt 0.46875 1
vt 0.375 1
vt 0.453125 0.765625
vt 0.453125 0.828125
vt 0.390625 0.828125
vt 0.390625 0.765625
vt 0.453125 0.875
vt 0.46875 0.9375
vt 0.375 0.9375
vt 0.390625 0.875
vt 0.453125 0.875
vt 0.46875 0.9375
vt 0.375 0.9375
vt 0.390625 0.875
vt 0.453125 0.875
vt 0.46875 0.9375
vt 0.375 0.9375
vt 0.390625 0.875
vt 0.453125 0.875
vt 0.46875 0.9375
vt 0.375 0.9375
vt 0.390625 0.875
vn 0 1 0
vn 0 -1 0
vn -1 0 2.220446049250313e-16
vn 1 0 -2.220446049250313e-16
vn -2.220446049250313e-16 0 -1
vn -5.385372704143809e-17 0.970142500145332 -0.242535625036333
vn -0.970142500145332 0 -0.24253562503633277
vn -5.385372704143809e-17 -0.970142500145332 -0.242535625036333
vn 0.970142500145332 0 -0.24253562503633322
usemtl m_0
f 89/237/60 90/238/60 94/239/60 93/240/60
f 92/241/61 91/242/61 95/243/61 96/244/61
f 91/245/62 89/246/62 93/247/62 95/248/62
f 96/249/63 94/250/63 90/251/63 92/252/63
f 99/253/64 97/254/64 98/255/64 100/256/64
f 97/257/65 93/258/65 94/259/65 98/260/65
f 99/261/66 95/262/66 93/263/66 97/264/66
f 100/265/67 96/266/67 95/267/67 99/268/67
f 98/269/68 94/270/68 96/271/68 100/272/68
o NozzleJointS
v 0.625 0.625 0.6875
v 0.37499999999999994 0.625 0.6875
v 0.625 0.375 0.6875
v 0.37499999999999994 0.375 0.6875
v 0.37499999999999994 0.625 0.75
v 0.6249999999999999 0.625 0.75
v 0.37499999999999994 0.375 0.75
v 0.6249999999999999 0.375 0.75
vt 0.09375 0.6875
vt 0.125 0.6875
vt 0.125 0.5625
vt 0.09375 0.5625
vt 0.09375 0.6875
vt 0.125 0.6875
vt 0.125 0.5625
vt 0.09375 0.5625
vt 0 0.6875
vt 0.125 0.6875
vt 0.125 0.5625
vt 0 0.5625
vt 0 0.6875
vt 0.03125 0.6875
vt 0.03125 0.5625
vt 0 0.5625
vt 0 0.6875
vt 0.03125 0.6875
vt 0.03125 0.5625
vt 0 0.5625
vn -1 0 -2.220446049250313e-16
vn 1 0 2.220446049250313e-16
vn -2.220446049250313e-16 0 1
vn 0 1 0
vn 0 -1 0
usemtl m_0
f 104/276/69 107/275/69 105/274/69 102/273/69
f 108/280/70 103/279/70 101/278/70 106/277/70
f 107/284/71 108/283/71 106/282/71 105/281/71
f 106/288/72 101/287/72 102/286/72 105/285/72
f 107/292/73 104/291/73 103/290/73 108/289/73
o NozzleEndS
v 0.5937499999999999 0.59375 0.75
v 0.40624999999999994 0.59375 0.75
v 0.5937499999999999 0.40625 0.75
v 0.40624999999999994 0.40625 0.75
v 0.5937499999999999 0.59375 0.875
v 0.4062499999999999 0.59375 0.875
v 0.5937499999999999 0.40625 0.875
v 0.4062499999999999 0.40625 0.875
v 0.5624999999999999 0.5625 1
v 0.4374999999999999 0.5625 1
v 0.5624999999999999 0.4375 1
v 0.4374999999999999 0.4375 1
vt 0.46875 1
vt 0.375 1
vt 0.375 0.9375
vt 0.46875 0.9375
vt 0.46875 1
vt 0.375 1
vt 0.375 0.9375
vt 0.46875 0.9375
vt 0.46875 1
vt 0.375 1
vt 0.375 0.9375
vt 0.46875 0.9375
vt 0.375 0.9375
vt 0.46875 0.9375
vt 0.46875 1
vt 0.375 1
vt 0.453125 0.765625
vt 0.453125 0.828125
vt 0.390625 0.828125
vt 0.390625 0.765625
vt 0.453125 0.875
vt 0.46875 0.9375
vt 0.375 0.9375
vt 0.390625 0.875
vt 0.453125 0.875
vt 0.46875 0.9375
vt 0.375 0.9375
vt 0.390625 0.875
vt 0.453125 0.875
vt 0.46875 0.9375
vt 0.375 0.9375
vt 0.390625 0.875
vt 0.453125 0.875
vt 0.46875 0.9375
vt 0.375 0.9375
vt 0.390625 0.875
vn 0 1 0
vn 0 -1 0
vn 1 0 2.220446049250313e-16
vn -1 0 -2.220446049250313e-16
vn -2.220446049250313e-16 0 1
vn -5.385372704143809e-17 0.970142500145332 0.242535625036333
vn 0.970142500145332 0 0.24253562503633322
vn -5.385372704143809e-17 -0.970142500145332 0.242535625036333
vn -0.970142500145332 0 0.24253562503633277
usemtl m_0
f 109/293/74 110/294/74 114/295/74 113/296/74
f 112/297/75 111/298/75 115/299/75 116/300/75
f 111/301/76 109/302/76 113/303/76 115/304/76
f 116/305/77 114/306/77 110/307/77 112/308/77
f 119/309/78 117/310/78 118/311/78 120/312/78
f 117/313/79 113/314/79 114/315/79 118/316/79
f 119/317/80 115/318/80 113/319/80 117/320/80
f 120/321/81 116/322/81 115/323/81 119/324/81
f 118/325/82 114/326/82 116/327/82 120/328/82