# Made in Blockbench 4.6.0
mtllib bot_dock_in.mtl

o bdsnw1
v 0.20044417382415924 0.875 0.15625
v 0.15625 0.875 0.11205582617584076
v 0.20044417382415924 0.75 0.15625
v 0.15625 0.75 0.11205582617584076
v 0.11205582617584076 0.875 0.15625
v 0.15625 0.875 0.20044417382415924
v 0.11205582617584076 0.75 0.15625
v 0.15625 0.75 0.20044417382415924
vt 0.5 1
vt 0.515625 1
vt 0.515625 0.9375
vt 0.5 0.9375
vt 0.5 1
vt 0.515625 1
vt 0.515625 0.9375
vt 0.5 0.9375
vt 0.5 1
vt 0.515625 1
vt 0.515625 0.9375
vt 0.5 0.9375
vt 0.5 1
vt 0.515625 1
vt 0.515625 0.9375
vt 0.5 0.9375
vn -0.7071067811865476 0 -0.7071067811865475
vn 0.7071067811865475 0 -0.7071067811865476
vn 0.7071067811865476 0 0.7071067811865475
vn -0.7071067811865475 0 0.7071067811865476
usemtl m_6f9b2c0d-24ca-0514-40f7-ed08546cf48a
f 4/4/1 7/3/1 5/2/1 2/1/1
f 3/8/2 4/7/2 2/6/2 1/5/2
f 8/12/3 3/11/3 1/10/3 6/9/3
f 7/16/4 8/15/4 6/14/4 5/13/4
o bdsnw2
v 0.2446383476483185 1 0.15625
v 0.15625 1 0.06786165235168151
v 0.2446383476483185 0.875 0.15625
v 0.15625 0.875 0.06786165235168151
v 0.06786165235168151 1 0.15625
v 0.15625 1 0.2446383476483185
v 0.06786165235168151 0.875 0.15625
v 0.15625 0.875 0.2446383476483185
vt 0.578125 1
vt 0.609375 1
vt 0.609375 0.9375
vt 0.578125 0.9375
vt 0.578125 1
vt 0.609375 1
vt 0.609375 0.9375
vt 0.578125 0.9375
vt 0.578125 1
vt 0.609375 1
vt 0.609375 0.9375
vt 0.578125 0.9375
vt 0.578125 1
vt 0.609375 1
vt 0.609375 0.9375
vt 0.578125 0.9375
vt 0.578125 1
vt 0.609375 1
vt 0.609375 0.9375
vt 0.578125 0.9375
vt 0.578125 1
vt 0.609375 1
vt 0.609375 0.9375
vt 0.578125 0.9375
vn -0.7071067811865476 0 -0.7071067811865475
vn 0.7071067811865475 0 -0.7071067811865476
vn 0.7071067811865476 0 0.7071067811865475
vn -0.7071067811865475 0 0.7071067811865476
vn 0 1 0
vn 0 -1 0
usemtl m_6f9b2c0d-24ca-0514-40f7-ed08546cf48a
f 12/20/5 15/19/5 13/18/5 10/17/5
f 11/24/6 12/23/6 10/22/6 9/21/6
f 16/28/7 11/27/7 9/26/7 14/25/7
f 15/32/8 16/31/8 14/30/8 13/29/8
f 14/36/9 9/35/9 10/34/9 13/33/9
f 15/40/10 12/39/10 11/38/10 16/37/10
o bdsne1
v 0.84375 0.875 0.20044417382415913
v 0.8879441738241591 0.875 0.15625
v 0.84375 0.75 0.20044417382415913
v 0.8879441738241591 0.75 0.15625
v 0.84375 0.875 0.11205582617584076
v 0.7995558261758409 0.875 0.15625
v 0.84375 0.75 0.11205582617584076
v 0.7995558261758409 0.75 0.15625
vt 0.5 1
vt 0.515625 1
vt 0.515625 0.9375
vt 0.5 0.9375
vt 0.5 1
vt 0.515625 1
vt 0.515625 0.9375
vt 0.5 0.9375
vt 0.5 1
vt 0.515625 1
vt 0.515625 0.9375
vt 0.5 0.9375
vt 0.5 1
vt 0.515625 1
vt 0.515625 0.9375
vt 0.5 0.9375
vn 0.7071067811865474 0 -0.7071067811865477
vn 0.7071067811865477 0 0.7071067811865474
vn -0.7071067811865474 0 0.7071067811865477
vn -0.7071067811865477 0 -0.7071067811865474
usemtl m_6f9b2c0d-24ca-0514-40f7-ed08546cf48a
f 20/44/11 23/43/11 21/42/11 18/41/11
f 19/48/12 20/47/12 18/46/12 17/45/12
f 24/52/13 19/51/13 17/50/13 22/49/13
f 23/56/14 24/55/14 22/54/14 21/53/14
o bdsne2
v 0.84375 1 0.24463834764831838
v 0.9321383476483185 1 0.1562499999999999
v 0.84375 0.875 0.24463834764831838
v 0.9321383476483185 0.875 0.1562499999999999
v 0.84375 1 0.06786165235168151
v 0.7553616523516815 1 0.15625
v 0.84375 0.875 0.06786165235168151
v 0.7553616523516815 0.875 0.15625
vt 0.578125 1
vt 0.609375 1
vt 0.609375 0.9375
vt 0.578125 0.9375
vt 0.578125 1
vt 0.609375 1
vt 0.609375 0.9375
vt 0.578125 0.9375
vt 0.578125 1
vt 0.609375 1
vt 0.609375 0.9375
vt 0.578125 0.9375
vt 0.578125 1
vt 0.609375 1
vt 0.609375 0.9375
vt 0.578125 0.9375
vt 0.578125 1
vt 0.609375 1
vt 0.609375 0.9375
vt 0.578125 0.9375
vt 0.578125 1
vt 0.609375 1
vt 0.609375 0.9375
vt 0.578125 0.9375
vn 0.7071067811865474 0 -0.7071067811865477
vn 0.7071067811865477 0 0.7071067811865474
vn -0.7071067811865474 0 0.7071067811865477
vn -0.7071067811865477 0 -0.7071067811865474
vn 0 1 0
vn 0 -1 0
usemtl m_6f9b2c0d-24ca-0514-40f7-ed08546cf48a
f 28/60/15 31/59/15 29/58/15 26/57/15
f 27/64/16 28/63/16 26/62/16 25/61/16
f 32/68/17 27/67/17 25/66/17 30/65/17
f 31/72/18 32/71/18 30/70/18 29/69/18
f 30/76/19 25/75/19 26/74/19 29/73/19
f 31/80/20 28/79/20 27/78/20 32/77/20
o bdssw1
v 0.15625 0.875 0.7995558261758409
v 0.11205582617584076 0.875 0.84375
v 0.15625 0.75 0.7995558261758409
v 0.11205582617584076 0.75 0.84375
v 0.15625 0.875 0.8879441738241591
v 0.20044417382415913 0.875 0.84375
v 0.15625 0.75 0.8879441738241591
v 0.20044417382415913 0.75 0.84375
vt 0.5 1
vt 0.515625 1
vt 0.515625 0.9375
vt 0.5 0.9375
vt 0.5 1
vt 0.515625 1
vt 0.515625 0.9375
vt 0.5 0.9375
vt 0.5 1
vt 0.515625 1
vt 0.515625 0.9375
vt 0.5 0.9375
vt 0.5 1
vt 0.515625 1
vt 0.515625 0.9375
vt 0.5 0.9375
vn -0.7071067811865476 0 0.7071067811865475
vn -0.7071067811865475 0 -0.7071067811865476
vn 0.7071067811865476 0 -0.7071067811865475
vn 0.7071067811865475 0 0.7071067811865476
usemtl m_6f9b2c0d-24ca-0514-40f7-ed08546cf48a
f 36/84/21 39/83/21 37/82/21 34/81/21
f 35/88/22 36/87/22 34/86/22 33/85/22
f 40/92/23 35/91/23 33/90/23 38/89/23
f 39/96/24 40/95/24 38/94/24 37/93/24
o bdssw2
v 0.15625 1 0.7553616523516815
v 0.06786165235168151 1 0.84375
v 0.15625 0.875 0.7553616523516815
v 0.06786165235168151 0.875 0.84375
v 0.15625 1 0.9321383476483185
v 0.24463834764831838 1 0.84375
v 0.15625 0.875 0.9321383476483185
v 0.24463834764831838 0.875 0.84375
vt 0.578125 1
vt 0.609375 1
vt 0.609375 0.9375
vt 0.578125 0.9375
vt 0.578125 1
vt 0.609375 1
vt 0.609375 0.9375
vt 0.578125 0.9375
vt 0.578125 1
vt 0.609375 1
vt 0.609375 0.9375
vt 0.578125 0.9375
vt 0.578125 1
vt 0.609375 1
vt 0.609375 0.9375
vt 0.578125 0.9375
vt 0.578125 1
vt 0.609375 1
vt 0.609375 0.9375
vt 0.578125 0.9375
vt 0.578125 1
vt 0.609375 1
vt 0.609375 0.9375
vt 0.578125 0.9375
vn -0.7071067811865476 0 0.7071067811865475
vn -0.7071067811865475 0 -0.7071067811865476
vn 0.7071067811865476 0 -0.7071067811865475
vn 0.7071067811865475 0 0.7071067811865476
vn 0 1 0
vn 0 -1 0
usemtl m_6f9b2c0d-24ca-0514-40f7-ed08546cf48a
f 44/100/25 47/99/25 45/98/25 42/97/25
f 43/104/26 44/103/26 42/102/26 41/101/26
f 48/108/27 43/107/27 41/106/27 46/105/27
f 47/112/28 48/111/28 46/110/28 45/109/28
f 46/116/29 41/115/29 42/114/29 45/113/29
f 47/120/30 44/119/30 43/118/30 48/117/30
o bdsse1
v 0.7995558261758409 0.875 0.84375
v 0.84375 0.875 0.8879441738241591
v 0.7995558261758409 0.75 0.84375
v 0.84375 0.75 0.8879441738241591
v 0.8879441738241591 0.875 0.84375
v 0.84375 0.875 0.7995558261758409
v 0.8879441738241591 0.75 0.84375
v 0.84375 0.75 0.7995558261758409
vt 0.5 1
vt 0.515625 1
vt 0.515625 0.9375
vt 0.5 0.9375
vt 0.5 1
vt 0.515625 1
vt 0.515625 0.9375
vt 0.5 0.9375
vt 0.5 1
vt 0.515625 1
vt 0.515625 0.9375
vt 0.5 0.9375
vt 0.5 1
vt 0.515625 1
vt 0.515625 0.9375
vt 0.5 0.9375
vn 0.7071067811865477 0 0.7071067811865474
vn -0.7071067811865474 0 0.7071067811865477
vn -0.7071067811865477 0 -0.7071067811865474
vn 0.7071067811865474 0 -0.7071067811865477
usemtl m_6f9b2c0d-24ca-0514-40f7-ed08546cf48a
f 52/124/31 55/123/31 53/122/31 50/121/31
f 51/128/32 52/127/32 50/126/32 49/125/32
f 56/132/33 51/131/33 49/130/33 54/129/33
f 55/136/34 56/135/34 54/134/34 53/133/34
o bdsse2
v 0.7553616523516815 1 0.84375
v 0.84375 1 0.9321383476483185
v 0.7553616523516815 0.875 0.84375
v 0.84375 0.875 0.9321383476483185
v 0.9321383476483185 1 0.84375
v 0.84375 1 0.7553616523516815
v 0.9321383476483185 0.875 0.84375
v 0.84375 0.875 0.7553616523516815
vt 0.578125 1
vt 0.609375 1
vt 0.609375 0.9375
vt 0.578125 0.9375
vt 0.578125 1
vt 0.609375 1
vt 0.609375 0.9375
vt 0.578125 0.9375
vt 0.578125 1
vt 0.609375 1
vt 0.609375 0.9375
vt 0.578125 0.9375
vt 0.578125 1
vt 0.609375 1
vt 0.609375 0.9375
vt 0.578125 0.9375
vt 0.578125 1
vt 0.609375 1
vt 0.609375 0.9375
vt 0.578125 0.9375
vt 0.578125 1
vt 0.609375 1
vt 0.609375 0.9375
vt 0.578125 0.9375
vn 0.7071067811865477 0 0.7071067811865474
vn -0.7071067811865474 0 0.7071067811865477
vn -0.7071067811865477 0 -0.7071067811865474
vn 0.7071067811865474 0 -0.7071067811865477
vn 0 1 0
vn 0 -1 0
usemtl m_6f9b2c0d-24ca-0514-40f7-ed08546cf48a
f 60/140/35 63/139/35 61/138/35 58/137/35
f 59/144/36 60/143/36 58/142/36 57/141/36
f 64/148/37 59/147/37 57/146/37 62/145/37
f 63/152/38 64/151/38 62/150/38 61/149/38
f 62/156/39 57/155/39 58/154/39 61/153/39
f 63/160/40 60/159/40 59/158/40 64/157/40
o bdPanel
v 0.9375 0.375 0.75
v 0.9375 0.375 0.25
v 0.9375 0 0.75
v 0.9375 0 0.25
v 0.75 0.375 0.25
v 0.75 0.375 0.75
v 0.75 0 0.25
v 0.75 0 0.75
vt 0.375 0.4375
vt 0.421875 0.4375
vt 0.421875 0.25
vt 0.375 0.25
vt 0.25 0.4375
vt 0.375 0.4375
vt 0.375 0.25
vt 0.25 0.25
vt 0.421875 0.4375
vt 0.375 0.4375
vt 0.375 0.25
vt 0.421875 0.25
vt 0.25 0.25
vt 0.25 0.15625
vt 0.375 0.15625
vt 0.375 0.25
vt 0.25 0.15625
vt 0.25 0.0625
vt 0.375 0.0625
vt 0.375 0.15625
vn 0 0 -1
vn 1 0 0
vn 0 0 1
vn 0 1 0
vn 0 -1 0
usemtl m_6f9b2c0d-24ca-0514-40f7-ed08546cf48a
f 68/164/41 71/163/41 69/162/41 66/161/41
f 67/168/42 68/167/42 66/166/42 65/165/42
f 72/172/43 67/171/43 65/170/43 70/169/43
f 70/176/44 65/175/44 66/174/44 69/173/44
f 71/180/45 68/179/45 67/178/45 72/177/45
o bdWire1
v 0.9375 0.625 0.5625
v 0.9375 0.625 0.4375
v 0.9375 0.5 0.5625
v 0.9375 0.5 0.4375
v 0.875 0.625 0.5625
v 0.875 0.625 0.4375
v 0.875 0.53125 0.5625
v 0.875 0.53125 0.4375
v 0.84375 0.5 0.5625
v 0.84375 0.5 0.4375
v 0.875 0.4375 0.5625
v 0.875 0.4375 0.4375
v 0.75 0.5 0.5625
v 0.75 0.5 0.4375
v 0.75 0.4375 0.5625
v 0.75 0.4375 0.4375
vt 0.453125 0.375
vt 0.453125 0.4375
vt 0.421875 0.4375
vt 0.421875 0.375
vt 0.453125 0.390625
vt 0.453125 0.4375
vt 0.421875 0.4375
vt 0.421875 0.390625
vt 0.4375 0.375
vt 0.4375 0.4375
vt 0.421875 0.4375
vt 0.421875 0.390625
vt 0.453125 0.390625
vt 0.453125 0.4375
vt 0.4375 0.4375
vt 0.4375 0.375
vt 0.453125 0.4375
vt 0.421875 0.4375
vt 0.421875 0.40625
vt 0.453125 0.40625
vt 0.421875 0.28125
vt 0.453125 0.28125
vt 0.453125 0.34375
vt 0.421875 0.34375
vt 0.4375 0.375
vt 0.4453125 0.34375
vt 0.46875 0.34375
vt 0.46875 0.375
vt 0.46875 0.34375
vt 0.46875 0.375
vt 0.4453125 0.375
vt 0.4375 0.34375
vt 0.453125 0.40625
vt 0.421875 0.40625
vt 0.421875 0.384153125
vt 0.453125 0.384153125
vt 0.453125 0.299553125
vt 0.453125 0.34375
vt 0.421875 0.34375
vt 0.421875 0.299553125
vt 0.43844781518405973 0.40625
vt 0.42739927172801995 0.40625
vt 0.421875 0.37310436963188054
vt 0.4439720869120796 0.37310436963188054
vt 0.43844781518405973 0.40625
vt 0.42739927172801995 0.40625
vt 0.421875 0.37310436963188054
vt 0.4439720869120796 0.37310436963188054
vn 1 0 0
vn -1 0 0
vn 0 0 1
vn 0 0 -1
vn 0 1 0
vn 0 -1 0
vn 0 0 1
vn 0 0 -1
vn -0.7071067811865476 0.7071067811865476 0
vn 0.7071067811865476 -0.7071067811865476 0
vn 0 0 -1
vn 0 0 1
usemtl m_6f9b2c0d-24ca-0514-40f7-ed08546cf48a
f 76/181/46 74/182/46 73/183/46 75/184/46
f 79/185/47 77/186/47 78/187/47 80/188/47
f 75/189/48 73/190/48 77/191/48 79/192/48
f 80/193/49 78/194/49 74/195/49 76/196/49
f 81/197/50 82/198/50 86/199/50 85/200/50
f 84/201/51 83/202/51 87/203/51 88/204/51
f 83/205/52 81/206/52 85/207/52 87/208/52
f 88/209/53 86/210/53 82/211/53 84/212/53
f 79/213/54 80/214/54 82/215/54 81/216/54
f 84/217/55 76/218/55 75/219/55 83/220/55
f 82/221/56 80/222/56 76/223/56 84/224/56
f 79/225/57 81/226/57 83/227/57 75/228/57
o bdWire2
v 0.8125 0.4375 0.71875
v 0.8125 0.4375 0.59375
v 0.8125 0.375 0.71875
v 0.8125 0.375 0.59375
v 0.75 0.5 0.71875
v 0.75 0.5 0.59375
v 0.75 0.375 0.71875
v 0.75 0.375 0.59375
vt 0.453125 0.28125
vt 0.453125 0.3125
vt 0.421875 0.3125
vt 0.421875 0.28125
vt 0.421875 0.29955624999999997
vt 0.453125 0.29955624999999997
vt 0.453125 0.34375
vt 0.421875 0.34375
vt 0.4375 0.28125
vt 0.4375 0.3125
vt 0.421875 0.34375
vt 0.421875 0.28125
vt 0.453125 0.28125
vt 0.453125 0.34375
vt 0.4375 0.3125
vt 0.4375 0.28125
vn 1 0 0
vn 0.7071067811865476 0.7071067811865476 0
vn 0 0 1
vn 0 0 -1
usemtl m_6f9b2c0d-24ca-0514-40f7-ed08546cf48a
f 92/229/58 90/230/58 89/231/58 91/232/58
f 89/233/59 90/234/59 94/235/59 93/236/59
f 91/237/60 89/238/60 93/239/60 95/240/60
f 96/241/61 94/242/61 90/243/61 92/244/61
o bdCrate
v 0.25 0.5 0.75
v 0.25 0.5 0.25
v 0.25 0 0.75
v 0.25 0 0.25
v 0 0.5 0.25
v 0 0.5 0.75
v 0 0 0.25
v 0 0 0.75
vt 0.4375 0.6875
vt 0.5 0.6875
vt 0.5 0.4375
vt 0.4375 0.4375
vt 0.5 0.6875
vt 0.4375 0.6875
vt 0.4375 0.4375
vt 0.5 0.4375
vt 0.25 0.6875
vt 0.375 0.6875
vt 0.375 0.4375
vt 0.25 0.4375
vt 0.4375 0.6875
vt 0.375 0.6875
vt 0.375 0.4375
vt 0.4375 0.4375
vt 0.4375 0.6875
vt 0.375 0.6875
vt 0.375 0.4375
vt 0.4375 0.4375
vn 0 0 -1
vn 0 0 1
vn -1 0 0
vn 0 1 0
vn 0 -1 0
usemtl m_6f9b2c0d-24ca-0514-40f7-ed08546cf48a
f 100/248/62 103/247/62 101/246/62 98/245/62
f 104/252/63 99/251/63 97/250/63 102/249/63
f 103/256/64 104/255/64 102/254/64 101/253/64
f 102/260/65 97/259/65 98/258/65 101/257/65
f 103/264/66 100/263/66 99/262/66 104/261/66
o bdDeck
v 0.2500000000000001 0.75 1
v 0.7500000000000001 0.75 1
v 0.2500000000000001 0.625 1
v 0.7500000000000001 0.625 1
v 0.2499999999999999 0.75 0
v 0.7499999999999999 0.75 -2.220446049250313e-16
v 0.2499999999999999 0.625 0
v 0.7499999999999999 0.625 -2.220446049250313e-16
v 0.9999999999999998 0.75 0.7500000000000001
v 1 0.75 0.2500000000000001
v 0.9999999999999998 0.625 0.7500000000000001
v 1 0.625 0.2500000000000001
v -2.220446049250313e-16 0.75 0.7500000000000001
v 0 0.75 0.2500000000000001
v -2.220446049250313e-16 0.625 0.7500000000000001
v 0 0.625 0.2500000000000001
v 0.75 0.625 0.8125
v 0.75 0.625 0.1875
v 0.75 0 0.8125
v 0.75 0 0.1875
v 0.25 0.625 0.8125
v 0.25 0.625 0.1875
v 0.25 0 0.8125
v 0.25 0 0.1875
v 0.75 0.625 1
v 0.75 0.625 0.8125
v 0.75 0.4375 0.8125
v 0.25 0.625 1
v 0.25 0.625 0.8125
v 0.25 0.4375 0.8125
v 0.24999999999999994 0.625 5.551115123125783e-17
v 0.24999999999999994 0.625 0.18750000000000006
v 0.24999999999999994 0.4375 0.18750000000000006
v 0.75 0.625 0
v 0.75 0.625 0.18749999999999994
v 0.75 0.4375 0.18749999999999994
vt 0.1875 0.4375
vt 0.1875 0.5
vt 0.0625 0.5
vt 0.0625 0.4375
vt 0.1875 0.4375
vt 0.1875 0.5
vt 0.0625 0.5
vt 0.0625 0.4375
vt 1 0.125
vt 1 0.375
vt 0.75 0.375
vt 0.75 0.125
vt 0.1875 0.4375
vt 0.1875 0.5
vt 0.0625 0.5
vt 0.0625 0.4375
vt 0.1875 0.4375
vt 0.1875 0.5
vt 0.0625 0.5
vt 0.0625 0.4375
vt 0.0625 0.5
vt 0 0.5
vt 0 0.4375
vt 0.0625 0.4375
vt 0.0625 0.5
vt 0 0.5
vt 0 0.4375
vt 0.0625 0.4375
vt 0.0625 0.5
vt 0 0.5
vt 0 0.4375
vt 0.0625 0.4375
vt 0.0625 0.5
vt 0 0.5
vt 0 0.4375
vt 0.0625 0.4375
vt 0.75 0.125
vt 0.8125 0
vt 0.9375 0
vt 1 0.125
vt 0.8125 0.5
vt 0.75 0.375
vt 1 0.375
vt 0.9375 0.5
vt 0.25 0.875
vt 0.1875 1
vt 0.0625 1
vt 0 0.875
vt 0.1875 0.5
vt 0.25 0.625
vt 0 0.625
vt 0.0625 0.5
vt 0.453125 0.6875
vt 0.453125 1
vt 0.296875 1
vt 0.296875 0.6875
vt 0.453125 0.6875
vt 0.453125 1
vt 0.296875 1
vt 0.296875 0.6875
vt 0.25 0.125
vt 0.25 0.4375
vt 0.125 0.4375
vt 0.125 0.125
vt 0.453125 0.90625
vt 0.5 1
vt 0.453125 1
vt 0.296875 1
vt 0.25 1
vt 0.296875 0.90625
vt 0.125 0.4375
vt 0 0.4375
vt 0 0.3125
vt 0.125 0.3125
vt 0.453125 0.90625
vt 0.5 1
vt 0.453125 1
vt 0.296875 1
vt 0.25 1
vt 0.296875 0.90625
vt 0 0.0625
vt 0.125 0.0625
vt 0.125 0.28125
vt 0 0.28125
vt 0.125 0.0625
vt 0.125 0.28125
vt 0 0.28125
vt 0 0.0625
vt 0.125 0.4375
vt 0 0.4375
vt 0 0.3125
vt 0.125 0.3125
vn 2.220446049250313e-16 0 1
vn -2.220446049250313e-16 0 -1
vn 0 1 0
vn 1 0 2.220446049250313e-16
vn -1 0 -2.220446049250313e-16
vn -0.7071067811865471 0 0.707106781186548
vn 0.7071067811865477 0 0.7071067811865475
vn 0.7071067811865479 0 -0.7071067811865471
vn -0.7071067811865478 0 -0.7071067811865472
vn 0 1 0
vn 0 1 0
vn 0 -1 0
vn 0 -1 0
vn 1 0 1.332267629550188e-16
vn -1 0 4.440892098500625e-17
vn 0 -1 0
vn -1 0 -7.401486830834375e-17
vn 1 0 -2.220446049250313e-16
vn -1.5700924586837752e-16 -0.7071067811865476 0.7071067811865476
vn 1 0 -2.220446049250313e-16
vn -1 0 -7.401486830834375e-17
vn 0 1.2688263138573224e-16 -1
vn -2.220446049250314e-16 0 1
vn -7.850462293418876e-17 -0.7071067811865475 -0.7071067811865476
usemtl m_6f9b2c0d-24ca-0514-40f7-ed08546cf48a
f 108/265/67 106/266/67 105/267/67 107/268/67
f 111/269/68 109/270/68 110/271/68 112/272/68
f 105/273/69 106/274/69 110/275/69 109/276/69
f 116/277/70 114/278/70 113/279/70 115/280/70
f 119/281/71 117/282/71 118/283/71 120/284/71
f 105/285/72 117/286/72 119/287/72 107/288/72
f 113/289/73 106/290/73 108/291/73 115/292/73
f 110/293/74 114/294/74 116/295/74 112/296/74
f 118/297/75 109/298/75 111/299/75 120/300/75
f 109/301/76 118/302/76 117/303/76 105/304/76
f 114/305/77 110/306/77 106/307/77 113/308/77
f 107/309/78 119/310/78 120/311/78 111/312/78
f 115/313/79 108/314/79 112/315/79 116/316/79
f 124/317/80 122/318/80 121/319/80 123/320/80
f 127/321/81 125/322/81 126/323/81 128/324/81
f 124/325/82 123/326/82 127/327/82 128/328/82
f 134/329/83 132/330/83 133/331/83
f 130/332/84 129/333/84 131/334/84
f 129/335/85 132/336/85 134/337/85 131/338/85
f 140/339/86 138/340/86 139/341/86
f 136/342/87 135/343/87 137/344/87
f 124/345/88 128/346/88 137/347/88 140/348/88
f 123/349/89 131/350/89 134/351/89 127/352/89
f 135/353/90 138/354/90 140/355/90 137/356/90
o bdWire3
v 0.8125 0.4375 0.40625
v 0.8125 0.4375 0.28125
v 0.8125 0.375 0.40625
v 0.8125 0.375 0.28125
v 0.75 0.5 0.40625
v 0.75 0.5 0.28125
v 0.75 0.375 0.40625
v 0.75 0.375 0.28125
vt 0.453125 0.28125
vt 0.453125 0.3125
vt 0.421875 0.3125
vt 0.421875 0.28125
vt 0.421875 0.29955624999999997
vt 0.453125 0.29955624999999997
vt 0.453125 0.34375
vt 0.421875 0.34375
vt 0.4375 0.28125
vt 0.4375 0.3125
vt 0.421875 0.34375
vt 0.421875 0.28125
vt 0.453125 0.28125
vt 0.453125 0.34375
vt 0.4375 0.3125
vt 0.4375 0.28125
vn 1 0 0
vn 0.7071067811865476 0.7071067811865476 0
vn 0 0 1
vn 0 0 -1
usemtl m_6f9b2c0d-24ca-0514-40f7-ed08546cf48a
f 144/357/91 142/358/91 141/359/91 143/360/91
f 141/361/92 142/362/92 146/363/92 145/364/92
f 143/365/93 141/366/93 145/367/93 147/368/93
f 148/369/94 146/370/94 142/371/94 144/372/94