# Made in Blockbench 4.0.5
mtllib relic_chest.mtl

o prismN
v 0.8125 0.75 0.125
v 0.8125 0.625 0
v 0.8125 0 0.125
v 0.8125 0.125 0
v 0.1875 0.75 0.125
v 0.1875 0.625 0
v 0.1875 0 0.125
v 0.6875 0.75 0.125
v 0.6875 0.625 0
v 0.6875 0.375 0.125
v 0.6875 0.375 0
v 0.3125 0.75 0.125
v 0.3125 0.375 0.125
v 0.3125 0.375 0
v 0.1875 0.125 0
v 0.3125 0.625 0
vt 0.5 0.9375
vt 0.4375 1
vt 0.4375 0.625
vt 0.5 0.6875
vt 0.0625 0.625
vt 0.0625 1
vt 0 0.9375
vt 0 0.6875
vt 0 0.3125
vt 0 0.22406250000000005
vt 0.3125 0.22406250000000005
vt 0.3125 0.3125
vt 0.875 0.9375
vt 0.9375 1
vt 0.9375 0.8125
vt 0.875 0.8125
vt 0.9375 0.8125
vt 0.9375 1
vt 1 0.9375
vt 1 0.8125
vt 0.5 0.625
vt 0.5 0.6875
vt 0.6875 0.6875
vt 0.6875 0.625
vt 0.125 0.46875
vt 0.125 0.5571875
vt 0.0625 0.5571875
vt 0.0625 0.46875
vt 0.1875 0.46875
vt 0.1875 0.5571875
vt 0.125 0.5571875
vt 0.125 0.46875
vt 0.0625 0.4375
vt 0.0625 0.5625
vt 0 0.5625
vt 0 0.3125
vt 0.3125 0.5625
vt 0.25 0.5625
vt 0.25 0.4375
vt 0.3125 0.3125
vt 0.25 0.4375
vt 0.0625 0.4375
vt 0 0.3125
vt 0.3125 0.3125
vn 1 0 0
vn -1 0 0
vn 0 -0.7071067811865476 -0.7071067811865476
vn 1 0 0
vn -1 0 0
vn 0 -1 0
vn 0 0.7071067811865476 -0.7071067811865476
vn 0 0.7071067811865476 -0.7071067811865476
vn 0 0 -1
vn 0 0 -1
vn 0 0 -1
usemtl m_0
f 2/1/1 1/2/1 3/3/1 4/4/1
f 7/5/2 5/6/2 6/7/2 15/8/2
f 4/9/3 3/10/3 7/11/3 15/12/3
f 9/13/4 8/14/4 10/15/4 11/16/4
f 13/17/5 12/18/5 16/19/5 14/20/5
f 11/21/6 10/22/6 13/23/6 14/24/6
f 9/25/7 8/26/7 1/27/7 2/28/7
f 6/29/8 5/30/8 12/31/8 16/32/8
f 11/33/9 9/34/9 2/35/9 4/36/9
f 6/37/10 16/38/10 14/39/10 15/40/10
f 14/41/11 11/42/11 4/43/11 15/44/11
o prismS
v 0.1875000000000001 0.75 0.8750000000000002
v 0.1875000000000001 0.625 1.0000000000000002
v 0.1875 0.12499999999999999 1.0000000000000002
v 0.8125 0.7499999999999999 0.8750000000000001
v 0.8125000000000001 0.6249999999999999 1
v 0.8125 -8.419446744138054e-17 0.875
v 0.8125 0.1249999999999999 1
v 0.3125000000000001 0.75 0.8750000000000002
v 0.3125000000000001 0.625 1.0000000000000002
v 0.3125 0.375 0.8750000000000001
v 0.3125 0.375 1.0000000000000002
v 0.6875000000000001 0.7499999999999999 0.8750000000000001
v 0.6875 0.6249999999999999 1.0000000000000002
v 0.6875 0.37499999999999994 0.8750000000000001
v 0.6875 0.37499999999999994 1
v 0.1875 -7.654042494670971e-18 0.8750000000000001
vt 0.5 0.9375
vt 0.4375 1
vt 0.4375 0.625
vt 0.5 0.6875
vt 0 0.3125
vt 0 0.22406250000000005
vt 0.3125 0.22406250000000005
vt 0.3125 0.3125
vt 0.875 0.9375
vt 0.9375 1
vt 0.9375 0.8125
vt 0.875 0.8125
vt 0.9375 0.8125
vt 0.9375 1
vt 1 0.9375
vt 1 0.8125
vt 0.5 0.625
vt 0.5 0.6875
vt 0.6875 0.6875
vt 0.6875 0.625
vt 0.125 0.46875
vt 0.125 0.5571875
vt 0.0625 0.5571875
vt 0.0625 0.46875
vt 0.1875 0.46875
vt 0.1875 0.5571875
vt 0.125 0.5571875
vt 0.125 0.46875
vt 0.0625 0.4375
vt 0.0625 0.5625
vt 0 0.5625
vt 0 0.3125
vt 0.3125 0.5625
vt 0.25 0.5625
vt 0.25 0.4375
vt 0.3125 0.3125
vt 0.25 0.4375
vt 0.0625 0.4375
vt 0 0.3125
vt 0.3125 0.3125
vt 0.0625 0.625
vt 0.0625 1
vt 0 0.9375
vt 0 0.6875
vn -1 1.224646799147353e-16 1.2246467991473535e-16
vn -3.697785493223494e-32 -0.7071067811865477 0.7071067811865475
vn -1 1.224646799147353e-16 1.2246467991473535e-16
vn 1 -1.224646799147353e-16 -1.2246467991473535e-16
vn -1.2246467991473535e-16 -1 -1.224646799147353e-16
vn 1.731912112470987e-16 0.7071067811865475 0.7071067811865477
vn 1.731912112470987e-16 0.7071067811865475 0.7071067811865477
vn 1.224646799147353e-16 -1.2246467991473535e-16 1
vn 1.224646799147353e-16 -1.2246467991473535e-16 1
vn 1.224646799147353e-16 -1.2246467991473535e-16 1
vn 1 -1.224646799147353e-16 -1.2246467991473535e-16
usemtl m_0
f 18/45/12 17/46/12 32/47/12 19/48/12
f 19/49/13 32/50/13 22/51/13 23/52/13
f 25/53/14 24/54/14 26/55/14 27/56/14
f 30/57/15 28/58/15 29/59/15 31/60/15
f 27/61/16 26/62/16 30/63/16 31/64/16
f 25/65/17 24/66/17 17/67/17 18/68/17
f 21/69/18 20/70/18 28/71/18 29/72/18
f 27/73/19 25/74/19 18/75/19 19/76/19
f 21/77/20 29/78/20 31/79/20 23/80/20
f 31/81/21 27/82/21 19/83/21 23/84/21
f 22/85/22 20/86/22 21/87/22 23/88/22
o rimE
v 0.8125 0.75 0.875
v 0.8125 0.75 0.125
v 0.8125 0.6875 0.875
v 0.8125 0.6875 0.125
v 0.6875 0.75 0.125
v 0.6875 0.75 0.875
v 0.6875 0.6875 0.125
v 0.6875 0.6875 0.875
vt 0.0625 1
vt 0.4375 1
vt 0.4375 0.96875
vt 0.0625 0.96875
vt 0.375 0.59375
vt 0.75 0.59375
vt 0.75 0.5625
vt 0.375 0.5625
vt 0.375 0.625
vt 0.375 0.5625
vt 0 0.5625
vt 0 0.625
vn 1 0 0
vn -1 0 0
vn 0 1 0
usemtl m_0
f 35/92/23 36/91/23 34/90/23 33/89/23
f 39/96/24 40/95/24 38/94/24 37/93/24
f 38/100/25 33/99/25 34/98/25 37/97/25
o rimW
v 0.3125 0.75 0.875
v 0.3125 0.75 0.125
v 0.3125 0.6875 0.875
v 0.3125 0.6875 0.125
v 0.1875 0.75 0.125
v 0.1875 0.75 0.875
v 0.1875 0.6875 0.125
v 0.1875 0.6875 0.875
vt 0.375 0.59375
vt 0.75 0.59375
vt 0.75 0.5625
vt 0.375 0.5625
vt 0.0625 1
vt 0.4375 1
vt 0.4375 0.96875
vt 0.0625 0.96875
vt 0 0.5625
vt 0 0.625
vt 0.375 0.625
vt 0.375 0.5625
vn 1 0 0
vn -1 0 0
vn 0 1 0
usemtl m_0
f 43/104/26 44/103/26 42/102/26 41/101/26
f 47/108/27 48/107/27 46/106/27 45/105/27
f 46/112/28 41/111/28 42/110/28 45/109/28
o base1
v 0.8125 0.6875 0.875
v 0.8125 0.6875 0.125
v 0.8125 0 0.875
v 0.8125 0 0.125
v 0.1875 0.6875 0.125
v 0.1875 0.6875 0.875
v 0.1875 0 0.125
v 0.1875 0 0.875
vt 0.625 0.5625
vt 0.9375 0.5625
vt 0.9375 0.21875
vt 0.625 0.21875
vt 0.0625 0.96875
vt 0.4375 0.96875
vt 0.4375 0.625
vt 0.0625 0.625
vt 0.625 0.5625
vt 0.9375 0.5625
vt 0.9375 0.21875
vt 0.625 0.21875
vt 0.0625 0.96875
vt 0.4375 0.96875
vt 0.4375 0.625
vt 0.0625 0.625
vt 0.3125 0.5625
vt 0.625 0.5625
vt 0.625 0.1875
vt 0.3125 0.1875
vt 0.5 0.6875
vt 0.5 1
vt 0.875 1
vt 0.875 0.6875
vn 0 0 -1
vn 1 0 0
vn 0 0 1
vn -1 0 0
vn 0 1 0
vn 0 -1 0
usemtl m_0
f 52/116/29 55/115/29 53/114/29 50/113/29
f 51/120/30 52/119/30 50/118/30 49/117/30
f 56/124/31 51/123/31 49/122/31 54/121/31
f 55/128/32 56/127/32 54/126/32 53/125/32
f 54/132/33 49/131/33 50/130/33 53/129/33
f 55/136/34 52/135/34 51/134/34 56/133/34