# Made in Blockbench 4.12.4
mtllib rubber_dandelion_3.mtl

o stemBase
v 0.5625 0.125 0.5625
v 0.5625 0.125 0.4375
v 0.5625 0 0.5625
v 0.5625 0 0.4375
v 0.4375 0.125 0.4375
v 0.4375 0.125 0.5625
v 0.4375 0 0.4375
v 0.4375 0 0.5625
vt 0.53125 0.875
vt 0.46875 0.875
vt 0.46875 0.75
vt 0.53125 0.75
vt 0.46875 0.875
vt 0.53125 0.875
vt 0.53125 0.75
vt 0.46875 0.75
vt 0.53125 0.875
vt 0.46875 0.875
vt 0.46875 0.75
vt 0.53125 0.75
vt 0.46875 0.875
vt 0.53125 0.875
vt 0.53125 0.75
vt 0.46875 0.75
vt 0.53125 1
vt 0.46875 1
vt 0.46875 0.875
vt 0.53125 0.875
vt 0.53125 0.75
vt 0.46875 0.75
vt 0.46875 0.625
vt 0.53125 0.625
vn 0 0 -1
vn 1 0 0
vn 0 0 1
vn -1 0 0
vn 0 1 0
vn 0 -1 0
usemtl m_9832a1ae-ddec-2b71-f41f-980fee5db66f
f 4/4/1 7/3/1 5/2/1 2/1/1
f 3/8/2 4/7/2 2/6/2 1/5/2
f 8/12/3 3/11/3 1/10/3 6/9/3
f 7/16/4 8/15/4 6/14/4 5/13/4
f 6/20/5 1/19/5 2/18/5 5/17/5
f 7/24/6 4/23/6 3/22/6 8/21/6
o leafSeg1NE
v 0.865702981797597 0.3851367454474635 0.17908385504712443
v 1.0424796770942335 0.7386901360407373 -0.12710236280077303
v 0.865702981797597 0.3851367454474635 0.17908385504712443
v 1.0424796770942335 0.7386901360407373 -0.12710236280077303
v 0.7718467384115962 0.7386901360407373 -0.2833523628007727
v 0.5950700431149598 0.3851367454474635 0.02283385504712475
v 0.7718467384115962 0.7386901360407373 -0.2833523628007727
v 0.5950700431149598 0.3851367454474635 0.02283385504712475
vt 0.15625 1
vt 0.3125 1
vt 0.3125 0.5
vt 0.15625 0.5
vt 0.3125 0.5
vt 0.15625 0.5
vt 0.15625 1
vt 0.3125 1
vn -0.3535533905932731 0.7071067811865475 0.612372435695795
vn 0.3535533905932731 -0.7071067811865475 -0.612372435695795
usemtl m_9832a1ae-ddec-2b71-f41f-980fee5db66f
f 14/28/7 9/27/7 10/26/7 13/25/7
f 15/32/8 12/31/8 11/30/8 16/29/8
o leafSeg2NE
v 0.6609149707253495 0.0983485272719404 0.5337870950052359
v 0.8657029817975971 0.3851367454474635 0.17908385504712443
v 0.6609149707253495 0.0983485272719404 0.5337870950052359
v 0.8657029817975971 0.3851367454474635 0.17908385504712443
v 0.5950700431149598 0.3851367454474635 0.022833855047124763
v 0.3902820320427123 0.09834852727194038 0.37753709500523625
v 0.5950700431149598 0.3851367454474635 0.022833855047124763
v 0.3902820320427123 0.09834852727194038 0.37753709500523625
vt 0.15625 0.5
vt 0.3125 0.5
vt 0.3125 0
vt 0.15625 0
vt 0.3125 0
vt 0.15625 0
vt 0.15625 0.5
vt 0.3125 0.5
vn -0.28678821817552264 0.8191520442889918 0.49673176489215454
vn 0.28678821817552264 -0.8191520442889918 -0.49673176489215454
usemtl m_9832a1ae-ddec-2b71-f41f-980fee5db66f
f 22/36/9 17/35/9 18/34/9 21/33/9
f 23/40/10 20/39/10 19/38/10 24/37/10
o leafSeg1NW
v 0.4049299568850393 0.3851367454474635 0.022833855047124957
v 0.2281532615884023 0.7386901360407374 -0.28335236280077214
v 0.4049299568850393 0.3851367454474635 0.022833855047124957
v 0.2281532615884023 0.7386901360407374 -0.28335236280077214
v -0.042479677094234614 0.7386901360407374 -0.12710236280077183
v 0.13429701820240236 0.3851367454474636 0.17908385504712523
v -0.042479677094234614 0.7386901360407374 -0.12710236280077183
v 0.13429701820240236 0.3851367454474636 0.17908385504712523
vt 0 1
vt 0.15625 1
vt 0.15625 0.5
vt 0 0.5
vt 0.15625 0.5
vt 0 0.5
vt 0 1
vt 0.15625 1
vn 0.3535533905932748 0.7071067811865474 0.6123724356957941
vn -0.3535533905932748 -0.7071067811865474 -0.6123724356957941
usemtl m_9832a1ae-ddec-2b71-f41f-980fee5db66f
f 30/44/11 25/43/11 26/42/11 29/41/11
f 31/48/12 28/47/12 27/46/12 32/45/12
o leafSeg2NW
v 0.6097179679572875 0.09834852727194032 0.37753709500523597
v 0.4049299568850393 0.3851367454474635 0.022833855047124985
v 0.6097179679572875 0.09834852727194032 0.37753709500523597
v 0.4049299568850393 0.3851367454474635 0.022833855047124985
v 0.13429701820240236 0.3851367454474636 0.1790838550471252
v 0.3390850292746505 0.09834852727194049 0.5337870950052362
v 0.13429701820240236 0.3851367454474636 0.1790838550471252
v 0.3390850292746505 0.09834852727194049 0.5337870950052362
vt 0 0.5
vt 0.15625 0.5
vt 0.15625 0
vt 0 0
vt 0.15625 0
vt 0 0
vt 0 0.5
vt 0.15625 0.5
vn 0.2867882181755241 0.8191520442889917 0.4967317648921538
vn -0.2867882181755241 -0.8191520442889917 -0.4967317648921538
usemtl m_9832a1ae-ddec-2b71-f41f-980fee5db66f
f 38/52/13 33/51/13 34/50/13 37/49/13
f 39/56/14 36/55/14 35/54/14 40/53/14
o leafSeg1W
v 0.05459844036273585 0.3851367454474631 0.30418556319882495
v -0.29760957283864353 0.7386901360407366 0.27337135484071473
v 0.05459844036273585 0.3851367454474631 0.30418556319882495
v -0.29760957283864353 0.7386901360407366 0.27337135484071473
v -0.32484574244728714 0.7386901360407366 0.5846821979943851
v 0.02736227075409227 0.3851367454474631 0.6154964063524954
v -0.32484574244728714 0.7386901360407366 0.5846821979943851
v 0.02736227075409227 0.3851367454474631 0.6154964063524954
vt 0.15625 1
vt 0.3125 1
vt 0.3125 0.5
vt 0.15625 0.5
vt 0.3125 0.5
vt 0.15625 0.5
vt 0.15625 1
vt 0.3125 1
vn 0.7044160264027582 0.7071067811865479 0.06162841671622024
vn -0.7044160264027582 -0.7071067811865479 -0.06162841671622024
usemtl m_9832a1ae-ddec-2b71-f41f-980fee5db66f
f 46/60/15 41/59/15 42/58/15 45/57/15
f 47/64/16 44/63/16 43/62/16 48/61/16
o leafSeg2W
v 0.46261590208859005 0.09834852727194035 0.3398824656204604
v 0.05459844036273587 0.3851367454474631 0.30418556319882495
v 0.46261590208859005 0.09834852727194035 0.3398824656204604
v 0.05459844036273587 0.3851367454474631 0.30418556319882495
v 0.027362270754092255 0.3851367454474631 0.6154964063524954
v 0.43537973247994644 0.09834852727194035 0.6511933087741308
v 0.027362270754092255 0.3851367454474631 0.6154964063524954
v 0.43537973247994644 0.09834852727194035 0.6511933087741308
vt 0.15625 0.5
vt 0.3125 0.5
vt 0.3125 0
vt 0.15625 0
vt 0.3125 0
vt 0.15625 0
vt 0.15625 0.5
vt 0.3125 0.5
vn 0.5713938048432693 0.8191520442889921 0.04999048033273103
vn -0.5713938048432693 -0.8191520442889921 -0.04999048033273103
usemtl m_9832a1ae-ddec-2b71-f41f-980fee5db66f
f 54/68/17 49/67/17 50/66/17 53/65/17
f 55/72/18 52/71/18 51/70/18 56/69/18
o leafSeg1E
v 0.9716674927560145 0.3437500000000001 0.6981124081859961
v 1.353232199124899 0.6651438048432698 0.7314949943948721
v 0.9716674927560145 0.3437500000000001 0.6981124081859961
v 1.353232199124899 0.6651438048432698 0.7314949943948721
v 1.3804683687335428 0.6651438048432698 0.42018415124120173
v 0.9989036623646583 0.3437500000000001 0.38680156503232566
v 1.3804683687335428 0.6651438048432698 0.42018415124120173
v 0.9989036623646583 0.3437500000000001 0.38680156503232566
vt 0.3125 1
vt 0.46875 1
vt 0.46875 0.5
vt 0.3125 0.5
vt 0.46875 0.5
vt 0.3125 0.5
vt 0.3125 1
vt 0.46875 1
vn -0.6403416087687971 0.7660444431189779 -0.05602263155122348
vn 0.6403416087687971 -0.7660444431189779 0.05602263155122348
usemtl m_9832a1ae-ddec-2b71-f41f-980fee5db66f
f 62/76/19 57/75/19 58/74/19 61/73/19
f 63/80/20 60/79/20 59/78/20 64/77/20
o leafSeg2E
v 0.5403025349246043 0.09375000000000003 0.6603728645334086
v 0.9716674927560145 0.3437500000000001 0.6981124081859961
v 0.5403025349246043 0.09375000000000003 0.6603728645334086
v 0.9716674927560145 0.3437500000000001 0.6981124081859961
v 0.9989036623646583 0.3437500000000001 0.3868015650323257
v 0.5675387045332482 0.09375 0.34906202137973824
v 0.9989036623646583 0.3437500000000001 0.3868015650323257
v 0.5675387045332482 0.09375 0.34906202137973824
vt 0.3125 0.5
vt 0.46875 0.5
vt 0.46875 0
vt 0.3125 0
vt 0.46875 0
vt 0.3125 0
vt 0.3125 0.5
vt 0.46875 0.5
vn -0.49809734904587305 0.8660254037844386 -0.04357787137383016
vn 0.49809734904587305 -0.8660254037844386 0.04357787137383016
usemtl m_9832a1ae-ddec-2b71-f41f-980fee5db66f
f 70/84/21 65/83/21 66/82/21 69/81/21
f 71/88/22 68/87/22 67/86/22 72/85/22
o leafSeg1SW
v 0.10771894348380628 0.3851367454474638 0.7878218471304903
v -0.09507095035251512 0.7386901360407379 1.0774358298002733
v 0.10771894348380628 0.3851367454474638 0.7878218471304903
v -0.09507095035251512 0.7386901360407379 1.0774358298002733
v 0.16091406348779344 0.7386901360407379 1.2566784661599772
v 0.36370395732411487 0.3851367454474638 0.9670644834901942
v 0.16091406348779344 0.7386901360407379 1.2566784661599772
v 0.36370395732411487 0.3851367454474638 0.9670644834901942
vt 0 1
vt 0.15625 1
vt 0.15625 0.5
vt 0 0.5
vt 0.15625 0.5
vt 0 0.5
vt 0 1
vt 0.15625 1
vn 0.4055797876726436 0.707106781186547 -0.5792279653395666
vn -0.4055797876726436 -0.707106781186547 0.5792279653395666
usemtl m_9832a1ae-ddec-2b71-f41f-980fee5db66f
f 78/92/23 73/91/23 74/90/23 77/89/23
f 79/96/24 76/95/24 75/94/24 80/93/24
o leafSeg2SW
v 0.3426420986802858 0.09834852727194043 0.452316811299075
v 0.10771894348380628 0.3851367454474638 0.7878218471304903
v 0.3426420986802858 0.09834852727194043 0.452316811299075
v 0.10771894348380628 0.3851367454474638 0.7878218471304903
v 0.36370395732411487 0.3851367454474638 0.9670644834901942
v 0.5986271125205944 0.0983485272719404 0.6315594476587788
v 0.36370395732411487 0.3851367454474638 0.9670644834901942
v 0.5986271125205944 0.0983485272719404 0.6315594476587788
vt 0 0.5
vt 0.15625 0.5
vt 0.15625 0
vt 0 0
vt 0.15625 0
vt 0 0
vt 0 0.5
vt 0.15625 0.5
vn 0.32898992833716956 0.8191520442889915 -0.46984631039295216
vn -0.32898992833716956 -0.8191520442889915 0.46984631039295216
usemtl m_9832a1ae-ddec-2b71-f41f-980fee5db66f
f 86/100/25 81/99/25 82/98/25 85/97/25
f 87/104/26 84/103/26 83/102/26 88/101/26
o leafSeg1SE
v 0.5950700431149598 0.38513674544746374 0.9771661449528751
v 0.7718467384115963 0.7386901360407376 1.2833523628007724
v 0.5950700431149598 0.38513674544746374 0.9771661449528751
v 0.7718467384115963 0.7386901360407376 1.2833523628007724
v 1.0424796770942337 0.7386901360407376 1.1271023628007728
v 0.8657029817975972 0.38513674544746374 0.8209161449528753
v 1.0424796770942337 0.7386901360407376 1.1271023628007728
v 0.8657029817975972 0.38513674544746374 0.8209161449528753
vt 0.15625 1
vt 0.3125 1
vt 0.3125 0.5
vt 0.15625 0.5
vt 0.3125 0.5
vt 0.15625 0.5
vt 0.15625 1
vt 0.3125 1
vn -0.35355339059327323 0.7071067811865472 -0.6123724356957951
vn 0.35355339059327323 -0.7071067811865472 0.6123724356957951
usemtl m_9832a1ae-ddec-2b71-f41f-980fee5db66f
f 94/108/27 89/107/27 90/106/27 93/105/27
f 95/112/28 92/111/28 91/110/28 96/109/28
o leafSeg2SE
v 0.3902820320427123 0.09834852727194043 0.6224629049947638
v 0.5950700431149598 0.38513674544746374 0.9771661449528751
v 0.3902820320427123 0.09834852727194043 0.6224629049947638
v 0.5950700431149598 0.38513674544746374 0.9771661449528751
v 0.8657029817975971 0.38513674544746374 0.8209161449528755
v 0.6609149707253495 0.09834852727194039 0.4662129049947641
v 0.8657029817975971 0.38513674544746374 0.8209161449528755
v 0.6609149707253495 0.09834852727194039 0.4662129049947641
vt 0.15625 0.5
vt 0.3125 0.5
vt 0.3125 0
vt 0.15625 0
vt 0.3125 0
vt 0.15625 0
vt 0.15625 0.5
vt 0.3125 0.5
vn -0.2867882181755227 0.8191520442889915 -0.4967317648921548
vn 0.2867882181755227 -0.8191520442889915 0.4967317648921548
usemtl m_9832a1ae-ddec-2b71-f41f-980fee5db66f
f 102/116/29 97/115/29 98/114/29 101/113/29
f 103/120/30 100/119/30 99/118/30 104/117/30
o stem2
v 0.5441941738241587 0.6875 0.5
v 0.4999999999999995 0.6875 0.45580582617584076
v 0.5441941738241592 0.06250000000000004 0.5
v 0.5 0.0625 0.45580582617584076
v 0.4558058261758403 0.6875 0.5
v 0.49999999999999956 0.6875 0.5441941738241592
v 0.4558058261758408 0.06249999999999997 0.5
v 0.5 0.0625 0.5441941738241592
vt 0.53125 1
vt 0.5625 1
vt 0.5625 0.375
vt 0.53125 0.375
vt 0.5625 1
vt 0.59375 1
vt 0.59375 0.375
vt 0.5625 0.375
vt 0.53125 1
vt 0.5625 1
vt 0.5625 0.375
vt 0.53125 0.375
vt 0.5625 1
vt 0.59375 1
vt 0.59375 0.375
vt 0.5625 0.375
vn -0.7071067811865476 -5.690289146214976e-16 -0.7071067811865475
vn 0.7071067811865475 5.690289146214975e-16 -0.7071067811865476
vn 0.7071067811865476 5.690289146214976e-16 0.7071067811865475
vn -0.7071067811865475 -5.690289146214975e-16 0.7071067811865476
usemtl m_9832a1ae-ddec-2b71-f41f-980fee5db66f
f 108/124/31 111/123/31 109/122/31 106/121/31
f 107/128/32 108/127/32 106/126/32 105/125/32
f 112/132/33 107/131/33 105/130/33 110/129/33
f 111/136/34 112/135/34 110/134/34 109/133/34
o flower2
v 0.6325825214724771 0.8125000000000002 0.5
v 0.4999999999999994 0.8125 0.3674174785275223
v 0.6325825214724772 0.6875000000000001 0.5
v 0.49999999999999944 0.6875 0.3674174785275223
v 0.3674174785275217 0.8124999999999999 0.5
v 0.4999999999999994 0.8125 0.6325825214724776
v 0.3674174785275218 0.6874999999999999 0.5
v 0.4999999999999995 0.6875 0.6325825214724776
vt 0.46875 0.1875
vt 0.5625 0.1875
vt 0.5625 0.0625
vt 0.46875 0.0625
vt 0.46875 0.1875
vt 0.5625 0.1875
vt 0.5625 0.0625
vt 0.46875 0.0625
vt 0.46875 0.1875
vt 0.5625 0.1875
vt 0.5625 0.0625
vt 0.46875 0.0625
vt 0.46875 0.1875
vt 0.5625 0.1875
vt 0.5625 0.0625
vt 0.46875 0.0625
vt 0.46875 0.375
vt 0.5625 0.375
vt 0.5625 0.1875
vt 0.46875 0.1875
vt 0.5625 0.375
vt 0.65625 0.375
vt 0.65625 0.1875
vt 0.5625 0.1875
vn -0.7071067811865476 -5.690289146214976e-16 -0.7071067811865475
vn 0.7071067811865475 5.690289146214975e-16 -0.7071067811865476
vn 0.7071067811865476 5.690289146214976e-16 0.7071067811865475
vn -0.7071067811865475 -5.690289146214975e-16 0.7071067811865476
vn -8.047284084401637e-16 1 4.930380657631324e-32
vn 8.047284084401637e-16 -1 -4.930380657631324e-32
usemtl m_9832a1ae-ddec-2b71-f41f-980fee5db66f
f 116/140/35 119/139/35 117/138/35 114/137/35
f 115/144/36 116/143/36 114/142/36 113/141/36
f 120/148/37 115/147/37 113/146/37 118/145/37
f 119/152/38 120/151/38 118/150/38 117/149/38
f 118/156/39 113/155/39 114/154/39 117/153/39
f 119/160/40 116/159/40 115/158/40 120/157/40
o petals2
v 0.7209708691207954 0.7500000000000002 0.5
v 0.4999999999999994 0.75 0.2790291308792039
v 0.7209708691207954 0.7500000000000002 0.5
v 0.4999999999999994 0.75 0.2790291308792039
v 0.27902913087920334 0.7499999999999999 0.5
v 0.49999999999999944 0.75 0.7209708691207961
v 0.27902913087920334 0.7499999999999999 0.5
v 0.49999999999999944 0.75 0.7209708691207961
vt 0.46875 0.1875
vt 0.5625 0.1875
vt 0.5625 0.0625
vt 0.46875 0.0625
vt 0.46875 0.1875
vt 0.5625 0.1875
vt 0.5625 0.0625
vt 0.46875 0.0625
vt 0.46875 0.1875
vt 0.5625 0.1875
vt 0.5625 0.0625
vt 0.46875 0.0625
vt 0.46875 0.1875
vt 0.5625 0.1875
vt 0.5625 0.0625
vt 0.46875 0.0625
vt 0.59375 1
vt 0.75 1
vt 0.75 0.6875
vt 0.59375 0.6875
vt 0.59375 0.6875
vt 0.75 0.6875
vt 0.75 1
vt 0.59375 1
vn -0.7071067811865476 -5.690289146214976e-16 -0.7071067811865475
vn 0.7071067811865475 5.690289146214975e-16 -0.7071067811865476
vn 0.7071067811865476 5.690289146214976e-16 0.7071067811865475
vn -0.7071067811865475 -5.690289146214975e-16 0.7071067811865476
vn -8.047284084401637e-16 1 4.930380657631324e-32
vn 8.047284084401637e-16 -1 -4.930380657631324e-32
usemtl m_9832a1ae-ddec-2b71-f41f-980fee5db66f
f 124/164/41 127/163/41 125/162/41 122/161/41
f 123/168/42 124/167/42 122/166/42 121/165/42
f 128/172/43 123/171/43 121/170/43 126/169/43
f 127/176/44 128/175/44 126/174/44 125/173/44
f 126/180/45 121/179/45 122/178/45 125/177/45
f 127/184/46 124/183/46 123/182/46 128/181/46