# Made in Blockbench 4.12.4
mtllib rubber_dandelion_1.mtl

o stemBase
v 0.5625 0.125 0.5625
v 0.5625 0.125 0.4375
v 0.5625 0 0.5625
v 0.5625 0 0.4375
v 0.4375 0.125 0.4375
v 0.4375 0.125 0.5625
v 0.4375 0 0.4375
v 0.4375 0 0.5625
vt 0.53125 0.875
vt 0.46875 0.875
vt 0.46875 0.75
vt 0.53125 0.75
vt 0.46875 0.875
vt 0.53125 0.875
vt 0.53125 0.75
vt 0.46875 0.75
vt 0.53125 0.875
vt 0.46875 0.875
vt 0.46875 0.75
vt 0.53125 0.75
vt 0.46875 0.875
vt 0.53125 0.875
vt 0.53125 0.75
vt 0.46875 0.75
vt 0.53125 1
vt 0.46875 1
vt 0.46875 0.875
vt 0.53125 0.875
vt 0.53125 0.75
vt 0.46875 0.75
vt 0.46875 0.625
vt 0.53125 0.625
vn 0 0 -1
vn 1 0 0
vn 0 0 1
vn -1 0 0
vn 0 1 0
vn 0 -1 0
usemtl m_9832a1ae-ddec-2b71-f41f-980fee5db66f
f 4/4/1 7/3/1 5/2/1 2/1/1
f 3/8/2 4/7/2 2/6/2 1/5/2
f 8/12/3 3/11/3 1/10/3 6/9/3
f 7/16/4 8/15/4 6/14/4 5/13/4
f 6/20/5 1/19/5 2/18/5 5/17/5
f 7/24/6 4/23/6 3/22/6 8/21/6
o leafSeg2NE
v 0.6592553581887867 0.1026742256054087 0.5366616282394412
v 0.8507664689685308 0.42406803044867825 0.20495465415497166
v 0.6592553581887867 0.1026742256054087 0.5366616282394412
v 0.8507664689685308 0.42406803044867825 0.20495465415497166
v 0.5801335302858935 0.42406803044867825 0.048704654154971994
v 0.3886224195061494 0.10267422560540869 0.38041162823944147
v 0.5801335302858935 0.42406803044867825 0.048704654154971994
v 0.3886224195061494 0.10267422560540869 0.38041162823944147
vt 0 0.5
vt 0.15625 0.5
vt 0.15625 0
vt 0 0
vt 0.15625 0
vt 0 0
vt 0 0.5
vt 0.15625 0.5
vn -0.32139380484326896 0.7660444431189781 0.5566703992264196
vn 0.32139380484326896 -0.7660444431189781 -0.5566703992264196
usemtl m_9832a1ae-ddec-2b71-f41f-980fee5db66f
f 14/28/7 9/27/7 10/26/7 13/25/7
f 15/32/8 12/31/8 11/30/8 16/29/8
o leafSeg1NE
v 0.8507664689685308 0.42406803044867825 0.20495465415497166
v 1.0114633713901653 0.8070902520081672 -0.07338054545823824
v 0.8507664689685308 0.42406803044867825 0.20495465415497166
v 1.0114633713901653 0.8070902520081672 -0.07338054545823824
v 0.740830432707528 0.8070902520081672 -0.2296305454582379
v 0.5801335302858934 0.42406803044867825 0.04870465415497198
v 0.740830432707528 0.8070902520081672 -0.2296305454582379
v 0.5801335302858934 0.42406803044867825 0.04870465415497198
vt 0 1
vt 0.15625 1
vt 0.15625 0.5
vt 0 0.5
vt 0.15625 0.5
vt 0 0.5
vt 0 1
vt 0.15625 1
vn -0.38302222155948834 0.6427876096865395 0.6634139481689388
vn 0.38302222155948834 -0.6427876096865395 -0.6634139481689388
usemtl m_9832a1ae-ddec-2b71-f41f-980fee5db66f
f 22/36/9 17/35/9 18/34/9 21/33/9
f 23/40/10 20/39/10 19/38/10 24/37/10
o leafSeg1NW
v 0.3917468245269449 0.34375000000000006 0
v 0.2002357137472003 0.6651438048432698 -0.3317069740844691
v 0.3917468245269449 0.34375000000000006 0
v 0.2002357137472003 0.6651438048432698 -0.3317069740844691
v -0.0703972249354366 0.6651438048432698 -0.17545697408446886
v 0.12111388584430799 0.34375000000000017 0.15625000000000022
v -0.0703972249354366 0.6651438048432698 -0.17545697408446886
v 0.12111388584430799 0.34375000000000017 0.15625000000000022
vt 0.15625 1
vt 0.3125 1
vt 0.3125 0.5
vt 0.15625 0.5
vt 0.3125 0.5
vt 0.15625 0.5
vt 0.15625 1
vt 0.3125 1
vn 0.32139380484327046 0.7660444431189779 0.5566703992264191
vn -0.32139380484327046 -0.7660444431189779 -0.5566703992264191
usemtl m_9832a1ae-ddec-2b71-f41f-980fee5db66f
f 30/44/11 25/43/11 26/42/11 29/41/11
f 31/48/12 28/47/12 27/46/12 32/45/12
o leafSeg2NW
v 0.6082531754730547 0.09374999999999994 0.3749999999999999
v 0.3917468245269449 0.34375000000000006 0
v 0.6082531754730547 0.09374999999999994 0.3749999999999999
v 0.3917468245269449 0.34375000000000006 0
v 0.12111388584430799 0.34375000000000017 0.15625000000000022
v 0.3376202367904178 0.09375000000000008 0.5312500000000001
v 0.12111388584430799 0.34375000000000017 0.15625000000000022
v 0.3376202367904178 0.09375000000000008 0.5312500000000001
vt 0.15625 0.5
vt 0.3125 0.5
vt 0.3125 0
vt 0.15625 0
vt 0.3125 0
vt 0.15625 0
vt 0.15625 0.5
vt 0.3125 0.5
vn 0.2500000000000008 0.8660254037844386 0.43301270189221913
vn -0.2500000000000008 -0.8660254037844386 -0.43301270189221913
usemtl m_9832a1ae-ddec-2b71-f41f-980fee5db66f
f 38/52/13 33/51/13 34/50/13 37/49/13
f 39/56/14 36/55/14 35/54/14 40/53/14
o leafSeg1W
v 0.05459844036273585 0.3851367454474631 0.30418556319882495
v -0.29760957283864353 0.7386901360407366 0.27337135484071473
v 0.05459844036273585 0.3851367454474631 0.30418556319882495
v -0.29760957283864353 0.7386901360407366 0.27337135484071473
v -0.32484574244728714 0.7386901360407366 0.5846821979943851
v 0.02736227075409227 0.3851367454474631 0.6154964063524954
v -0.32484574244728714 0.7386901360407366 0.5846821979943851
v 0.02736227075409227 0.3851367454474631 0.6154964063524954
vt 0 1
vt 0.15625 1
vt 0.15625 0.5
vt 0 0.5
vt 0.15625 0.5
vt 0 0.5
vt 0 1
vt 0.15625 1
vn 0.7044160264027582 0.7071067811865479 0.06162841671622024
vn -0.7044160264027582 -0.7071067811865479 -0.06162841671622024
usemtl m_9832a1ae-ddec-2b71-f41f-980fee5db66f
f 46/60/15 41/59/15 42/58/15 45/57/15
f 47/64/16 44/63/16 43/62/16 48/61/16
o leafSeg2W
v 0.46261590208859005 0.09834852727194035 0.3398824656204604
v 0.05459844036273587 0.3851367454474631 0.30418556319882495
v 0.46261590208859005 0.09834852727194035 0.3398824656204604
v 0.05459844036273587 0.3851367454474631 0.30418556319882495
v 0.027362270754092255 0.3851367454474631 0.6154964063524954
v 0.43537973247994644 0.09834852727194035 0.6511933087741308
v 0.027362270754092255 0.3851367454474631 0.6154964063524954
v 0.43537973247994644 0.09834852727194035 0.6511933087741308
vt 0 0.5
vt 0.15625 0.5
vt 0.15625 0
vt 0 0
vt 0.15625 0
vt 0 0
vt 0 0.5
vt 0.15625 0.5
vn 0.5713938048432693 0.8191520442889921 0.04999048033273103
vn -0.5713938048432693 -0.8191520442889921 -0.04999048033273103
usemtl m_9832a1ae-ddec-2b71-f41f-980fee5db66f
f 54/68/17 49/67/17 50/66/17 53/65/17
f 55/72/18 52/71/18 51/70/18 56/69/18
o leafSeg1E
v 0.9716674927560145 0.3437500000000001 0.6981124081859961
v 1.353232199124899 0.6651438048432698 0.7314949943948721
v 0.9716674927560145 0.3437500000000001 0.6981124081859961
v 1.353232199124899 0.6651438048432698 0.7314949943948721
v 1.3804683687335428 0.6651438048432698 0.42018415124120173
v 0.9989036623646583 0.3437500000000001 0.38680156503232566
v 1.3804683687335428 0.6651438048432698 0.42018415124120173
v 0.9989036623646583 0.3437500000000001 0.38680156503232566
vt 0.3125 1
vt 0.46875 1
vt 0.46875 0.5
vt 0.3125 0.5
vt 0.46875 0.5
vt 0.3125 0.5
vt 0.3125 1
vt 0.46875 1
vn -0.6403416087687971 0.7660444431189779 -0.05602263155122348
vn 0.6403416087687971 -0.7660444431189779 0.05602263155122348
usemtl m_9832a1ae-ddec-2b71-f41f-980fee5db66f
f 62/76/19 57/75/19 58/74/19 61/73/19
f 63/80/20 60/79/20 59/78/20 64/77/20
o leafSeg2E
v 0.5403025349246043 0.09375000000000003 0.6603728645334086
v 0.9716674927560145 0.3437500000000001 0.6981124081859961
v 0.5403025349246043 0.09375000000000003 0.6603728645334086
v 0.9716674927560145 0.3437500000000001 0.6981124081859961
v 0.9989036623646583 0.3437500000000001 0.3868015650323257
v 0.5675387045332482 0.09375 0.34906202137973824
v 0.9989036623646583 0.3437500000000001 0.3868015650323257
v 0.5675387045332482 0.09375 0.34906202137973824
vt 0.3125 0.5
vt 0.46875 0.5
vt 0.46875 0
vt 0.3125 0
vt 0.46875 0
vt 0.3125 0
vt 0.3125 0.5
vt 0.46875 0.5
vn -0.49809734904587305 0.8660254037844386 -0.04357787137383016
vn 0.49809734904587305 -0.8660254037844386 0.04357787137383016
usemtl m_9832a1ae-ddec-2b71-f41f-980fee5db66f
f 70/84/21 65/83/21 66/82/21 69/81/21
f 71/88/22 68/87/22 67/86/22 72/85/22
o leafSeg1SW
v 0.09259587532800606 0.34375000000000006 0.8094198267730214
v -0.12709664555734873 0.6651438048432697 1.1231732625715862
v 0.09259587532800606 0.34375000000000006 0.8094198267730214
v -0.12709664555734873 0.6651438048432697 1.1231732625715862
v 0.12888836828295994 0.6651438048432697 1.3024158989312902
v 0.34858088916831476 0.34375000000000006 0.9886624631327251
v 0.12888836828295994 0.6651438048432697 1.3024158989312902
v 0.34858088916831476 0.34375000000000006 0.9886624631327251
vt 0.3125 1
vt 0.46875 1
vt 0.46875 0.5
vt 0.3125 0.5
vt 0.46875 0.5
vt 0.3125 0.5
vt 0.3125 1
vt 0.46875 1
vn 0.36868782649461623 0.7660444431189782 -0.5265407845183606
vn -0.36868782649461623 -0.7660444431189782 0.5265407845183606
usemtl m_9832a1ae-ddec-2b71-f41f-980fee5db66f
f 78/92/23 73/91/23 74/90/23 77/89/23
f 79/96/24 76/95/24 75/94/24 80/93/24
o leafSeg2SW
v 0.34096175777408566 0.09375000000000003 0.4547165868149118
v 0.09259587532800606 0.34375000000000006 0.8094198267730213
v 0.34096175777408566 0.09375000000000003 0.4547165868149118
v 0.09259587532800606 0.34375000000000006 0.8094198267730213
v 0.34858088916831476 0.34375000000000006 0.9886624631327251
v 0.5969467716143944 0.09374999999999999 0.6339592231746156
v 0.34858088916831476 0.34375000000000006 0.9886624631327251
v 0.5969467716143944 0.09374999999999999 0.6339592231746156
vt 0.3125 0.5
vt 0.46875 0.5
vt 0.46875 0
vt 0.3125 0
vt 0.46875 0
vt 0.3125 0
vt 0.3125 0.5
vt 0.46875 0.5
vn 0.2867882181755261 0.8660254037844387 -0.40957602214449385
vn -0.2867882181755261 -0.8660254037844387 0.40957602214449385
usemtl m_9832a1ae-ddec-2b71-f41f-980fee5db66f
f 86/100/25 81/99/25 82/98/25 85/97/25
f 87/104/26 84/103/26 83/102/26 88/101/26
o leafSeg1SE
v 0.5801335302858937 0.4240680304486784 0.9512953458450278
v 0.7408304327075281 0.8070902520081674 1.2296305454582375
v 0.5801335302858937 0.4240680304486784 0.9512953458450278
v 0.7408304327075281 0.8070902520081674 1.2296305454582375
v 1.0114633713901653 0.8070902520081674 1.073380545458238
v 0.8507664689685308 0.4240680304486784 0.7950453458450281
v 1.0114633713901653 0.8070902520081674 1.073380545458238
v 0.8507664689685308 0.4240680304486784 0.7950453458450281
vt 0.15625 1
vt 0.3125 1
vt 0.3125 0.5
vt 0.15625 0.5
vt 0.3125 0.5
vt 0.15625 0.5
vt 0.15625 1
vt 0.3125 1
vn -0.3830222215594883 0.6427876096865391 -0.663413948168939
vn 0.3830222215594883 -0.6427876096865391 0.663413948168939
usemtl m_9832a1ae-ddec-2b71-f41f-980fee5db66f
f 94/108/27 89/107/27 90/106/27 93/105/27
f 95/112/28 92/111/28 91/110/28 96/109/28
o leafSeg2SE
v 0.3886224195061494 0.10267422560540873 0.6195883717605585
v 0.5801335302858937 0.4240680304486784 0.9512953458450277
v 0.3886224195061494 0.10267422560540873 0.6195883717605585
v 0.5801335302858937 0.4240680304486784 0.9512953458450277
v 0.8507664689685308 0.4240680304486784 0.7950453458450281
v 0.6592553581887867 0.1026742256054087 0.4633383717605588
v 0.8507664689685308 0.4240680304486784 0.7950453458450281
v 0.6592553581887867 0.1026742256054087 0.4633383717605588
vt 0.15625 0.5
vt 0.3125 0.5
vt 0.3125 0
vt 0.15625 0
vt 0.3125 0
vt 0.15625 0
vt 0.15625 0.5
vt 0.3125 0.5
vn -0.3213938048432691 0.7660444431189781 -0.5566703992264199
vn 0.3213938048432691 -0.7660444431189781 0.5566703992264199
usemtl m_9832a1ae-ddec-2b71-f41f-980fee5db66f
f 102/116/29 97/115/29 98/114/29 101/113/29
f 103/120/30 100/119/30 99/118/30 104/117/30
o stem1
v 0.5720522433888963 0.6037036414306677 0.38308809515945375
v 0.5876772433888963 0.5875274511117601 0.32477480129119
v 0.538558594335006 0.12074072828613354 0.5080880951594537
v 0.554183594335006 0.10456453796722599 0.44977480129119
v 0.5273068792458295 0.5875274511117601 0.30859861097228247
v 0.5116818792458295 0.6037036414306677 0.3669119048405462
v 0.49381323019193923 0.10456453796722599 0.43359861097228247
v 0.47818823019193923 0.12074072828613354 0.4919119048405462
vt 0.65625 0.6875
vt 0.6875 0.6875
vt 0.6875 0.1875
vt 0.65625 0.1875
vt 0.6875 0.6875
vt 0.71875 0.6875
vt 0.71875 0.1875
vt 0.6875 0.1875
vt 0.65625 0.6875
vt 0.6875 0.6875
vt 0.6875 0.1875
vt 0.65625 0.1875
vt 0.6875 0.6875
vt 0.71875 0.6875
vt 0.71875 0.1875
vt 0.6875 0.1875
vn 0.24999999999999978 -0.25881904510252074 -0.9330127018922194
vn 0.9659258262890684 4.163336342344337e-17 0.2588190451025205
vn -0.24999999999999978 0.25881904510252074 0.9330127018922194
vn -0.9659258262890684 -4.163336342344337e-17 -0.2588190451025205
usemtl m_9832a1ae-ddec-2b71-f41f-980fee5db66f
f 108/124/31 111/123/31 109/122/31 106/121/31
f 107/128/32 108/127/32 106/126/32 105/125/32
f 112/132/33 107/131/33 105/130/33 110/129/33
f 111/136/34 112/135/34 110/134/34 109/133/34
o flower1
v 0.6251710197954355 0.7406205600357088 0.426327579346625
v 0.6720460197954354 0.6920919890789861 0.2513876977418339
v 0.616797607531963 0.6198798317495752 0.457577579346625
v 0.663672607531963 0.5713512607928526 0.2826376977418339
v 0.49093492736623523 0.6920919890789861 0.20285912678511128
v 0.44405992736623523 0.7406205600357088 0.37779900838990244
v 0.48256151510276263 0.5713512607928525 0.23410912678511128
v 0.4356865151027627 0.6198798317495752 0.40904900838990244
vt 0.46875 0.1875
vt 0.5625 0.1875
vt 0.5625 0.0625
vt 0.46875 0.0625
vt 0.46875 0.1875
vt 0.5625 0.1875
vt 0.5625 0.0625
vt 0.46875 0.0625
vt 0.46875 0.1875
vt 0.5625 0.1875
vt 0.5625 0.0625
vt 0.46875 0.0625
vt 0.46875 0.1875
vt 0.5625 0.1875
vt 0.5625 0.0625
vt 0.46875 0.0625
vt 0.46875 0.375
vt 0.5625 0.375
vt 0.5625 0.1875
vt 0.46875 0.1875
vt 0.5625 0.375
vt 0.65625 0.375
vt 0.65625 0.1875
vt 0.5625 0.1875
vn 0.24999999999999978 -0.25881904510252074 -0.9330127018922194
vn 0.9659258262890684 4.163336342344337e-17 0.2588190451025205
vn -0.24999999999999978 0.25881904510252074 0.9330127018922194
vn -0.9659258262890684 -4.163336342344337e-17 -0.2588190451025205
vn 0.06698729810778058 0.9659258262890683 -0.24999999999999997
vn -0.06698729810778058 -0.9659258262890683 0.24999999999999997
usemtl m_9832a1ae-ddec-2b71-f41f-980fee5db66f
f 116/140/35 119/139/35 117/138/35 114/137/35
f 115/144/36 116/143/36 114/142/36 113/141/36
f 120/148/37 115/147/37 113/146/37 118/145/37
f 119/152/38 120/151/38 118/150/38 117/149/38
f 118/156/39 113/155/39 114/154/39 117/153/39
f 119/160/40 116/159/40 115/158/40 120/157/40
o petals1
v 0.6657296778067661 0.6964263862115495 0.5164420635337963
v 0.743854677806766 0.6155454346170117 0.2248755941924777
v 0.6657296778067661 0.6964263862115495 0.5164420635337963
v 0.743854677806766 0.6155454346170117 0.2248755941924777
v 0.44200285709143217 0.6155454346170117 0.14399464259794004
v 0.3638778570914322 0.6964263862115495 0.4355611119392586
v 0.44200285709143217 0.6155454346170117 0.14399464259794004
v 0.3638778570914322 0.6964263862115495 0.4355611119392586
vt 0.46875 0.1875
vt 0.5625 0.1875
vt 0.5625 0.0625
vt 0.46875 0.0625
vt 0.46875 0.1875
vt 0.5625 0.1875
vt 0.5625 0.0625
vt 0.46875 0.0625
vt 0.46875 0.1875
vt 0.5625 0.1875
vt 0.5625 0.0625
vt 0.46875 0.0625
vt 0.46875 0.1875
vt 0.5625 0.1875
vt 0.5625 0.0625
vt 0.46875 0.0625
vt 0.59375 1
vt 0.75 1
vt 0.75 0.6875
vt 0.59375 0.6875
vt 0.59375 0.6875
vt 0.75 0.6875
vt 0.75 1
vt 0.59375 1
vn 0.24999999999999978 -0.25881904510252074 -0.9330127018922194
vn 0.9659258262890684 4.163336342344337e-17 0.2588190451025205
vn -0.24999999999999978 0.25881904510252074 0.9330127018922194
vn -0.9659258262890684 -4.163336342344337e-17 -0.2588190451025205
vn 0.06698729810778058 0.9659258262890683 -0.24999999999999997
vn -0.06698729810778058 -0.9659258262890683 0.24999999999999997
usemtl m_9832a1ae-ddec-2b71-f41f-980fee5db66f
f 124/164/41 127/163/41 125/162/41 122/161/41
f 123/168/42 124/167/42 122/166/42 121/165/42
f 128/172/43 123/171/43 121/170/43 126/169/43
f 127/176/44 128/175/44 126/174/44 125/173/44
f 126/180/45 121/179/45 122/178/45 125/177/45
f 127/184/46 124/183/46 123/182/46 128/181/46
o stem2
v 0.4281759145126064 0.6726850044499584 0.6640263775348084
v 0.45868516473510434 0.6862124803210898 0.61118280604861
v 0.49581329386826367 0.0625 0.546875
v 0.5263225440907616 0.07602747587113143 0.49403142851380155
v 0.404558576998577 0.6862124803210898 0.57993280604861
v 0.374049326776079 0.6726850044499584 0.6327763775348083
v 0.4721959563542343 0.07602747587113143 0.4627814285138015
v 0.4416867061317363 0.0625 0.5156249999999999
vt 0.53125 1
vt 0.5625 1
vt 0.5625 0.375
vt 0.53125 0.375
vt 0.5625 1
vt 0.59375 1
vt 0.59375 0.375
vt 0.5625 0.375
vt 0.53125 1
vt 0.5625 1
vt 0.5625 0.375
vt 0.53125 0.375
vt 0.5625 1
vt 0.59375 1
vt 0.59375 0.375
vt 0.5625 0.375
vn 0.4881480035599677 0.21643961393810293 -0.845497143779175
vn 0.8660254037844382 -1.3877787807814457e-17 0.500000000000001
vn -0.4881480035599677 -0.21643961393810293 0.845497143779175
vn -0.8660254037844382 1.3877787807814457e-17 -0.500000000000001
usemtl m_9832a1ae-ddec-2b71-f41f-980fee5db66f
f 132/188/47 135/187/47 133/186/47 130/185/47
f 131/192/48 132/191/48 130/190/48 129/189/48
f 136/196/49 131/195/49 129/194/49 134/193/49
f 135/200/50 136/199/50 134/198/50 133/197/50
o flower2
v 0.4382657761555044 0.7811945294688186 0.7715502245279686
v 0.5297935268229983 0.8217769570822129 0.6130195100693734
v 0.45179325202663584 0.6591575285788269 0.748119949021007
v 0.5433210026941298 0.6997399561922213 0.5895892345624116
v 0.36741376361341616 0.8217769570822129 0.5192695100693732
v 0.2758860129459222 0.7811945294688186 0.6778002245279685
v 0.3809412394845476 0.6997399561922213 0.49583923456241147
v 0.28941348881705364 0.6591575285788269 0.6543699490210068
vt 0.46875 0.1875
vt 0.5625 0.1875
vt 0.5625 0.0625
vt 0.46875 0.0625
vt 0.46875 0.1875
vt 0.5625 0.1875
vt 0.5625 0.0625
vt 0.46875 0.0625
vt 0.46875 0.1875
vt 0.5625 0.1875
vt 0.5625 0.0625
vt 0.46875 0.0625
vt 0.46875 0.1875
vt 0.5625 0.1875
vt 0.5625 0.0625
vt 0.46875 0.0625
vt 0.46875 0.375
vt 0.5625 0.375
vt 0.5625 0.1875
vt 0.46875 0.1875
vt 0.5625 0.375
vt 0.65625 0.375
vt 0.65625 0.1875
vt 0.5625 0.1875
vn 0.4881480035599677 0.21643961393810293 -0.845497143779175
vn 0.8660254037844382 -1.3877787807814457e-17 0.500000000000001
vn -0.4881480035599677 -0.21643961393810293 0.845497143779175
vn -0.8660254037844382 1.3877787807814457e-17 -0.500000000000001
vn -0.10821980696905166 0.9762960071199333 0.18744220405569348
vn 0.10821980696905166 -0.9762960071199333 -0.18744220405569348
usemtl m_9832a1ae-ddec-2b71-f41f-980fee5db66f
f 140/204/51 143/203/51 141/202/51 138/201/51
f 139/208/52 140/207/52 138/206/52 137/205/52
f 144/212/53 139/211/53 137/210/53 142/209/53
f 143/216/54 144/215/54 142/214/54 141/213/54
f 142/220/55 137/219/55 138/218/55 141/217/55
f 143/224/56 140/223/56 139/222/56 144/221/56
o petals2
v 0.4686468516050995 0.7066485531526914 0.8439286582606863
v 0.6211931027175894 0.7742859325083485 0.5797108008296942
v 0.4686468516050995 0.7066485531526914 0.8439286582606863
v 0.6211931027175894 0.7742859325083485 0.5797108008296942
v 0.35056016403495244 0.7742859325083485 0.42346080082969384
v 0.19801391292246256 0.7066485531526914 0.687678658260686
v 0.35056016403495244 0.7742859325083485 0.42346080082969384
v 0.19801391292246256 0.7066485531526914 0.687678658260686
vt 0.46875 0.1875
vt 0.5625 0.1875
vt 0.5625 0.0625
vt 0.46875 0.0625
vt 0.46875 0.1875
vt 0.5625 0.1875
vt 0.5625 0.0625
vt 0.46875 0.0625
vt 0.46875 0.1875
vt 0.5625 0.1875
vt 0.5625 0.0625
vt 0.46875 0.0625
vt 0.46875 0.1875
vt 0.5625 0.1875
vt 0.5625 0.0625
vt 0.46875 0.0625
vt 0.59375 1
vt 0.75 1
vt 0.75 0.6875
vt 0.59375 0.6875
vt 0.59375 0.6875
vt 0.75 0.6875
vt 0.75 1
vt 0.59375 1
vn 0.4881480035599677 0.21643961393810293 -0.845497143779175
vn 0.8660254037844382 -1.3877787807814457e-17 0.500000000000001
vn -0.4881480035599677 -0.21643961393810293 0.845497143779175
vn -0.8660254037844382 1.3877787807814457e-17 -0.500000000000001
vn -0.10821980696905166 0.9762960071199333 0.18744220405569348
vn 0.10821980696905166 -0.9762960071199333 -0.18744220405569348
usemtl m_9832a1ae-ddec-2b71-f41f-980fee5db66f
f 148/228/57 151/227/57 149/226/57 146/225/57
f 147/232/58 148/231/58 146/230/58 145/229/58
f 152/236/59 147/235/59 145/234/59 150/233/59
f 151/240/60 152/239/60 150/238/60 149/237/60
f 150/244/61 145/243/61 146/242/61 149/241/61
f 151/248/62 148/247/62 147/246/62 152/245/62