# Made in Blockbench 4.12.2
mtllib ruined_machine_screen_cracked.mtl

o RuinedMachine1
v 0.9999999999999999 0.4375 0
v 0.9999999999999999 0.75 0.3125
v 1 0.75 1
v 1 0.4375 1
v 0.8749999999999999 0.75 0.3125
v 0.875 0.75 1
v 0.8749999999999999 0.4375 0
v 0 0.4375 1.0000000000000002
v 0 0.75 1.0000000000000002
v 0 0.75 0.3125000000000001
v -2.220446049250313e-16 0.4375 1.1102230246251565e-16
v 0.12499999999999989 0.4375 1.1102230246251565e-16
v 0.12499999999999989 0.75 0.3125000000000001
v 0.125 0.75 1
v 0.125 0.4375 1
v 0 0 1.0000000000000002
v 0 0.4375 1.0000000000000002
v -2.220446049250313e-16 0.4375 1.1102230246251565e-16
v -2.220446049250313e-16 0 1.1102230246251565e-16
v 0.9999999999999999 0 0
v 0.9999999999999999 0.4375 0
v 1 0.4375 1
v 1 0 1
v 0.125 0.75 0.6250000000000001
v 0.125 0.75 0.7500000000000001
v 0.875 0.75 0.75
v 0.875 0.75 0.625
v 0.125 0.4375 0.6250000000000001
v 0.875 0.4375 0.625
v 0.75 0.4375 1
v 0.75 0.75 1
v 0.75 0.75 0.75
v 0.75 0.4375 0.75
v 0.875 0.75 1
v 0.875 0.75 0.75
v 0.25 0.4375 0.7500000000000001
v 0.25 0.75 0.7500000000000001
v 0.25 0.75 1
v 0.25 0.4375 1
v 0.125 0.75 0.7500000000000001
v 0.125 0.75 1
v 0.375 0.4375 1
v 0.375 0.75 1
v 0.375 0.75 0.7500000000000001
v 0.375 0.4375 0.7500000000000001
v 0.625 0.4375 0.75
v 0.625 0.75 0.75
v 0.625 0.75 1
v 0.625 0.4375 1
v 0.875 0.4375 1
v 0.12499999999999989 0.6875 0.3125000000000001
v 0.125 0.6875 0.6250000000000001
v 0.875 0.6875 0.625
v 0.8749999999999999 0.6875 0.3125
v 0.12499999999999989 0.4375 0.06250000000000011
v 0.8749999999999999 0.4375 0.0625
vt 0.5 0.921875
vt 0.421875 1
vt 0.25 1
vt 0.25 0.921875
vt 0.53125 0.640625
vt 0.53125 0.8125
vt 0.5 0.8125
vt 0.5 0.640625
vt 0.28125 0.5625
vt 0.28125 0.671875
vt 0.25 0.671875
vt 0.25 0.5625
vt 0.25 0.921875
vt 0.25 1
vt 0.078125 1
vt 0 0.921875
vt 0.5 0.921875
vt 0.421875 1
vt 0.25 1
vt 0.25 0.921875
vt 0.75 0.640625
vt 0.75 0.8125
vt 0.71875 0.8125
vt 0.71875 0.640625
vt 0.5 0.5625
vt 0.5 0.671875
vt 0.46875 0.671875
vt 0.46875 0.5625
vt 0.25 0.8125
vt 0.25 0.921875
vt 0 0.921875
vt 0 0.8125
vt 0.5 0.8125
vt 0.5 0.921875
vt 0.25 0.921875
vt 0.25 0.8125
vt 0.25 0.453125
vt 0.25 0.703125
vt 0 0.703125
vt 0 0.453125
vt 0.25 0.703125
vt 0.25 0.8125
vt 0 0.8125
vt 0 0.703125
vt 0.75 0.8125
vt 0.75 0.921875
vt 0.5 0.921875
vt 0.5 0.8125
vt 0.71875 0.71875
vt 0.71875 0.75
vt 0.53125 0.75
vt 0.53125 0.71875
vt 0.21875 0.609375
vt 0.21875 0.6875
vt 0.03125 0.6875
vt 0.03125 0.609375
vt 0.65625 0.640625
vt 0.65625 0.71875
vt 0.59375 0.71875
vt 0.59375 0.640625
vt 0.5625 0.75
vt 0.5625 0.8125
vt 0.53125 0.8125
vt 0.53125 0.75
vt 0.59375 0.640625
vt 0.59375 0.71875
vt 0.53125 0.71875
vt 0.53125 0.640625
vt 0.71875 0.75
vt 0.71875 0.8125
vt 0.6875 0.8125
vt 0.6875 0.75
vt 0.65625 0.640625
vt 0.65625 0.71875
vt 0.59375 0.71875
vt 0.59375 0.640625
vt 0.59375 0.640625
vt 0.59375 0.71875
vt 0.53125 0.71875
vt 0.53125 0.640625
vt 0.65625 0.75
vt 0.65625 0.8125
vt 0.59375 0.8125
vt 0.59375 0.75
vt 0.65625 0.921875
vt 0.65625 1
vt 0.59375 1
vt 0.59375 0.921875
vt 0.25 0.921875
vt 0.25 1
vt 0.078125 1
vt 0 0.921875
vt 0.5625 1
vt 0.5 1
vt 0.5 0.921875
vt 0.5625 0.921875
vt 0.75 1
vt 0.6875 1
vt 0.6875 0.921875
vt 0.75 0.921875
vt 0.28125 0.8125
vt 0.28125 0.5625
vt 0.46875 0.5625
vt 0.46875 0.8125
vt 0.7578125 1
vt 0.7578125 0.8999515625
vt 0.7890625 0.8999515625
vt 0.7890625 1
vt 0.7578125 1
vt 0.7578125 0.8999515625
vt 0.7890625 0.8999515625
vt 0.7890625 1
vt 0.1875 0.203125
vt 0.1875 0.28125
vt 0 0.28125
vt 0 0.203125
vt 0.1875 0.1147359375
vt 0.1875 0.203125
vt 0 0.203125
vt 0 0.1147359375
vn 1 0 -1.2246467991473532e-16
vn 0 1 0
vn -8.659560562354934e-17 0.7071067811865476 -0.7071067811865476
vn -1 0 1.2246467991473532e-16
vn 1 0 -1.2246467991473532e-16
vn 0 1 0
vn -8.659560562354934e-17 0.7071067811865476 -0.7071067811865476
vn -1 0 1.2246467991473532e-16
vn 1 0 -1.2246467991473532e-16
vn 0 -1 0
vn -1.2246467991473532e-16 0 -1
vn 1.2246467991473532e-16 0 1
vn 0 1 0
vn -1.2246467991473532e-16 0 -1
vn -1 0 1.2246467991473532e-16
vn 0 1 0
vn 1 0 -1.2246467991473532e-16
vn 0 1 0
vn -1 0 1.2246467991473532e-16
vn 1 0 -1.2246467991473532e-16
vn 0 1 0
vn 1.2246467991473532e-16 0 1
vn -1 0 1.2246467991473532e-16
vn 1.2246467991473532e-16 0 1
vn 1.2246467991473532e-16 0 1
vn 0 -1 0
vn 9.562884880384116e-17 0.6246950475544243 0.7808688094430304
vn 9.562884880384116e-17 0.6246950475544243 0.7808688094430304
vn 0 1 0
vn -8.659560562354934e-17 0.7071067811865476 -0.7071067811865476
usemtl m_e02335ae-6f69-64bc-50ad-6de131577581
f 1/1/1 2/2/1 3/3/1 4/4/1
f 5/5/2 6/6/2 3/7/2 2/8/2
f 7/9/3 5/10/3 2/11/3 1/12/3
f 8/13/4 9/14/4 10/15/4 11/16/4
f 12/17/5 13/18/5 14/19/5 15/20/5
f 10/21/6 9/22/6 14/23/6 13/24/6
f 11/25/7 10/26/7 13/27/7 12/28/7
f 16/29/8 17/30/8 18/31/8 19/32/8
f 20/33/9 21/34/9 22/35/9 23/36/9
f 16/37/10 19/38/10 20/39/10 23/40/10
f 19/41/11 18/42/11 21/43/11 20/44/11
f 23/45/12 22/46/12 17/47/12 16/48/12
f 24/49/13 25/50/13 26/51/13 27/52/13
f 28/53/14 24/54/14 27/55/14 29/56/14
f 30/57/15 31/58/15 32/59/15 33/60/15
f 32/61/16 31/62/16 34/63/16 35/64/16
f 36/65/17 37/66/17 38/67/17 39/68/17
f 40/69/18 41/70/18 38/71/18 37/72/18
f 42/73/19 43/74/19 44/75/19 45/76/19
f 46/77/20 47/78/20 48/79/20 49/80/20
f 44/81/21 43/82/21 48/83/21 47/84/21
f 49/85/22 48/86/22 43/87/22 42/88/22
f 50/89/23 6/90/23 5/91/23 7/92/23
f 38/93/24 9/94/24 8/95/24 39/96/24
f 3/97/25 31/98/25 30/99/25 4/100/25
f 7/101/26 50/102/26 15/103/26 12/104/26
f 37/105/27 39/106/27 42/107/27 44/108/27
f 47/109/28 49/110/28 30/111/28 32/112/28
f 51/113/29 52/114/29 53/115/29 54/116/29
f 55/117/30 51/118/30 54/119/30 56/120/30