# Made in Blockbench 4.12.2
mtllib ruined_machine_switch.mtl

o RuinedMachine1
v 0.9999999999999999 0.4375 0
v 0.9999999999999999 0.75 0.3125
v 1 0.75 1
v 1 0.4375 1
v 0 0.4375 1.0000000000000002
v 0 0.75 1.0000000000000002
v 0 0.75 0.3125000000000001
v -2.220446049250313e-16 0.4375 1.1102230246251565e-16
v 0.125 0.75 1
v 0.12499999999999989 0.75 0.3125000000000001
v 0.12499999999999989 0.4375 1.1102230246251565e-16
v 0 0 1.0000000000000002
v 0 0.4375 1.0000000000000002
v -2.220446049250313e-16 0.4375 1.1102230246251565e-16
v -2.220446049250313e-16 0 1.1102230246251565e-16
v 0.9999999999999999 0 0
v 0.9999999999999999 0.4375 0
v 1 0.4375 1
v 1 0 1
v 0.75 0.4375 1
v 0.75 0.75 1
v 0.75 0.75 0.75
v 0.75 0.4375 0.75
v 0.875 0.75 1
v 0.875 0.75 0.75
v 0.25 0.4375 0.7500000000000001
v 0.25 0.75 0.7500000000000001
v 0.25 0.75 1
v 0.25 0.4375 1
v 0.375 0.4375 1
v 0.375 0.75 1
v 0.375 0.75 0.7500000000000001
v 0.375 0.4375 0.7500000000000001
v 0.625 0.4375 0.75
v 0.625 0.75 0.75
v 0.625 0.75 1
v 0.625 0.4375 1
v 0.8749999999999999 0.75 0.3125
v 0.875 0.75 1
v 0.8749999999999999 0.4375 0
v 0.125 0.75 0.7500000000000001
v 0.125 0.75 1
vt 0.5 0.921875
vt 0.421875 1
vt 0.25 1
vt 0.25 0.921875
vt 0.25 0.921875
vt 0.25 1
vt 0.078125 1
vt 0 0.921875
vt 0.75 0.640625
vt 0.75 0.8125
vt 0.71875 0.8125
vt 0.71875 0.640625
vt 0.5 0.5625
vt 0.5 0.671875
vt 0.46875 0.671875
vt 0.46875 0.5625
vt 0.25 0.8125
vt 0.25 0.921875
vt 0 0.921875
vt 0 0.8125
vt 0.5 0.8125
vt 0.5 0.921875
vt 0.25 0.921875
vt 0.25 0.8125
vt 0.25 0.453125
vt 0.25 0.703125
vt 0 0.703125
vt 0 0.453125
vt 0.25 0.703125
vt 0.25 0.8125
vt 0 0.8125
vt 0 0.703125
vt 0.75 0.8125
vt 0.75 0.921875
vt 0.5 0.921875
vt 0.5 0.8125
vt 0.65625 0.640625
vt 0.65625 0.71875
vt 0.59375 0.71875
vt 0.59375 0.640625
vt 0.5625 0.75
vt 0.5625 0.8125
vt 0.53125 0.8125
vt 0.53125 0.75
vt 0.59375 0.640625
vt 0.59375 0.71875
vt 0.53125 0.71875
vt 0.53125 0.640625
vt 0.65625 0.640625
vt 0.65625 0.71875
vt 0.59375 0.71875
vt 0.59375 0.640625
vt 0.59375 0.640625
vt 0.59375 0.71875
vt 0.53125 0.71875
vt 0.53125 0.640625
vt 0.65625 0.921875
vt 0.65625 1
vt 0.59375 1
vt 0.59375 0.921875
vt 0.75 1
vt 0.6875 1
vt 0.6875 0.921875
vt 0.75 0.921875
vt 0.7578125 1
vt 0.7578125 0.8999515625
vt 0.7890625 0.8999515625
vt 0.7890625 1
vt 0.7578125 1
vt 0.7578125 0.8999515625
vt 0.7890625 0.8999515625
vt 0.7890625 1
vt 0.53125 0.640625
vt 0.53125 0.8125
vt 0.5 0.8125
vt 0.5 0.640625
vt 0.28125 0.5625
vt 0.28125 0.671875
vt 0.25 0.671875
vt 0.25 0.5625
vt 0.9375 0.78125
vt 0.75 0.78125
vt 0.75 0.671875
vt 0.9375 0.671875
vt 0.5625 1
vt 0.5 1
vt 0.5 0.921875
vt 0.5625 0.921875
vt 0.71875 0.75
vt 0.71875 0.8125
vt 0.6875 0.8125
vt 0.6875 0.75
vt 0.65625 0.75
vt 0.65625 0.8125
vt 0.59375 0.8125
vt 0.59375 0.75
vt 0.75 0.890625
vt 0.75 0.78125
vt 0.9375 0.78125
vt 0.9375 0.890625
vn 1 0 -1.2246467991473532e-16
vn -1 0 1.2246467991473532e-16
vn 0 1 0
vn -8.659560562354934e-17 0.7071067811865476 -0.7071067811865476
vn -1 0 1.2246467991473532e-16
vn 1 0 -1.2246467991473532e-16
vn 0 -1 0
vn -1.2246467991473532e-16 0 -1
vn 1.2246467991473532e-16 0 1
vn -1 0 1.2246467991473532e-16
vn 0 1 0
vn 1 0 -1.2246467991473532e-16
vn -1 0 1.2246467991473532e-16
vn 1 0 -1.2246467991473532e-16
vn 1.2246467991473532e-16 0 1
vn 1.2246467991473532e-16 0 1
vn 9.562884880384116e-17 0.6246950475544243 0.7808688094430304
vn 9.562884880384116e-17 0.6246950475544243 0.7808688094430304
vn 0 1 0
vn -8.659560562354934e-17 0.7071067811865476 -0.7071067811865476
vn -8.659560562354934e-17 0.7071067811865476 -0.7071067811865476
vn 1.2246467991473532e-16 0 1
vn 0 1 0
vn 0 1 0
vn 0 1 0
usemtl m_bbf1445e-e6cc-b081-5b5c-9c0bee33c672
f 1/1/1 2/2/1 3/3/1 4/4/1
f 5/5/2 6/6/2 7/7/2 8/8/2
f 7/9/3 6/10/3 9/11/3 10/12/3
f 8/13/4 7/14/4 10/15/4 11/16/4
f 12/17/5 13/18/5 14/19/5 15/20/5
f 16/21/6 17/22/6 18/23/6 19/24/6
f 12/25/7 15/26/7 16/27/7 19/28/7
f 15/29/8 14/30/8 17/31/8 16/32/8
f 19/33/9 18/34/9 13/35/9 12/36/9
f 20/37/10 21/38/10 22/39/10 23/40/10
f 22/41/11 21/42/11 24/43/11 25/44/11
f 26/45/12 27/46/12 28/47/12 29/48/12
f 30/49/13 31/50/13 32/51/13 33/52/13
f 34/53/14 35/54/14 36/55/14 37/56/14
f 37/57/15 36/58/15 31/59/15 30/60/15
f 3/61/16 21/62/16 20/63/16 4/64/16
f 27/65/17 29/66/17 30/67/17 32/68/17
f 35/69/18 37/70/18 20/71/18 22/72/18
f 38/73/19 39/74/19 3/75/19 2/76/19
f 40/77/20 38/78/20 2/79/20 1/80/20
f 10/81/21 38/82/21 40/83/21 11/84/21
f 28/85/22 6/86/22 5/87/22 29/88/22
f 41/89/23 42/90/23 28/91/23 27/92/23
f 32/93/24 31/94/24 36/95/24 35/96/24
f 25/97/25 38/98/25 10/99/25 41/100/25
o switch
v 0.59375 0.5356756303964263 0.3587486842623955
v 0.5937499999999999 0.9582681793978937 0.2455153520300426
v 0.5937499999999999 0.9259157987600787 0.12477462374390913
v 0.5937499999999999 0.5033232497586112 0.238007955976262
v 0.6562499999999999 0.5033232497586112 0.238007955976262
v 0.6562499999999999 0.9259157987600787 0.12477462374390913
v 0.6562499999999999 0.9582681793978937 0.2455153520300426
v 0.65625 0.5356756303964263 0.3587486842623955
v 0.3437499999999999 0.5356756303964263 0.3587486842623956
v 0.3437499999999999 0.9582681793978937 0.2455153520300427
v 0.3437499999999999 0.9259157987600787 0.12477462374390924
v 0.3437499999999999 0.5033232497586113 0.23800795597626212
v 0.4062499999999999 0.5033232497586113 0.23800795597626212
v 0.4062499999999999 0.9259157987600787 0.12477462374390924
v 0.4062499999999999 0.9582681793978937 0.2455153520300427
v 0.4062499999999999 0.5356756303964263 0.3587486842623956
v 0.2499999999999999 0.9582681793978937 0.2455153520300427
v 0.2499999999999999 1.0790089076840272 0.21316297139222762
v 0.2499999999999999 1.046656527046212 0.09242224310609404
v 0.2499999999999999 0.9259157987600787 0.12477462374390924
v 0.7499999999999999 0.9259157987600787 0.12477462374390913
v 0.7499999999999999 1.046656527046212 0.09242224310609393
v 0.7499999999999999 1.0790089076840272 0.2131629713922275
v 0.7499999999999999 0.9582681793978937 0.2455153520300426
v 0.3749999999999999 1.0790089076840272 0.21316297139222762
v 0.3749999999999999 1.2601200001132276 0.16463440043550503
v 0.3749999999999999 1.2277676194754124 0.043893672149371565
v 0.3749999999999999 1.046656527046212 0.09242224310609404
v 0.6249999999999999 1.046656527046212 0.09242224310609393
v 0.6249999999999999 1.2277676194754124 0.043893672149371454
v 0.6249999999999999 1.2601200001132276 0.16463440043550492
v 0.6249999999999999 1.0790089076840272 0.2131629713922275
vt 0.828125 0.890625
vt 0.828125 1
vt 0.796875 1
vt 0.796875 0.890625
vt 0.890625 0.890625
vt 0.890625 1
vt 0.859375 1
vt 0.859375 0.890625
vt 0.8125 0.890625
vt 0.8125 1
vt 0.796875 1
vt 0.796875 0.890625
vt 0.890625 0.890625
vt 0.890625 1
vt 0.875 1
vt 0.875 0.890625
vt 0.859375 0.890625
vt 0.859375 1
vt 0.828125 1
vt 0.828125 0.890625
vt 0.828125 0.890625
vt 0.828125 1
vt 0.796875 1
vt 0.796875 0.890625
vt 0.875 0.890625
vt 0.875 1
vt 0.859375 1
vt 0.859375 0.890625
vt 0.859375 0.890625
vt 0.859375 1
vt 0.84375 1
vt 0.84375 0.890625
vt 0.1875 0.453125
vt 0.1875 0.484375
vt 0.15625 0.484375
vt 0.15625 0.453125
vt 0.09375 0.453125
vt 0.09375 0.484375
vt 0.0625 0.484375
vt 0.0625 0.453125
vt 0.1875 0.484375
vt 0.1875 0.515625
vt 0.0625 0.515625
vt 0.0625 0.484375
vt 0.1875 0.5625
vt 0.1875 0.59375
vt 0.0625 0.59375
vt 0.0625 0.5625
vt 0.1875 0.453125
vt 0.1875 0.484375
vt 0.0625 0.484375
vt 0.0625 0.453125
vt 0.1875 0.453125
vt 0.1875 0.484375
vt 0.0625 0.484375
vt 0.0625 0.453125
vt 0.1875 0.484375
vt 0.1875 0.53125
vt 0.15625 0.53125
vt 0.15625 0.484375
vt 0.09375 0.484375
vt 0.09375 0.53125
vt 0.0625 0.53125
vt 0.0625 0.484375
vt 0.15625 0.53125
vt 0.15625 0.5625
vt 0.09375 0.5625
vt 0.09375 0.53125
vt 0.15625 0.484375
vt 0.15625 0.53125
vt 0.09375 0.53125
vt 0.09375 0.484375
vt 0.15625 0.484375
vt 0.15625 0.53125
vt 0.09375 0.53125
vt 0.09375 0.484375
vn -1 0 1.2246467991473532e-16
vn 1 0 -1.2246467991473532e-16
vn -1.1829179713786698e-16 -0.2588190451025208 -0.9659258262890683
vn 1.1829179713786698e-16 0.25881904510252085 0.9659258262890683
vn -1 0 1.2246467991473532e-16
vn 1 0 -1.2246467991473532e-16
vn -1.1829179713786698e-16 -0.25881904510252085 -0.9659258262890683
vn 1.1829179713786698e-16 0.25881904510252085 0.9659258262890683
vn -1 0 1.2246467991473532e-16
vn 1 0 -1.2246467991473532e-16
vn -3.169619151431774e-17 0.9659258262890682 -0.2588190451025215
vn 3.1696191514317563e-17 -0.9659258262890685 0.2588190451025201
vn -1.1829179713786693e-16 -0.2588190451025219 -0.965925826289068
vn 1.1829179713786698e-16 0.2588190451025207 0.9659258262890684
vn -1 0 1.2246467991473532e-16
vn 1 0 -1.2246467991473532e-16
vn -3.1696191514317767e-17 0.9659258262890681 -0.25881904510252174
vn -1.18291797137867e-16 -0.2588190451025199 -0.9659258262890685
vn 1.18291797137867e-16 0.2588190451025205 0.9659258262890685
usemtl m_bbf1445e-e6cc-b081-5b5c-9c0bee33c672
f 43/101/26 44/102/26 45/103/26 46/104/26
f 47/105/27 48/106/27 49/107/27 50/108/27
f 46/109/28 45/110/28 48/111/28 47/112/28
f 50/113/29 49/114/29 44/115/29 43/116/29
f 51/117/30 52/118/30 53/119/30 54/120/30
f 55/121/31 56/122/31 57/123/31 58/124/31
f 54/125/32 53/126/32 56/127/32 55/128/32
f 58/129/33 57/130/33 52/131/33 51/132/33
f 59/133/34 60/134/34 61/135/34 62/136/34
f 63/137/35 64/138/35 65/139/35 66/140/35
f 61/141/36 60/142/36 65/143/36 64/144/36
f 59/145/37 62/146/37 63/147/37 66/148/37
f 62/149/38 61/150/38 64/151/38 63/152/38
f 66/153/39 65/154/39 60/155/39 59/156/39
f 67/157/40 68/158/40 69/159/40 70/160/40
f 71/161/41 72/162/41 73/163/41 74/164/41
f 69/165/42 68/166/42 73/167/42 72/168/42
f 70/169/43 69/170/43 72/171/43 71/172/43
f 74/173/44 73/174/44 68/175/44 67/176/44