# Made in Blockbench 4.10.4
mtllib ruined_machine_buttons.mtl

o button1
v 0.5 0.8125 0.6875
v 0.5 0.8125 0.5625
v 0.5 0.75 0.6875
v 0.5 0.75 0.5625
v 0.375 0.8125 0.5625
v 0.375 0.8125 0.6875
v 0.375 0.75 0.5625
v 0.375 0.75 0.6875
vt 0.8125 0.578125
vt 0.84375 0.578125
vt 0.84375 0.5625
vt 0.8125 0.5625
vt 0.8125 0.59375
vt 0.84375 0.59375
vt 0.84375 0.578125
vt 0.8125 0.578125
vt 0.8125 0.578125
vt 0.84375 0.578125
vt 0.84375 0.5625
vt 0.8125 0.5625
vt 0.8125 0.59375
vt 0.84375 0.59375
vt 0.84375 0.578125
vt 0.8125 0.578125
vt 0.8125 0.59375
vt 0.84375 0.59375
vt 0.84375 0.5625
vt 0.8125 0.5625
vn 0 0 -1
vn 1 0 0
vn 0 0 1
vn -1 0 0
vn 0 1 0
usemtl m_9627035a-a988-ef0b-e6ec-b0e6f3cd31ae
f 4/4/1 7/3/1 5/2/1 2/1/1
f 3/8/2 4/7/2 2/6/2 1/5/2
f 8/12/3 3/11/3 1/10/3 6/9/3
f 7/16/4 8/15/4 6/14/4 5/13/4
f 6/20/5 1/19/5 2/18/5 5/17/5
o button3
v 0.5 0.6169822330470336 0.9089061146012849
v 0.5 0.7053705806953521 0.8205177669529664
v 0.5 0.5727880592228742 0.8647119407771258
v 0.5 0.661176406871193 0.776323593128807
v 0.375 0.7053705806953521 0.8205177669529664
v 0.375 0.6169822330470336 0.9089061146012849
v 0.375 0.661176406871193 0.776323593128807
v 0.375 0.5727880592228742 0.8647119407771258
vt 0.8125 0.578125
vt 0.84375 0.578125
vt 0.84375 0.5625
vt 0.8125 0.5625
vt 0.8125 0.59375
vt 0.84375 0.59375
vt 0.84375 0.578125
vt 0.8125 0.578125
vt 0.8125 0.578125
vt 0.84375 0.578125
vt 0.84375 0.5625
vt 0.8125 0.5625
vt 0.8125 0.59375
vt 0.84375 0.59375
vt 0.84375 0.578125
vt 0.8125 0.578125
vt 0.8125 0.59375
vt 0.84375 0.59375
vt 0.84375 0.5625
vt 0.8125 0.5625
vn 0 0.7071067811865476 -0.7071067811865475
vn 1 0 0
vn 0 -0.7071067811865476 0.7071067811865475
vn -1 0 0
vn 0 0.7071067811865475 0.7071067811865476
usemtl m_9627035a-a988-ef0b-e6ec-b0e6f3cd31ae
f 12/24/6 15/23/6 13/22/6 10/21/6
f 11/28/7 12/27/7 10/26/7 9/25/7
f 16/32/8 11/31/8 9/30/8 14/29/8
f 15/36/9 16/35/9 14/34/9 13/33/9
f 14/40/10 9/39/10 10/38/10 13/37/10
o button2
v 0.5 0.6832734937832723 0.7984206800408868
v 0.5 0.771661841431591 0.7100323323925684
v 0.5 0.6390793199591132 0.7542265062167277
v 0.5 0.7274676676074316 0.665838158568409
v 0.375 0.771661841431591 0.7100323323925684
v 0.375 0.6832734937832723 0.7984206800408868
v 0.375 0.7274676676074316 0.665838158568409
v 0.375 0.6390793199591132 0.7542265062167277
vt 0.8125 0.546875
vt 0.84375 0.546875
vt 0.84375 0.53125
vt 0.8125 0.53125
vt 0.8125 0.5625
vt 0.84375 0.5625
vt 0.84375 0.546875
vt 0.8125 0.546875
vt 0.8125 0.546875
vt 0.84375 0.546875
vt 0.84375 0.53125
vt 0.8125 0.53125
vt 0.8125 0.5625
vt 0.84375 0.5625
vt 0.84375 0.546875
vt 0.8125 0.546875
vt 0.8125 0.5625
vt 0.84375 0.5625
vt 0.84375 0.53125
vt 0.8125 0.53125
vn 0 0.7071067811865476 -0.7071067811865475
vn 1 0 0
vn 0 -0.7071067811865476 0.7071067811865475
vn -1 0 0
vn 0 0.7071067811865475 0.7071067811865476
usemtl m_9627035a-a988-ef0b-e6ec-b0e6f3cd31ae
f 20/44/11 23/43/11 21/42/11 18/41/11
f 19/48/12 20/47/12 18/46/12 17/45/12
f 24/52/13 19/51/13 17/50/13 22/49/13
f 23/56/14 24/55/14 22/54/14 21/53/14
f 22/60/15 17/59/15 18/58/15 21/57/15
o RuinedMachine1
v 0 0.75 0.6875
v 0 0.75 0
v 0 0.4375 1
v 0 0.4375 0
v 1 0.75 0.6875
v 1 0.75 0
v 1 0.4375 1
v 1 0.4375 0
v 0.875 0.75 0.6875
v 0.875 0.75 0
v 0.875 0.4375 1
v 0.875 0.4375 0.375
v 0.125 0.4375 0.375
v 1 0.4375 1
v 1 0.4375 0
v 1 0 1
v 1 0 0
v 0 0.4375 1
v 0 0.4375 0
v 0 0 1
v 0 0 0
v 0.875 0.4375 0.25
v 0.125 0.4375 0.25
v 0.25 0.75 0.25
v 0.25 0.75 0
v 0.25 0.4375 0.25
v 0.25 0.4375 0
v 0.125 0.75 0.25
v 0.125 0.75 0
v 0.125 0.4375 0.25
v 0.125 0.4375 0
v 0.875 0.4375 0.25
v 0.875 0.4375 0
v 0.75 0.75 0.25
v 0.75 0.75 0
v 0.75 0.4375 0.25
v 0.75 0.4375 0
v 0.625 0.75 0.25
v 0.625 0.75 0
v 0.625 0.4375 0.25
v 0.625 0.4375 0
v 0.375 0.75 0.25
v 0.375 0.75 0
v 0.375 0.4375 0.25
v 0.375 0.4375 0
v 0.125 0.75 0.6875
v 0.125 0.75 0
v 0.125 0.4375 1
v 0.875 0.75 0.25
v 0.875 0.75 0
vt 0.5 0.921875
vt 0.421875 1
vt 0.25 1
vt 0.25 0.921875
vt 0.25 0.921875
vt 0.25 1
vt 0.078125 1
vt 0 0.921875
vt 0.75 0.640625
vt 0.75 0.8125
vt 0.71875 0.8125
vt 0.71875 0.640625
vt 0.5 0.5625
vt 0.5 0.671875
vt 0.46875 0.671875
vt 0.46875 0.5625
vt 0.25 0.8125
vt 0.25 0.921875
vt 0 0.921875
vt 0 0.8125
vt 0.5 0.8125
vt 0.5 0.921875
vt 0.25 0.921875
vt 0.25 0.8125
vt 0.25 0.453125
vt 0.25 0.703125
vt 0 0.703125
vt 0 0.453125
vt 0.25 0.703125
vt 0.25 0.8125
vt 0 0.8125
vt 0 0.703125
vt 0.75 0.8125
vt 0.75 0.921875
vt 0.5 0.921875
vt 0.5 0.8125
vt 0.65625 0.640625
vt 0.65625 0.71875
vt 0.59375 0.71875
vt 0.59375 0.640625
vt 0.5625 0.75
vt 0.5625 0.8125
vt 0.53125 0.8125
vt 0.53125 0.75
vt 0.59375 0.640625
vt 0.59375 0.71875
vt 0.53125 0.71875
vt 0.53125 0.640625
vt 0.65625 0.640625
vt 0.65625 0.71875
vt 0.59375 0.71875
vt 0.59375 0.640625
vt 0.59375 0.640625
vt 0.59375 0.71875
vt 0.53125 0.71875
vt 0.53125 0.640625
vt 0.65625 0.921875
vt 0.65625 1
vt 0.59375 1
vt 0.59375 0.921875
vt 0.75 1
vt 0.6875 1
vt 0.6875 0.921875
vt 0.75 0.921875
vt 0.7578125 1
vt 0.7578125 0.8999515625
vt 0.7890625 0.8999515625
vt 0.7890625 1
vt 0.7578125 1
vt 0.7578125 0.8999515625
vt 0.7890625 0.8999515625
vt 0.7890625 1
vt 0.53125 0.640625
vt 0.53125 0.8125
vt 0.5 0.8125
vt 0.5 0.640625
vt 0.28125 0.5625
vt 0.28125 0.671875
vt 0.25 0.671875
vt 0.25 0.5625
vt 0.9375 0.5625
vt 0.75 0.5625
vt 0.75 0.453125
vt 0.9375 0.453125
vt 0.5625 1
vt 0.5 1
vt 0.5 0.921875
vt 0.5625 0.921875
vt 0.71875 0.75
vt 0.71875 0.8125
vt 0.6875 0.8125
vt 0.6875 0.75
vt 0.65625 0.75
vt 0.65625 0.8125
vt 0.59375 0.8125
vt 0.59375 0.75
vt 0.75 0.671875
vt 0.75 0.5625
vt 0.9375 0.5625
vt 0.9375 0.671875
vn -1 0 0
vn 1 0 0
vn 0 1 0
vn 0 0.7071067811865476 0.7071067811865476
vn 1 0 0
vn -1 0 0
vn 0 -1 0
vn 0 0 1
vn 0 0 -1
vn 1 0 0
vn 0 1 0
vn -1 0 0
vn 1 0 0
vn -1 0 0
vn 0 0 -1
vn 0 0 -1
vn 0 0.6246950475544243 -0.7808688094430304
vn 0 0.6246950475544243 -0.7808688094430304
vn 0 1 0
vn 0 0.7071067811865476 0.7071067811865476
vn 0 0.7071067811865476 0.7071067811865476
vn 0 0 -1
vn 0 1 0
vn 0 1 0
vn 0 1 0
usemtl m_9627035a-a988-ef0b-e6ec-b0e6f3cd31ae
f 27/61/16 25/62/16 26/63/16 28/64/16
f 32/65/17 30/66/17 29/67/17 31/68/17
f 29/69/18 30/70/18 34/71/18 33/72/18
f 31/73/19 29/74/19 33/75/19 35/76/19
f 41/77/20 39/78/20 38/79/20 40/80/20
f 44/81/21 42/82/21 43/83/21 45/84/21
f 41/85/22 40/86/22 44/87/22 45/88/22
f 40/89/23 38/90/23 42/91/23 44/92/23
f 45/93/24 43/94/24 39/95/24 41/96/24
f 51/97/25 49/98/25 48/99/25 50/100/25
f 48/101/26 49/102/26 53/103/26 52/104/26
f 60/105/27 58/106/27 59/107/27 61/108/27
f 65/109/28 63/110/28 62/111/28 64/112/28
f 68/113/29 66/114/29 67/115/29 69/116/29
f 69/117/30 67/118/30 63/119/30 65/120/30
f 26/121/31 49/122/31 51/123/31 28/124/31
f 58/125/32 61/126/32 65/127/32 62/128/32
f 66/129/33 69/130/33 51/131/33 48/132/33
f 70/133/34 71/134/34 26/135/34 25/136/34
f 72/137/35 70/138/35 25/139/35 27/140/35
f 33/141/36 70/142/36 72/143/36 35/144/36
f 59/145/37 30/146/37 32/147/37 61/148/37
f 73/149/38 74/150/38 59/151/38 58/152/38
f 62/153/39 63/154/39 67/155/39 66/156/39
f 52/157/40 70/158/40 33/159/40 73/160/40