# Made in Blockbench 4.12.2
mtllib ruined_machine_buttons.mtl

o button1
v 0.4999999999999999 0.75 0.4375000000000001
v 0.625 0.75 0.4375
v 0.625 0.8125 0.4375
v 0.4999999999999999 0.8125 0.4375000000000001
v 0.4999999999999999 0.75 0.3125000000000001
v 0.4999999999999999 0.8125 0.3125000000000001
v 0.6249999999999999 0.75 0.3125
v 0.6249999999999999 0.8125 0.3125
vt 0.8125 0.5625
vt 0.84375 0.5625
vt 0.84375 0.578125
vt 0.8125 0.578125
vt 0.8125 0.578125
vt 0.84375 0.578125
vt 0.84375 0.59375
vt 0.8125 0.59375
vt 0.8125 0.5625
vt 0.84375 0.5625
vt 0.84375 0.578125
vt 0.8125 0.578125
vt 0.8125 0.578125
vt 0.84375 0.578125
vt 0.84375 0.59375
vt 0.8125 0.59375
vt 0.8125 0.5625
vt 0.84375 0.5625
vt 0.84375 0.59375
vt 0.8125 0.59375
vn 1.2246467991473532e-16 0 1
vn -1 0 1.2246467991473532e-16
vn -1.2246467991473532e-16 0 -1
vn 1 0 -1.2246467991473532e-16
vn 0 1 0
usemtl m_8e85b523-5e78-389e-bad4-e3381e144fb3
f 1/1/1 2/2/1 3/3/1 4/4/1
f 5/5/2 1/6/2 4/7/2 6/8/2
f 7/9/3 5/10/3 6/11/3 8/12/3
f 2/13/4 7/14/4 8/15/4 3/16/4
f 8/17/5 6/18/5 4/19/5 3/20/5
o button3
v 0.4999999999999999 0.661176406871193 0.22367640687119306
v 0.6249999999999999 0.661176406871193 0.22367640687119295
v 0.6249999999999999 0.7053705806953521 0.1794822330470336
v 0.4999999999999999 0.7053705806953521 0.1794822330470337
v 0.4999999999999999 0.5727880592228742 0.13528805922287435
v 0.4999999999999999 0.6169822330470336 0.09109388539871521
v 0.6249999999999999 0.5727880592228742 0.13528805922287424
v 0.6249999999999999 0.6169822330470336 0.0910938853987151
vt 0.8125 0.5625
vt 0.84375 0.5625
vt 0.84375 0.578125
vt 0.8125 0.578125
vt 0.8125 0.578125
vt 0.84375 0.578125
vt 0.84375 0.59375
vt 0.8125 0.59375
vt 0.8125 0.5625
vt 0.84375 0.5625
vt 0.84375 0.578125
vt 0.8125 0.578125
vt 0.8125 0.578125
vt 0.84375 0.578125
vt 0.84375 0.59375
vt 0.8125 0.59375
vt 0.8125 0.5625
vt 0.84375 0.5625
vt 0.84375 0.59375
vt 0.8125 0.59375
vn 8.659560562354912e-17 0.7071067811865493 0.7071067811865458
vn -1 0 1.2246467991473532e-16
vn -8.659560562354955e-17 -0.7071067811865458 -0.7071067811865493
vn 1 0 -1.2246467991473532e-16
vn -8.659560562354934e-17 0.7071067811865476 -0.7071067811865476
usemtl m_8e85b523-5e78-389e-bad4-e3381e144fb3
f 9/21/6 10/22/6 11/23/6 12/24/6
f 13/25/7 9/26/7 12/27/7 14/28/7
f 15/29/8 13/30/8 14/31/8 16/32/8
f 10/33/9 15/34/9 16/35/9 11/36/9
f 16/37/10 14/38/10 12/39/10 11/40/10
o button2
v 0.4999999999999999 0.7274676676074316 0.3341618414315911
v 0.625 0.7274676676074316 0.334161841431591
v 0.6249999999999999 0.771661841431591 0.28996766760743165
v 0.4999999999999999 0.771661841431591 0.28996766760743176
v 0.4999999999999999 0.6390793199591132 0.2457734937832724
v 0.4999999999999999 0.6832734937832723 0.20157931995911327
v 0.6249999999999999 0.6390793199591132 0.2457734937832723
v 0.6249999999999999 0.6832734937832723 0.20157931995911316
vt 0.8125 0.53125
vt 0.84375 0.53125
vt 0.84375 0.546875
vt 0.8125 0.546875
vt 0.8125 0.546875
vt 0.84375 0.546875
vt 0.84375 0.5625
vt 0.8125 0.5625
vt 0.8125 0.53125
vt 0.84375 0.53125
vt 0.84375 0.546875
vt 0.8125 0.546875
vt 0.8125 0.546875
vt 0.84375 0.546875
vt 0.84375 0.5625
vt 0.8125 0.5625
vt 0.8125 0.53125
vt 0.84375 0.53125
vt 0.84375 0.5625
vt 0.8125 0.5625
vn 8.659560562354933e-17 0.7071067811865476 0.7071067811865476
vn -1 0 1.2246467991473532e-16
vn -8.659560562354934e-17 -0.7071067811865476 -0.7071067811865476
vn 1 0 -1.2246467991473532e-16
vn -8.659560562354944e-17 0.7071067811865467 -0.7071067811865485
usemtl m_8e85b523-5e78-389e-bad4-e3381e144fb3
f 17/41/11 18/42/11 19/43/11 20/44/11
f 21/45/12 17/46/12 20/47/12 22/48/12
f 23/49/13 21/50/13 22/51/13 24/52/13
f 18/53/14 23/54/14 24/55/14 19/56/14
f 24/57/15 22/58/15 20/59/15 19/60/15
o RuinedMachine1
v 0.9999999999999999 0.4375 0
v 0.9999999999999999 0.75 0.3125
v 1 0.75 1
v 1 0.4375 1
v 0 0.4375 1.0000000000000002
v 0 0.75 1.0000000000000002
v 0 0.75 0.3125000000000001
v -2.220446049250313e-16 0.4375 1.1102230246251565e-16
v 0.125 0.75 1
v 0.12499999999999989 0.75 0.3125000000000001
v 0.12499999999999989 0.4375 1.1102230246251565e-16
v 0 0 1.0000000000000002
v 0 0.4375 1.0000000000000002
v -2.220446049250313e-16 0.4375 1.1102230246251565e-16
v -2.220446049250313e-16 0 1.1102230246251565e-16
v 0.9999999999999999 0 0
v 0.9999999999999999 0.4375 0
v 1 0.4375 1
v 1 0 1
v 0.75 0.4375 1
v 0.75 0.75 1
v 0.75 0.75 0.75
v 0.75 0.4375 0.75
v 0.875 0.75 1
v 0.875 0.75 0.75
v 0.25 0.4375 0.7500000000000001
v 0.25 0.75 0.7500000000000001
v 0.25 0.75 1
v 0.25 0.4375 1
v 0.375 0.4375 1
v 0.375 0.75 1
v 0.375 0.75 0.7500000000000001
v 0.375 0.4375 0.7500000000000001
v 0.625 0.4375 0.75
v 0.625 0.75 0.75
v 0.625 0.75 1
v 0.625 0.4375 1
v 0.8749999999999999 0.75 0.3125
v 0.875 0.75 1
v 0.8749999999999999 0.4375 0
v 0.125 0.75 0.7500000000000001
v 0.125 0.75 1
vt 0.5 0.921875
vt 0.421875 1
vt 0.25 1
vt 0.25 0.921875
vt 0.25 0.921875
vt 0.25 1
vt 0.078125 1
vt 0 0.921875
vt 0.75 0.640625
vt 0.75 0.8125
vt 0.71875 0.8125
vt 0.71875 0.640625
vt 0.5 0.5625
vt 0.5 0.671875
vt 0.46875 0.671875
vt 0.46875 0.5625
vt 0.25 0.8125
vt 0.25 0.921875
vt 0 0.921875
vt 0 0.8125
vt 0.5 0.8125
vt 0.5 0.921875
vt 0.25 0.921875
vt 0.25 0.8125
vt 0.25 0.453125
vt 0.25 0.703125
vt 0 0.703125
vt 0 0.453125
vt 0.25 0.703125
vt 0.25 0.8125
vt 0 0.8125
vt 0 0.703125
vt 0.75 0.8125
vt 0.75 0.921875
vt 0.5 0.921875
vt 0.5 0.8125
vt 0.65625 0.640625
vt 0.65625 0.71875
vt 0.59375 0.71875
vt 0.59375 0.640625
vt 0.5625 0.75
vt 0.5625 0.8125
vt 0.53125 0.8125
vt 0.53125 0.75
vt 0.59375 0.640625
vt 0.59375 0.71875
vt 0.53125 0.71875
vt 0.53125 0.640625
vt 0.65625 0.640625
vt 0.65625 0.71875
vt 0.59375 0.71875
vt 0.59375 0.640625
vt 0.59375 0.640625
vt 0.59375 0.71875
vt 0.53125 0.71875
vt 0.53125 0.640625
vt 0.65625 0.921875
vt 0.65625 1
vt 0.59375 1
vt 0.59375 0.921875
vt 0.75 1
vt 0.6875 1
vt 0.6875 0.921875
vt 0.75 0.921875
vt 0.7578125 1
vt 0.7578125 0.8999515625
vt 0.7890625 0.8999515625
vt 0.7890625 1
vt 0.7578125 1
vt 0.7578125 0.8999515625
vt 0.7890625 0.8999515625
vt 0.7890625 1
vt 0.53125 0.640625
vt 0.53125 0.8125
vt 0.5 0.8125
vt 0.5 0.640625
vt 0.28125 0.5625
vt 0.28125 0.671875
vt 0.25 0.671875
vt 0.25 0.5625
vt 0.9375 0.5625
vt 0.75 0.5625
vt 0.75 0.453125
vt 0.9375 0.453125
vt 0.5625 1
vt 0.5 1
vt 0.5 0.921875
vt 0.5625 0.921875
vt 0.71875 0.75
vt 0.71875 0.8125
vt 0.6875 0.8125
vt 0.6875 0.75
vt 0.65625 0.75
vt 0.65625 0.8125
vt 0.59375 0.8125
vt 0.59375 0.75
vt 0.75 0.671875
vt 0.75 0.5625
vt 0.9375 0.5625
vt 0.9375 0.671875
vn 1 0 -1.2246467991473532e-16
vn -1 0 1.2246467991473532e-16
vn 0 1 0
vn -8.659560562354934e-17 0.7071067811865476 -0.7071067811865476
vn -1 0 1.2246467991473532e-16
vn 1 0 -1.2246467991473532e-16
vn 0 -1 0
vn -1.2246467991473532e-16 0 -1
vn 1.2246467991473532e-16 0 1
vn -1 0 1.2246467991473532e-16
vn 0 1 0
vn 1 0 -1.2246467991473532e-16
vn -1 0 1.2246467991473532e-16
vn 1 0 -1.2246467991473532e-16
vn 1.2246467991473532e-16 0 1
vn 1.2246467991473532e-16 0 1
vn 9.562884880384116e-17 0.6246950475544243 0.7808688094430304
vn 9.562884880384116e-17 0.6246950475544243 0.7808688094430304
vn 0 1 0
vn -8.659560562354934e-17 0.7071067811865476 -0.7071067811865476
vn -8.659560562354934e-17 0.7071067811865476 -0.7071067811865476
vn 1.2246467991473532e-16 0 1
vn 0 1 0
vn 0 1 0
vn 0 1 0
usemtl m_8e85b523-5e78-389e-bad4-e3381e144fb3
f 25/61/16 26/62/16 27/63/16 28/64/16
f 29/65/17 30/66/17 31/67/17 32/68/17
f 31/69/18 30/70/18 33/71/18 34/72/18
f 32/73/19 31/74/19 34/75/19 35/76/19
f 36/77/20 37/78/20 38/79/20 39/80/20
f 40/81/21 41/82/21 42/83/21 43/84/21
f 36/85/22 39/86/22 40/87/22 43/88/22
f 39/89/23 38/90/23 41/91/23 40/92/23
f 43/93/24 42/94/24 37/95/24 36/96/24
f 44/97/25 45/98/25 46/99/25 47/100/25
f 46/101/26 45/102/26 48/103/26 49/104/26
f 50/105/27 51/106/27 52/107/27 53/108/27
f 54/109/28 55/110/28 56/111/28 57/112/28
f 58/113/29 59/114/29 60/115/29 61/116/29
f 61/117/30 60/118/30 55/119/30 54/120/30
f 27/121/31 45/122/31 44/123/31 28/124/31
f 51/125/32 53/126/32 54/127/32 56/128/32
f 59/129/33 61/130/33 44/131/33 46/132/33
f 62/133/34 63/134/34 27/135/34 26/136/34
f 64/137/35 62/138/35 26/139/35 25/140/35
f 34/141/36 62/142/36 64/143/36 35/144/36
f 52/145/37 30/146/37 29/147/37 53/148/37
f 65/149/38 66/150/38 52/151/38 51/152/38
f 56/153/39 55/154/39 60/155/39 59/156/39
f 49/157/40 62/158/40 34/159/40 65/160/40