# Made in Blockbench 4.3.1
mtllib sauna_vent.mtl

o ventBody
v 0.875 1 0.875
v 1 1 1
v 1 1 0
v 1 0 1
v 1 0 0
v 0 1 1
v 0 1 0
v 0 0 1
v 0 0 0
v 0.875 1 0.125
v 0.125 1 0.125
v 0.125 1 0.875
v 0.875 0.625 0.875
v 0.875 0.625 0.125
v 0.125 0.625 0.125
v 0.125 0.625 0.875
vt 0.5 0.5
vt 0.5 1
vt 0 1
vt 0 0.5
vt 0.5 0.5
vt 0.5 1
vt 0 1
vt 0 0.5
vt 0.5 0
vt 0.5 0.5
vt 0 0.5
vt 0 0
vt 0.5 0.5
vt 0.5 1
vt 0 1
vt 0 0.5
vt 0.5 0.5
vt 0.5 1
vt 0 1
vt 0 0.5
vt 0.9375 0.9375
vt 0.9375 0.5625
vt 1 0.5
vt 1 1
vt 0.5625 0.9375
vt 0.9375 0.9375
vt 1 1
vt 0.5 1
vt 0.5625 0.5625
vt 0.5625 0.9375
vt 0.5 1
vt 0.5 0.5
vt 0.9375 0.5625
vt 0.5625 0.5625
vt 0.5 0.5
vt 1 0.5
vt 0.9375 0.5625
vt 0.9375 0.9375
vt 0.5625 0.9375
vt 0.5625 0.5625
vt 0.9375 0.3125
vt 0.9375 0.5
vt 0.5625 0.5
vt 0.5625 0.3125
vt 0.9375 0.3125
vt 0.9375 0.5
vt 0.5625 0.5
vt 0.5625 0.3125
vt 0.9375 0.3125
vt 0.9375 0.5
vt 0.5625 0.5
vt 0.5625 0.3125
vt 0.9375 0.3125
vt 0.9375 0.5
vt 0.5625 0.5
vt 0.5625 0.3125
vn 1 0 0
vn -1 0 0
vn 0 -1 0
vn 0 0 1
vn 0 0 -1
vn 0 1 0
vn 0 1 0
vn 0 1 0
vn 0 1 0
vn 0 1 0
vn 1 0 0
vn 0 0 1
vn -1 0 0
vn 0 0 -1
usemtl m_0
f 5/1/1 3/2/1 2/3/1 4/4/1
f 8/5/2 6/6/2 7/7/2 9/8/2
f 5/9/3 4/10/3 8/11/3 9/12/3
f 4/13/4 2/14/4 6/15/4 8/16/4
f 9/17/5 7/18/5 3/19/5 5/20/5
f 10/21/6 1/22/6 2/23/6 3/24/6
f 11/25/7 10/26/7 3/27/7 7/28/7
f 12/29/8 11/30/8 7/31/8 6/32/8
f 1/33/9 12/34/9 6/35/9 2/36/9
f 13/37/10 14/38/10 15/39/10 16/40/10
f 15/41/11 11/42/11 12/43/11 16/44/11
f 14/45/12 10/46/12 11/47/12 15/48/12
f 13/49/13 1/50/13 10/51/13 14/52/13
f 16/53/14 12/54/14 1/55/14 13/56/14
o ventMouth
v 0.6875 1 0.6875
v 0.6875 1 0.3125
v 0.75 0.625 0.75
v 0.75 0.625 0.25
v 0.3125 1 0.6875
v 0.3125 1 0.3125
v 0.25 0.625 0.75
v 0.25 0.625 0.25
v 0.75 0.8125 0.75
v 0.25 0.8125 0.75
v 0.25 0.8125 0.25
v 0.75 0.8125 0.25
vt 0.65625 0.3125
vt 0.625 0.21367812499999994
vt 0.875 0.21367812499999994
vt 0.84375 0.3125
vt 0.65625 0.3125
vt 0.625 0.21367812499999994
vt 0.875 0.21367812499999994
vt 0.84375 0.3125
vt 0.84375 0.65625
vt 0.84375 0.84375
vt 0.65625 0.84375
vt 0.65625 0.65625
vt 0.25 0.75
vt 0.25 1
vt 0 1
vt 0 0.75
vt 0.65625 0.3125
vt 0.625 0.21367812499999994
vt 0.875 0.21367812499999994
vt 0.84375 0.3125
vt 0.65625 0.3125
vt 0.625 0.21367812499999994
vt 0.875 0.21367812499999994
vt 0.84375 0.3125
vt 0.875 0.09375
vt 0.875 0.1875
vt 0.625 0.1875
vt 0.625 0.09375
vt 0.875 0.09375
vt 0.875 0.1875
vt 0.625 0.1875
vt 0.625 0.09375
vt 0.875 0.09375
vt 0.875 0.1875
vt 0.625 0.1875
vt 0.625 0.09375
vt 0.875 0.09375
vt 0.875 0.1875
vt 0.625 0.1875
vt 0.625 0.09375
vn 0.948683298050514 0.316227766016838 0
vn -0.948683298050514 0.316227766016838 0
vn 0 1 0
vn 0 -1 0
vn 0 0.316227766016838 0.948683298050514
vn 0 0.316227766016838 -0.948683298050514
vn 0 0 1
vn -1 0 0
vn 0 0 -1
vn 1 0 0
usemtl m_0
f 17/57/15 25/58/15 28/59/15 18/60/15
f 22/61/16 27/62/16 26/63/16 21/64/16
f 17/65/17 18/66/17 22/67/17 21/68/17
usemtl none
f 20/69/18 19/70/18 23/71/18 24/72/18
usemtl m_0
f 21/73/19 26/74/19 25/75/19 17/76/19
f 18/77/20 28/78/20 27/79/20 22/80/20
f 19/81/21 25/82/21 26/83/21 23/84/21
f 23/85/22 26/86/22 27/87/22 24/88/22
f 24/89/23 27/90/23 28/91/23 20/92/23
f 20/93/24 28/94/24 25/95/24 19/96/24