# Blender v2.92.0 OBJ File: ''
# www.blender.org
mtllib steam_turbine.mtl
o cube1
v 0.239617 0.260099 -5.459333
v 0.239617 0.460099 -5.459333
v 0.439617 0.260099 -5.459333
v 0.439617 0.460099 -5.459333
v 0.439617 0.260099 -5.659333
v 0.439617 0.460099 -5.659333
v 0.239617 0.260099 -5.659333
v 0.239617 0.460099 -5.659333
vt 1.000000 0.000000
vt 1.000000 1.000000
vt 0.000000 1.000000
vt 0.000000 0.000000
vt 1.000000 0.000000
vt 1.000000 1.000000
vt 0.000000 1.000000
vt 0.000000 0.000000
vt 1.000000 0.000000
vt 1.000000 1.000000
vt 0.000000 1.000000
vt 0.000000 0.000000
vt 1.000000 0.000000
vt 1.000000 1.000000
vt 0.000000 1.000000
vt 0.000000 0.000000
vt 1.000000 0.000000
vt 0.000000 0.000000
vt 1.000000 1.000000
vt 0.000000 1.000000
vn 0.0000 0.0000 1.0000
vn 1.0000 0.0000 0.0000
vn 0.0000 0.0000 -1.0000
vn -1.0000 0.0000 0.0000
vn 0.0000 1.0000 0.0000
vn 0.0000 -1.0000 0.0000
usemtl none
s 1
f 3/1/1 4/2/1 2/3/1 1/4/1
f 5/5/2 6/6/2 4/7/2 3/8/2
f 7/9/3 8/10/3 6/11/3 5/12/3
f 1/13/4 2/14/4 8/15/4 7/16/4
f 4/17/5 6/6/5 8/15/5 2/18/5
f 5/5/6 3/19/6 1/20/6 7/16/6
o cube2
v -1.251244 0.787501 -1.192165
v -1.751244 0.787501 -1.192165
v -1.750000 1.651438 -1.200000
v 0.874839 -0.562500 0.737500
v 0.874839 -0.000000 0.750010
v -0.125000 1.500000 -0.387978
v -1.750000 1.250001 -1.200000
v -1.750000 0.250002 -4.000000
v 0.750000 0.250001 -1.500000
v 0.500000 1.000001 -1.500000
v 0.500000 1.000000 -0.387978
v 0.750000 0.250000 -0.387978
v -0.875000 1.500002 -3.999999
v -1.500000 1.000002 -4.000000
v 0.750000 0.250002 -4.000000
v 0.750000 0.250001 -2.860675
v -1.250000 0.250000 0.200000
v -1.250000 0.750000 0.200000
v -1.250161 0.750000 0.875011
v -1.250161 0.250000 0.875011
v -1.250000 0.787501 -0.700000
v -1.250000 1.651438 -1.200000
v -1.750000 0.782555 -1.200000
v 0.999839 1.000000 1.000011
v 0.999839 -0.000000 1.000010
v 0.624839 -0.000000 0.875010
v 0.999839 -0.000000 0.000010
v -1.250000 1.250001 -0.700000
v 0.874839 -0.562500 0.862500
v 0.499839 1.000000 1.000011
v 0.500000 -0.562499 -3.500000
v 0.500000 0.993219 -3.500000
v 0.500000 0.993219 -1.500000
v 0.500000 -0.562499 -1.500000
v -1.500000 0.993219 -1.500000
v -1.500000 -0.562499 -1.500000
v -1.500000 0.993219 -3.500000
v -1.500000 -0.562499 -3.500000
v -1.750161 0.750000 0.875011
v -1.750161 0.250000 0.875011
v -1.700000 1.000000 -0.387978
v -1.950000 0.250000 -0.387979
v -1.700000 1.000001 -1.500000
v -1.950000 0.250001 -1.500000
v -1.750000 0.750000 0.200000
v -1.750000 0.250000 0.200000
v -0.875000 1.500000 -0.387978
v -0.875000 1.500001 -1.500000
v -0.125000 1.500002 -2.860673
v -1.750000 0.787501 -0.700000
v 0.750000 -0.562499 -4.000000
v -1.750000 0.250001 -2.860675
v -1.250000 1.250001 -1.200000
v -1.750000 0.250000 -0.300000
v 0.874839 -0.000000 0.875010
v 0.499839 -0.000000 0.000010
v 0.499839 1.000000 0.000011
v 0.750000 -0.562499 -2.860675
v -1.750000 1.250000 -0.300000
v -1.125161 0.125000 0.875010
v -1.125161 0.875000 0.875011
v -1.125161 0.875000 1.000011
v -1.125161 0.125000 1.000010
v -1.875161 0.875000 1.000011
v -1.875161 0.125000 1.000010
v -1.875161 0.875000 0.875011
v -1.875161 0.125000 0.875010
v -1.250000 1.651438 0.200000
v 0.624839 -0.562500 0.862500
v 0.499839 -0.000000 1.000010
v 0.500000 1.000002 -4.000000
v -1.250000 0.250000 -0.300000
v -1.500000 1.000001 -2.860674
v 0.500000 1.000001 -2.860674
v -1.750000 1.250001 -0.700000
v 0.624839 -0.000000 0.750010
v -1.750000 -0.562499 -2.860675
v 0.624839 -0.562500 0.737500
v -1.250000 1.250000 -0.300000
v 1.000000 -0.994432 1.000000
v 1.000000 -0.562500 1.000000
v -2.000000 -0.562500 1.000000
v -2.000000 -1.002500 1.000000
v -2.000000 -0.562499 -6.000000
v -2.000000 -1.002499 -6.000000
v 1.000000 -0.562499 -5.999999
v 1.000000 -0.994450 -6.000000
v 0.874839 -0.562499 0.125010
v 0.874839 -0.000000 0.125010
v 0.874839 -0.000000 0.250010
v 0.874839 -0.562500 0.250010
v -1.750000 1.250000 0.200000
v -1.750000 1.651438 0.200000
v 0.624839 -0.000000 0.250010
v 0.624839 -0.562500 0.250010
v -0.875000 1.500002 -2.860673
v -1.250000 1.250000 0.200000
v -0.125000 1.500001 -1.500000
v 0.624839 -0.000000 0.125010
v 0.624839 -0.562499 0.125010
v 0.750000 -0.562499 -1.500000
v 0.750000 -0.562500 -0.387978
v 0.999839 1.000000 0.000011
v -0.125000 1.500002 -3.999999
v -1.950000 -0.562500 -0.387979
v -1.750000 -0.562499 -4.000000
v -1.950000 -0.562499 -1.500000
v -1.750000 0.250002 -5.842000
v 0.750000 0.250002 -5.842000
v 0.750000 -0.562499 -5.842000
v -1.750000 -0.562499 -5.842000
vt 0.941782 0.907910
vt 0.941782 0.704729
vt 0.991099 0.704729
vt 0.991099 0.777294
vt 0.991099 0.907910
vt 0.996490 0.920740
vt 0.941252 0.920740
vt 0.941252 0.811082
vt 0.941252 0.701424
vt 0.996490 0.701424
vt 0.934361 0.694977
vt 0.990284 0.694977
vt 0.990284 0.880739
vt 0.934361 0.880739
vt 0.934361 0.787858
vt 0.995884 0.796218
vt 0.995884 0.856723
vt 0.995884 0.905300
vt 0.944835 0.905300
vt 0.944835 0.856723
vt 0.944835 0.796218
vt 0.994762 0.687037
vt 0.994762 0.888075
vt 0.942074 0.888075
vt 0.942074 0.687037
vt 0.218750 0.281250
vt 0.296875 0.343750
vt 0.390625 0.343750
vt 0.468750 0.281250
vt 0.218750 0.281250
vt 0.296875 0.343750
vt 0.390625 0.343750
vt 0.468750 0.281250
vt 0.718750 0.328125
vt 0.718750 0.429703
vt 0.843750 0.429703
vt 0.843750 0.328125
vt 0.187500 0.156250
vt 0.187500 0.187500
vt 0.500000 0.187500
vt 0.500000 0.156250
vt 1.000000 0.687500
vt 0.937500 0.687500
vt 0.937500 0.890625
vt 1.000000 0.890625
vt 0.994762 0.687037
vt 0.994762 0.888075
vt 0.942074 0.888075
vt 0.942074 0.687037
vt 0.187500 0.187500
vt 0.500000 0.187500
vt 0.994762 0.683131
vt 0.994762 0.884169
vt 0.942074 0.884169
vt 0.942074 0.683131
vt 0.906250 0.500000
vt 0.906250 0.625000
vt 0.968750 0.625000
vt 0.968750 0.500000
vt 0.846835 0.893129
vt 0.846835 0.800584
vt 0.899681 0.800584
vt 0.899681 0.893129
vt 0.718704 0.093918
vt 0.718704 0.195496
vt 0.843704 0.195496
vt 0.843704 0.093918
vt 0.968750 0.500000
vt 0.906250 0.500000
vt 0.906250 0.625000
vt 0.968750 0.625000
vt 0.687500 0.500000
vt 0.687500 0.625000
vt 0.718750 0.625000
vt 0.718750 0.500000
vt 0.993889 0.687073
vt 0.993889 0.888112
vt 0.941202 0.888112
vt 0.941202 0.687073
vt 0.687500 0.500000
vt 0.687500 0.625000
vt 0.718750 0.625000
vt 0.718750 0.500000
vt 0.906250 0.796875
vt 0.906250 0.859375
vt 0.921875 0.859375
vt 0.921875 0.796875
vt 0.687500 0.500000
vt 0.687500 0.625000
vt 0.718750 0.625000
vt 0.718750 0.500000
vt 0.906250 0.796875
vt 0.906250 0.859375
vt 0.921875 0.859375
vt 0.921875 0.796875
vt 0.187500 0.156250
vt 0.500000 0.156250
vt 0.187500 0.187500
vt 0.218750 0.281250
vt 0.468750 0.281250
vt 0.500000 0.187500
vt 0.718750 0.328125
vt 0.718750 0.429703
vt 0.843750 0.429703
vt 0.843750 0.328125
vt 0.187500 0.187500
vt 0.500000 0.187500
vt 1.000000 0.687500
vt 0.937500 0.687500
vt 0.937500 0.890625
vt 1.000000 0.890625
vt 0.718750 0.531250
vt 0.718750 0.625000
vt 0.843750 0.625000
vt 0.843750 0.531250
vt 0.906250 0.500000
vt 0.843750 0.500000
vt 0.843750 0.625000
vt 0.718750 0.531250
vt 0.843750 0.531250
vt 0.296875 0.343750
vt 0.390625 0.343750
vt 1.000000 0.687500
vt 0.937500 0.687500
vt 0.937500 0.890625
vt 1.000000 0.890625
vt 1.000000 0.687500
vt 0.937500 0.687500
vt 0.937500 0.890625
vt 1.000000 0.890625
vt 0.994762 0.683131
vt 0.994762 0.884169
vt 0.942074 0.884169
vt 0.942074 0.683131
vt 0.843750 0.500000
vt 0.968750 0.625000
vt 0.937500 0.625000
vt 0.843750 0.625000
vt 0.843750 0.640625
vt 0.937500 0.640625
vt 0.750000 0.843750
vt 0.750000 0.937500
vt 0.843750 0.937500
vt 0.843750 0.843750
vt 0.718765 0.195358
vt 0.718765 0.296906
vt 0.843765 0.296906
vt 0.843765 0.195358
vt 0.937500 0.640625
vt 0.843750 0.640625
vt 0.843750 0.625000
vt 0.937500 0.625000
vt 0.718704 0.093918
vt 0.718704 0.195496
vt 0.843704 0.195496
vt 0.843704 0.093918
vt 0.718765 0.020355
vt 0.718765 0.051605
vt 0.843765 0.051605
vt 0.843765 0.020355
vt 0.843750 0.640625
vt 0.843750 0.734375
vt 0.937500 0.734375
vt 0.937500 0.640625
vt 0.937500 0.625000
vt 0.937500 0.640625
vt 0.906250 0.796875
vt 0.906250 0.859375
vt 0.937500 0.859375
vt 0.937500 0.796875
vt 0.718765 0.195358
vt 0.718765 0.296906
vt 0.843765 0.296906
vt 0.843765 0.195358
vt 0.843750 0.625000
vt 0.843750 0.640625
vt 0.218750 0.281250
vt 0.296875 0.343750
vt 0.390625 0.343750
vt 0.468750 0.281250
vt 0.312500 0.437500
vt 0.312500 0.500000
vt 0.687500 0.500000
vt 0.687500 0.437500
vt 0.000031 0.437500
vt 0.000031 0.500000
vt 0.125000 0.500000
vt 0.125000 0.437500
vt 0.625000 0.625000
vt 0.625000 0.999969
vt 0.750000 0.999969
vt 0.750000 0.625000
vt 0.125000 0.625000
vt 0.125000 0.999969
vt 0.000031 0.999969
vt 0.000031 0.625000
vt 0.000031 0.437500
vt 0.000031 0.500000
vt 0.125000 0.500000
vt 0.125000 0.437500
vt 0.312500 0.437500
vt 0.312500 0.500000
vt 0.687500 0.500000
vt 0.687500 0.437500
vt 0.906250 0.796875
vt 0.906250 0.859375
vt 0.921875 0.859375
vt 0.921875 0.796875
vt 0.993991 0.882312
vt 0.945922 0.882312
vt 0.945922 0.777514
vt 0.993991 0.777514
vt 0.187500 0.187500
vt 0.500000 0.187500
vt 0.718765 0.020355
vt 0.718765 0.051605
vt 0.843765 0.051605
vt 0.843765 0.020355
vt 0.906250 0.796875
vt 0.906250 0.859375
vt 0.937500 0.859375
vt 0.937500 0.796875
vt 0.993991 0.882312
vt 0.945922 0.882312
vt 0.945922 0.777514
vt 0.993991 0.777514
vt 0.187500 0.156250
vt 0.500000 0.156250
vt 0.843750 0.500000
vt 0.843750 0.625000
vt 0.906250 0.625000
vt 0.906250 0.796875
vt 0.906250 0.859375
vt 0.921875 0.859375
vt 0.921875 0.796875
vt 0.000031 0.500000
vt 0.000031 0.625000
vt 0.125000 0.625000
vt 0.125000 0.500000
vt 0.718750 0.296875
vt 0.843750 0.296875
vt 0.718750 0.531250
vt 0.843750 0.531250
vt 0.718750 0.625000
vt 0.843750 0.625000
vt 0.187500 0.156250
vt 0.500000 0.156250
vt 0.906250 0.796875
vt 0.906250 0.859375
vt 0.937500 0.859375
vt 0.937500 0.796875
vt 0.906250 0.796875
vt 0.906250 0.859375
vt 0.937500 0.859375
vt 0.937500 0.796875
vt 0.718750 0.296875
vt 0.843750 0.296875
vt 0.187500 0.156250
vt 0.187500 0.187500
vt 0.500000 0.187500
vt 0.187500 0.156250
vt 0.500000 0.156250
vt 0.187500 0.187500
vt 0.500000 0.187500
vt 0.500000 0.156250
vt 0.500000 0.156250
vt 0.187500 0.156250
vn -1.0000 -0.0000 0.0000
vn -1.0000 0.0000 -0.0001
vn 0.7071 -0.7071 0.0001
vn 1.0000 -0.0000 0.0000
vn -0.0000 -0.0000 1.0000
vn 0.0000 1.0000 0.0000
vn 0.0000 0.0000 -1.0000
vn 0.9871 0.1602 0.0000
vn 0.8203 0.5720 0.0000
vn 1.0000 0.0000 -0.0002
vn 1.0000 0.0000 0.0002
vn 0.0000 -1.0000 -0.0000
vn 0.0000 -0.0091 -1.0000
vn -0.9871 0.1602 0.0000
vn -0.8203 0.5720 0.0000
vn -0.9943 0.1066 0.0000
vn -0.7814 0.6240 0.0000
vn -1.0000 -0.0000 -0.0002
vn 0.3310 0.9436 0.0000
vn -0.3310 0.9436 0.0000
vn -0.2691 0.9631 0.0000
vn 0.9943 0.1066 0.0000
vn 0.0000 0.0222 -0.9998
vn 0.0027 -1.0000 0.0000
vn 0.0000 -0.0222 0.9998
usemtl steam_turbine
s 1
f 101/21/7 11/22/7 15/23/7 83/24/7 100/25/7
f 62/26/7 54/27/8 53/28/8 100/29/7 67/30/7
f 25/31/9 80/32/10 87/33/10 105/34/10 26/35/10
f 26/36/11 105/37/11 76/38/11 101/39/11 100/40/11 53/41/11
f 76/42/12 30/43/12 11/44/12 101/45/12
f 51/46/13 56/47/13 106/48/13 18/49/13
f 82/50/11 57/51/11 104/52/11 81/53/11
f 17/54/14 18/55/15 19/56/15 20/57/14
f 119/58/13 116/59/13 117/60/13 118/61/13
f 25/62/16 26/63/16 27/64/17 28/65/17
f 67/66/18 83/67/18 36/68/18 87/69/18
f 24/70/11 82/50/11 81/53/11 60/71/11
f 30/72/19 9/73/19 10/74/19 11/75/19
f 33/76/11 32/77/11 38/78/11 78/79/11
f 54/80/18 62/81/18 80/82/18 25/83/18
f 60/84/20 81/85/21 22/86/21 16/87/22
f 64/88/18 35/89/18 33/90/18 78/91/18
f 39/92/10 40/93/10 41/94/10 42/95/10
f 105/96/10 61/97/10 30/98/10 76/99/10
f 44/100/7 43/101/7 45/102/7 46/103/7
f 12/104/10 13/105/10 63/106/10 37/107/10
f 40/108/12 45/109/12 43/110/12 41/111/12
f 77/112/7 34/113/7 84/114/7 86/115/7
f 66/116/11 24/70/11 60/71/11 85/117/11
f 20/118/11 19/119/11 49/120/11 50/121/11
f 50/122/20 49/123/23 51/124/23 52/125/20
f 52/126/13 51/46/13 18/49/13 17/127/13
f 48/128/24 47/129/24 53/130/8 54/131/8
f 112/132/25 21/133/26 104/134/26 57/135/25
f 111/136/12 65/137/12 38/138/12 32/77/12
f 49/123/23 55/139/27 56/140/27 51/124/23
f 19/119/11 14/141/11 55/142/11 49/120/11
f 26/143/12 53/144/12 47/145/12 27/146/12
f 54/147/18 25/148/18 28/149/18 48/150/18
f 62/151/13 67/152/13 87/153/13 80/154/13
f 78/155/7 38/138/7 65/156/7 64/88/7
f 68/157/10 69/158/10 70/159/10 71/160/10
f 71/161/11 70/162/11 72/163/11 73/164/11
f 79/165/15 112/166/25 57/167/25 82/168/15
f 73/169/7 72/170/7 74/171/7 75/172/7
f 23/173/28 79/174/15 82/175/15 24/176/14
f 85/177/7 60/178/20 16/179/22 114/180/7
f 75/181/13 74/182/13 69/183/13 68/184/13
f 69/185/12 74/171/12 72/170/12 70/186/12
f 86/187/29 84/188/29 13/189/29 12/190/29
f 81/191/21 104/192/26 21/193/26 22/194/21
f 75/172/18 68/195/18 71/196/18 73/169/18
f 22/197/13 21/198/13 112/199/13 79/200/13
f 88/201/11 89/202/11 90/203/11 91/204/11
f 91/205/7 90/206/7 92/207/7 93/208/7
f 94/209/12 92/210/12 90/211/12 89/212/12
f 93/213/30 95/214/30 88/215/30 91/216/30
f 95/217/10 94/218/10 89/219/10 88/220/10
f 93/221/13 92/222/13 94/223/13 95/224/13
f 96/225/10 97/226/10 98/227/10 99/228/10
f 31/229/7 58/230/7 83/231/7 15/232/7
f 16/233/13 22/197/13 79/200/13 23/234/13
f 59/235/10 23/236/28 24/237/14 66/238/10
f 99/239/11 98/240/11 102/241/11 103/242/11
f 58/243/11 29/244/11 36/245/11 83/246/11
f 115/247/13 52/126/13 17/127/13 109/248/13
f 64/249/13 65/250/13 111/251/13 35/89/13
f 103/252/7 102/253/7 107/254/7 108/255/7
f 35/256/10 111/257/10 32/258/10 33/259/10
f 109/260/10 17/54/14 20/57/14 110/261/10
f 18/55/15 106/262/25 14/263/25 19/56/15
f 106/262/25 56/264/27 55/265/27 14/263/25
f 110/266/11 20/118/11 50/121/11 113/267/11
f 37/268/31 63/269/31 34/270/31 77/271/31
f 108/272/13 107/273/13 97/274/13 96/275/13
f 113/276/7 50/122/20 52/125/20 115/277/7
f 117/278/10 23/279/28 59/280/10 118/61/10
f 116/281/12 16/233/12 23/234/12 117/282/12
f 119/58/7 114/283/7 16/284/22 116/285/7
f 118/61/18 59/286/18 114/287/18 119/58/18
