# Blender v2.92.0 OBJ File: 'untitled.blend'
# www.blender.org
mtllib steam_turbine.mtl
o base_1
v 0.741439 -0.562497 -4.003994
v -1.258561 1.651440 0.196006
v -1.258561 1.651440 -1.203994
v -1.758561 1.651440 -1.203994
v -1.758561 1.651440 0.196006
v -1.708562 1.000000 -1.503994
v -0.883561 1.500000 -1.503994
v -0.133561 1.500000 -1.503994
v 0.491439 1.000000 -1.503994
v 0.491439 1.000000 -2.864664
v -0.133561 1.500000 -2.864664
v -0.883561 1.500000 -2.864664
v -1.508561 1.000000 -2.864664
v 0.741439 0.250001 -1.503994
v 0.491439 1.000000 -0.391972
v 0.741439 0.250000 -0.391972
v -1.258561 0.250000 0.196006
v -1.258561 0.750000 0.196006
v -1.258721 0.750000 0.871017
v -1.258721 0.250000 0.871017
v -1.758561 1.250000 -0.303994
v -1.758561 1.250000 -0.703994
v -1.258561 1.250000 -0.703994
v -1.258561 1.250000 -0.303994
v 0.741439 0.250001 -2.864664
v -1.758561 0.250001 -2.864664
v -1.259802 0.787501 -1.196164
v -1.759802 0.787501 -1.196164
v 0.991277 -0.000000 0.996016
v 0.991277 1.000000 0.996016
v 0.491277 1.000000 0.996016
v 0.491277 -0.000000 0.996016
v -1.758561 0.250000 0.196006
v -1.758561 0.250000 -0.303994
v -1.258561 0.250000 -0.303994
v -1.508561 1.000003 -4.003994
v -1.758561 0.250004 -4.003994
v 0.491277 0.000000 -0.003984
v 0.991277 0.000000 -0.003984
v 0.491439 -0.562497 -3.503994
v 0.491439 0.993222 -3.503994
v 0.491439 0.993219 -1.503994
v 0.491439 -0.562500 -1.503994
v -1.258561 1.250000 0.196006
v -1.258561 1.250000 -1.203994
v -1.508561 -0.562500 -1.503994
v -1.508561 0.993219 -1.503994
v -1.508561 0.993222 -3.503994
v -1.508561 -0.562497 -3.503994
v 0.866277 -0.562500 0.733506
v 0.866277 -0.000000 0.746017
v 0.866277 -0.000000 0.871017
v 0.866277 -0.562500 0.858506
v 0.616278 -0.562500 0.858506
v 0.616278 -0.000000 0.871017
v 0.616278 -0.000000 0.746017
v 0.616278 -0.562500 0.733506
v 0.741439 -0.562500 -2.864664
v -1.758561 -0.562500 -2.864664
v -1.708562 1.000000 -0.391972
v -1.958562 0.250000 -0.391973
v -1.958562 0.250001 -1.503994
v -1.758722 0.250000 0.871017
v -1.758722 0.750000 0.871017
v -1.758561 0.750000 0.196006
v -0.133561 1.500003 -4.003992
v -0.883561 1.500003 -4.003992
v 0.991277 1.000000 -0.003984
v 0.491277 1.000000 -0.003984
v -0.883561 1.500000 -0.391972
v -0.133561 1.500000 -0.391972
v -1.133721 0.125000 0.871017
v -1.133721 0.875000 0.871017
v -1.133721 0.125000 0.996016
v -1.883722 0.125000 0.996016
v 0.491439 1.000003 -4.003994
v -1.883722 0.875000 0.871017
v -1.883722 0.125000 0.871017
v -1.758561 -0.562497 -4.003994
v 0.991439 -0.994432 0.996006
v 0.991439 -0.562500 0.996006
v -2.008562 -0.562500 0.996006
v -2.008562 -1.002500 0.996006
v -2.004281 -0.565620 -6.003993
v -2.008562 -1.002497 -6.003994
v 0.991439 -0.562497 -6.003994
v 0.991439 -0.994448 -6.003994
v 0.866277 -0.562500 0.121016
v 0.866277 -0.000000 0.121016
v 0.866277 -0.000000 0.246017
v 0.866277 -0.562500 0.246017
v -1.758561 0.782555 -1.203994
v -1.758561 0.787501 -0.703994
v -1.758561 1.250000 -1.203994
v 0.616278 -0.000000 0.246017
v 0.616278 -0.562500 0.246017
v -1.258561 0.787501 -0.703994
v -1.958562 -0.562499 -1.503994
v 0.741439 -0.562499 -1.503994
v 0.616278 -0.000000 0.121016
v 0.616278 -0.562500 0.121016
v 0.741439 -0.562500 -0.391972
v -1.958562 -0.562500 -0.391973
v -1.758561 1.250000 0.196006
v -1.883722 0.875000 0.996016
v -1.133721 0.875000 0.996016
v 0.741439 0.250004 -4.003994
v -2.000000 1.000001 -4.997368
v -2.000000 1.000001 -5.990743
v -1.793939 0.238111 -4.990743
v -1.793939 -0.574390 -4.990743
v 0.706061 -0.574390 -4.990743
v 0.706061 0.238111 -4.990743
v 1.000000 1.000000 -5.990743
v 1.000000 1.000000 -4.997368
v 1.000000 -0.562497 -4.997368
v -2.000000 -0.568742 -5.010618
vt 0.013954 0.429512
vt 0.292969 0.429752
vt 0.292687 0.348776
vt 0.014765 0.348836
vt 0.239052 0.175195
vt 0.240477 0.322286
vt 0.429455 0.322286
vt 0.426605 0.176234
vt 0.994762 0.692945
vt 0.994762 0.882167
vt 0.942074 0.882167
vt 0.942074 0.692945
vt 0.218750 0.281250
vt 0.296875 0.343750
vt 0.390625 0.343750
vt 0.468750 0.281250
vt 0.218750 0.281250
vt 0.296875 0.343750
vt 0.390625 0.343750
vt 0.468750 0.281250
vt 0.718750 0.328125
vt 0.718750 0.429703
vt 0.843750 0.429703
vt 0.843750 0.328125
vt 1.000000 0.687500
vt 0.937500 0.687500
vt 0.937500 0.890625
vt 1.000000 0.890625
vt 0.994762 0.687037
vt 0.994762 0.888075
vt 0.942074 0.888075
vt 0.942074 0.687037
vt 0.187500 0.187500
vt 0.500000 0.187500
vt 0.994762 0.690082
vt 0.994762 0.877218
vt 0.942074 0.877218
vt 0.942074 0.690082
vt 0.906250 0.500000
vt 0.906250 0.625000
vt 0.968750 0.625000
vt 0.968750 0.500000
vt 0.846835 0.893129
vt 0.846835 0.800584
vt 0.899681 0.800584
vt 0.899681 0.893129
vt 0.718704 0.093918
vt 0.718704 0.195496
vt 0.843704 0.195496
vt 0.843704 0.093918
vt 0.968750 0.500000
vt 0.906250 0.500000
vt 0.906250 0.625000
vt 0.968750 0.625000
vt 0.098425 0.734080
vt 0.098425 0.859080
vt 0.371506 0.859080
vt 0.371506 0.734080
vt 0.993889 0.689856
vt 0.993889 0.885329
vt 0.941202 0.885329
vt 0.941202 0.689856
vt 0.101563 0.736328
vt 0.101563 0.890625
vt 0.357422 0.890625
vt 0.357422 0.736328
vt 0.906250 0.796875
vt 0.906250 0.859375
vt 0.921875 0.859375
vt 0.921875 0.796875
vt 0.095703 0.734375
vt 0.095703 0.896484
vt 0.355469 0.896484
vt 0.355469 0.734375
vt 0.906250 0.796875
vt 0.906250 0.859375
vt 0.921875 0.859375
vt 0.921875 0.796875
vt 0.187500 0.156250
vt 0.500000 0.156250
vt 0.187500 0.187500
vt 0.218750 0.281250
vt 0.468750 0.281250
vt 0.500000 0.187500
vt 0.718750 0.328125
vt 0.718750 0.429703
vt 0.843750 0.429703
vt 0.843750 0.328125
vt 0.187500 0.187500
vt 0.500000 0.187500
vt 1.000000 0.687500
vt 0.937500 0.687500
vt 0.937500 0.890625
vt 1.000000 0.890625
vt 0.718750 0.531250
vt 0.718750 0.625000
vt 0.843750 0.625000
vt 0.843750 0.531250
vt 0.906250 0.500000
vt 0.843750 0.500000
vt 0.843750 0.625000
vt 0.718750 0.531250
vt 0.843750 0.531250
vt 0.296875 0.343750
vt 0.390625 0.343750
vt 1.000000 0.687500
vt 0.937500 0.687500
vt 0.937500 0.890625
vt 1.000000 0.890625
vt 1.000000 0.687500
vt 0.937500 0.687500
vt 0.937500 0.890625
vt 1.000000 0.890625
vt 0.994762 0.683131
vt 0.994762 0.884169
vt 0.942074 0.884169
vt 0.942074 0.683131
vt 0.843750 0.500000
vt 0.968750 0.625000
vt 0.937500 0.625000
vt 0.843750 0.625000
vt 0.843750 0.640625
vt 0.937500 0.640625
vt 0.718765 0.195358
vt 0.718765 0.296906
vt 0.843765 0.296906
vt 0.843765 0.195358
vt 0.937500 0.640625
vt 0.843750 0.640625
vt 0.843750 0.625000
vt 0.937500 0.625000
vt 0.718704 0.093918
vt 0.718704 0.195496
vt 0.843704 0.195496
vt 0.843704 0.093918
vt 0.718765 0.020355
vt 0.718765 0.051605
vt 0.843765 0.051605
vt 0.843765 0.020355
vt 0.843750 0.640625
vt 0.843750 0.734375
vt 0.937500 0.734375
vt 0.937500 0.640625
vt 0.937500 0.625000
vt 0.937500 0.640625
vt 0.906250 0.796875
vt 0.906250 0.859375
vt 0.937500 0.859375
vt 0.937500 0.796875
vt 0.718765 0.195358
vt 0.718765 0.296906
vt 0.843765 0.296906
vt 0.843765 0.195358
vt 0.843750 0.625000
vt 0.843750 0.640625
vt 0.218750 0.281250
vt 0.296875 0.343750
vt 0.390625 0.343750
vt 0.468750 0.281250
vt 0.312500 0.437500
vt 0.312500 0.500000
vt 0.687500 0.500000
vt 0.687500 0.437500
vt 0.000031 0.437500
vt 0.000031 0.500000
vt 0.125000 0.500000
vt 0.125000 0.437500
vt 0.625000 0.625000
vt 0.625000 0.999969
vt 0.750000 0.999969
vt 0.750000 0.625000
vt 0.125000 0.625000
vt 0.125000 0.999969
vt 0.000031 0.999969
vt 0.000031 0.625000
vt 0.000031 0.437500
vt 0.000031 0.500000
vt 0.125000 0.500000
vt 0.125000 0.437500
vt 0.312500 0.437500
vt 0.312500 0.500000
vt 0.687500 0.500000
vt 0.687500 0.437500
vt 0.906250 0.796875
vt 0.906250 0.859375
vt 0.921875 0.859375
vt 0.921875 0.796875
vt 0.993991 0.882312
vt 0.945922 0.882312
vt 0.945922 0.777514
vt 0.993991 0.777514
vt 0.187500 0.187500
vt 0.500000 0.187500
vt 0.718765 0.020355
vt 0.718765 0.051605
vt 0.843765 0.051605
vt 0.843765 0.020355
vt 0.906250 0.796875
vt 0.906250 0.859375
vt 0.937500 0.859375
vt 0.937500 0.796875
vt 0.993991 0.882312
vt 0.945922 0.882312
vt 0.945922 0.777514
vt 0.993991 0.777514
vt 0.187500 0.156250
vt 0.500000 0.156250
vt 0.843750 0.500000
vt 0.843750 0.625000
vt 0.906250 0.625000
vt 0.906250 0.796875
vt 0.906250 0.859375
vt 0.921875 0.859375
vt 0.921875 0.796875
vt 0.000031 0.500000
vt 0.000031 0.625000
vt 0.125000 0.625000
vt 0.125000 0.500000
vt 0.718750 0.296875
vt 0.843750 0.296875
vt 0.718750 0.531250
vt 0.843750 0.531250
vt 0.718750 0.625000
vt 0.843750 0.625000
vt 0.187500 0.156250
vt 0.500000 0.156250
vt 0.906250 0.796875
vt 0.906250 0.859375
vt 0.937500 0.859375
vt 0.937500 0.796875
vt 0.906250 0.796875
vt 0.906250 0.859375
vt 0.937500 0.859375
vt 0.937500 0.796875
vt 0.718750 0.296875
vt 0.843750 0.296875
vt 0.939244 0.694977
vt 0.995167 0.694977
vt 0.995167 0.880739
vt 0.939244 0.880739
vt 0.939244 0.787858
vt 0.995252 0.906556
vt 0.999492 0.708929
vt 0.940509 0.708622
vt 0.939669 0.908397
vt 0.843525 0.937113
vt 0.843525 0.842630
vt 0.750358 0.842630
vt 0.750358 0.937113
vt 0.601074 0.155420
vt 0.601074 0.033203
vt 0.222284 0.033203
vt 0.222284 0.155420
vt 0.843765 0.020355
vt 0.843765 0.051605
vt 0.000000 0.000000
vt 0.000000 0.000000
vt 0.012289 0.429687
vt 0.134529 0.429687
vt 0.134195 0.353515
vt 0.013908 0.353515
vt 0.243201 0.173622
vt 0.452049 0.173629
vt 0.452049 0.284024
vt 0.242448 0.284032
vt 0.450455 0.282100
vt 0.450455 0.163000
vt 0.243560 0.165405
vt 0.245261 0.284136
vt 0.458415 0.167338
vt 0.458415 0.277756
vt 0.230827 0.277760
vt 0.232928 0.167333
vt 0.133050 0.349657
vt 0.133050 0.427734
vt 0.000000 0.427687
vt 0.000000 0.349609
vt 0.940332 0.703127
vt 0.996319 0.702799
vt 0.997794 0.861773
vt 0.942130 0.861542
vt 0.939749 0.913460
vt 0.937500 0.782837
vt 1.000000 0.782837
vt 0.998637 0.913460
vn 0.0000 0.9999 -0.0121
vn -0.0000 0.0085 -1.0000
vn 0.0000 1.0000 0.0000
vn 0.0000 0.0000 -1.0000
vn 0.0000 -0.0000 1.0000
vn 0.9487 0.3162 0.0000
vn 1.0000 0.0000 0.0001
vn 1.0000 0.0000 0.0002
vn 0.0000 -1.0000 -0.0000
vn 0.0000 -0.0091 -1.0000
vn -0.9487 0.3162 0.0000
vn 1.0000 -0.0000 0.0000
vn -1.0000 0.0000 0.0000
vn -1.0000 -0.0000 -0.0002
vn -0.5183 0.8552 0.0000
vn 0.9823 -0.1233 0.1409
vn 0.9823 0.1233 0.1409
vn 0.6247 0.7809 0.0000
vn -0.9823 0.1233 0.1409
vn -0.9823 -0.1233 0.1409
vn -0.7280 0.0000 0.6856
vn -0.9998 0.0000 0.0180
vn 0.0000 0.0222 -0.9998
vn -0.6247 0.7809 0.0000
vn 0.0027 -1.0000 0.0000
vn 1.0000 -0.0000 -0.0001
vn 0.9994 -0.0000 -0.0358
vn 0.0000 -0.0222 0.9998
vn 0.7018 -0.1309 0.7003
vn -0.7033 -0.1305 0.6988
vn -0.7169 0.0000 -0.6972
vn -0.9729 0.0145 0.2308
vn 0.6970 0.0000 -0.7171
vn 0.6916 0.0000 -0.7222
vn 1.0000 -0.0023 -0.0036
vn 0.7069 -0.0055 0.7073
vn -0.7110 -0.0033 0.7032
usemtl steam_turbine
s off
f 37/1/1 107/2/1 113/3/1 110/4/1
f 84/5/2 109/6/2 114/7/2 86/8/2
s 1
f 2/9/3 3/10/3 4/11/3 5/12/3
f 6/13/4 7/14/4 8/15/4 9/16/4
f 10/17/5 11/18/5 12/19/5 13/20/5
f 14/21/6 9/22/6 15/23/6 16/24/6
f 17/25/7 18/26/7 19/27/8 20/28/8
f 21/29/9 22/30/9 23/31/9 24/32/9
f 25/33/5 10/17/5 13/20/5 26/34/5
f 3/35/10 27/36/10 28/37/10 4/38/10
f 29/39/5 30/40/5 31/41/5 32/42/5
f 33/43/9 34/44/9 35/45/9 17/46/9
f 26/47/11 13/48/11 36/49/11 37/50/11
f 38/51/9 39/52/9 29/53/9 32/54/9
f 40/55/12 41/56/12 42/57/12 43/58/12
f 44/59/12 45/60/12 3/61/12 2/62/12
f 46/63/13 47/64/13 48/65/13 49/66/13
f 50/67/12 51/68/12 52/69/12 53/70/12
f 41/71/3 48/72/3 47/73/3 42/74/3
f 54/75/13 55/76/13 56/77/13 57/78/13
f 58/79/5 25/33/5 26/34/5 59/80/5
f 16/81/5 15/82/5 60/83/5 61/84/5
f 61/85/11 60/86/11 6/87/11 62/88/11
f 62/89/4 6/13/4 9/16/4 14/90/4
f 63/91/14 64/92/14 65/93/14 33/94/14
f 66/95/3 67/96/3 12/97/3 11/98/3
f 68/99/3 69/100/3 31/101/3 30/40/3
f 60/86/15 70/102/15 7/103/15 6/87/15
f 15/82/5 71/104/5 70/105/5 60/83/5
f 18/106/3 65/107/3 64/108/3 19/109/3
f 33/110/9 17/111/9 20/112/9 63/113/9
f 34/114/4 21/115/4 24/116/4 35/117/4
f 32/118/13 31/101/13 69/119/13 38/51/13
f 72/120/12 73/121/12 106/122/16 74/123/17
f 76/124/18 66/125/18 11/126/18 10/127/18
f 75/128/19 105/129/20 77/130/13 78/131/13
f 107/132/6 76/133/6 10/134/6 25/135/6
f 59/136/13 26/137/13 37/138/21 79/139/22
f 78/140/4 77/141/4 73/142/4 72/143/4
f 73/144/3 77/130/3 105/129/20 106/145/16
f 57/146/23 56/147/23 51/148/23 50/149/23
f 13/150/24 12/151/24 67/152/24 36/153/24
f 78/131/9 72/154/9 74/155/17 75/128/19
f 36/156/4 67/157/4 66/158/4 76/159/4
f 80/160/5 81/161/5 82/162/5 83/163/5
f 83/164/13 82/165/13 84/166/13 85/167/13
f 86/168/3 84/169/3 82/170/3 81/171/3
f 85/172/25 87/173/25 80/174/25 83/175/25
f 87/176/12 86/177/12 81/178/12 80/179/12
f 85/180/4 84/181/4 86/182/4 87/183/4
f 88/184/12 89/185/12 90/186/12 91/187/12
f 92/188/13 93/189/13 22/190/13 94/191/13
f 37/192/4 36/156/4 76/159/4 107/193/4
f 1/194/26 107/195/27 25/196/12 58/197/12
f 91/198/5 90/199/5 95/200/5 96/201/5
f 93/202/5 97/203/5 23/204/5 22/205/5
f 98/206/4 62/89/4 14/90/4 99/207/4
f 38/208/4 69/209/4 68/210/4 39/52/4
f 96/211/13 95/212/13 100/213/13 101/214/13
f 39/215/12 68/216/12 30/217/12 29/218/12
f 99/219/12 14/21/12 16/24/12 102/220/12
f 9/22/18 8/221/18 71/222/18 15/23/18
f 8/221/3 7/223/3 70/224/3 71/222/3
f 102/225/5 16/81/5 61/84/5 103/226/5
f 53/227/28 52/228/28 55/229/28 54/230/28
f 101/231/4 100/232/4 89/233/4 88/234/4
f 103/235/13 61/85/13 62/88/13 98/236/13
f 17/237/7 35/238/12 24/239/12 44/240/12 18/241/7
f 5/242/13 4/243/13 94/244/13 104/245/13
f 74/246/17 106/247/16 105/248/20 75/249/19
f 115/250/29 114/251/3 109/252/3 108/253/30
f 111/254/31 110/255/32 113/256/33 112/257/34
f 79/258/22 37/259/21 110/260/32 111/261/31
f 114/262/35 115/263/29 116/264/36 86/265/35
f 108/266/30 109/267/13 84/268/13 117/269/37
f 115/270/29 108/271/30 117/272/37 116/273/36
f 113/274/33 107/275/27 1/276/26 112/277/34
f 34/278/13 33/279/13 104/280/13 21/281/13
f 5/282/5 65/283/5 18/284/5 2/285/5
